SplineFontDB: 3.2
FontName: linja_laso
FullName: linja laso
FamilyName: linja laso
Weight: Regular
Copyright: Copyright (c) 2024, mute ante

StartChar: .notdef
Encoding: 232 -1 0
Width: 1100
GlyphClass: 1
Flags: MW
LayerCount: 2
Fore
SplineSet
130 65 m 1,0,-1
 970 65 l 1,1,-1
 970 668 l 1,2,-1
 130 668 l 1,3,-1
 130 65 l 1,0,-1
65 0 m 1,4,-1
 65 733 l 1,5,-1
 1035 733 l 1,6,-1
 1035 0 l 1,7,-1
 65 0 l 1,4,-1
EndSplineSet
EndChar

StartChar: a
Encoding: 46 97 6
Width: 550
GlyphClass: 1
Flags: MW
LayerCount: 2
Fore
SplineSet
262.500976562 587.499023438 m 0,0,1
 360.810302734 587.499023438 360.810302734 587.499023438 430.405273438 517.904052734 c 128,-1,2
 500.000244141 448.309082031 500.000244141 448.309082031 500.000976562 349.999023438 c 5,3,4
 500.000976562 349.999023438 500.000976562 349.999023438 500.000976562 0 c 5,5,-1
 400.000976562 0 l 1,6,7
 399.790452665 49.9299211091 399.790452665 49.9299211091 400.000976562 50.048828125 c 1,8,9
 333.343916321 0.0217347093103 333.343916321 0.0217347093103 250 0 c 0,10,11
 224.999023438 0.00194929534314 224.999023438 0.00194929534314 224.999023438 0 c 1,12,13
 152.561163218 0.00146484116032 152.561163218 0.00146484116032 101.281558172 51.2826508107 c 128,-1,14
 50.001953125 102.56383678 50.001953125 102.56383678 50.001953125 175.001953125 c 128,-1,15
 50.0034179722 247.439377584 50.0034179722 247.439377584 101.282677074 298.718834301 c 128,-1,16
 152.561936176 349.998291017 152.561936176 349.998291017 224.999023438 349.999023438 c 0,17,18
 400.000976562 349.999998085 400.000976562 349.999998085 400.000976562 349.999023438 c 1,19,20
 400.000976562 406.915451798 400.000976562 406.915451798 359.708900077 447.207725899 c 128,-1,21
 319.416823592 487.5 319.416823592 487.5 271.103341307 487.423504789 c 0,22,23
 177.700389117 487.275618977 177.700389117 487.275618977 139.893554688 411.184570312 c 1,24,25
 73.0683394993 444.314929569 73.0683394993 444.314929569 50.4462890625 455.822265625 c 1,26,27
 80.031681273 515.266210099 80.031681273 515.266210099 136.938723583 551.300716003 c 128,-1,28
 193.845765892 587.335221907 193.845765892 587.335221907 262.500976562 587.499023438 c 0,0,1
171.977931523 121.978489363 m 128,-1,30
 193.954886484 99.9997558524 193.954886484 99.9997558524 216.770412127 99.999673965 c 0,31,32
 245.211342871 99.9995718873 245.211342871 99.9995718873 250 99.9990234375 c 0,33,34
 312.090332031 99.9990234375 312.090332031 99.9990234375 356.045654297 143.954345703 c 128,-1,35
 400.000976562 187.909667969 400.000976562 187.909667969 400.000976562 250 c 1,36,-1
 224.999023438 250 l 2,37,38
 193.955153665 249.999267574 193.955153665 249.999267574 171.978431322 228.022742847 c 128,-1,39
 150.00170898 206.046218119 150.00170898 206.046218119 150.000976562 175.001953125 c 128,-1,29
 150.000976562 143.957222874 150.000976562 143.957222874 171.977931523 121.978489363 c 128,-1,30
EndSplineSet
EndChar

StartChar: e
Encoding: 50 101 7
Width: 550
GlyphClass: 1
Flags: MW
LayerCount: 2
Fore
SplineSet
275.000976562 599.999023438 m 128,-1,1
 368.136399064 599.999023438 368.136399064 599.999023438 434.068321602 534.067298515 c 128,-1,2
 500.00024414 468.135573592 500.00024414 468.135573592 500.000976562 375 c 1,3,4
 500.000976562 375 500.000976562 375 500.000976562 250 c 1,5,-1
 150.000976562 250 l 1,6,-1
 149.99609375 237.5 l 2,7,8
 149.99609375 180.545241517 149.99609375 180.545241517 190.269005218 140.272132477 c 128,-1,9
 230.541916685 99.9990234375 230.541916685 99.9990234375 278.524529385 100.074096329 c 0,10,11
 372.294569681 100.220807558 372.294569681 100.220807558 410.104492188 176.314453125 c 1,12,-1
 499.55078125 131.676757812 l 1,13,14
 469.504750814 71.3071100863 469.504750814 71.3071100863 412.217345001 35.7341217501 c 128,-1,15
 354.929939187 0.161133413915 354.929939187 0.161133413915 287.497070312 0 c 0,16,17
 189.120081918 0 189.120081918 0 119.556378872 69.5625176037 c 128,-1,18
 49.9926758264 139.125035207 49.9926758264 139.125035207 49.9970703125 237.5 c 2,19,-1
 50.001953125 375 l 2,20,21
 50.0026855469 468.135498047 50.0026855469 468.135498047 115.934448242 534.067260742 c 128,-1,0
 181.866210938 599.999023438 181.866210938 599.999023438 275.000976562 599.999023438 c 128,-1,1
275.000976562 500 m 128,-1,23
 223.259033203 500 223.259033203 500 186.630004883 463.37097168 c 128,-1,24
 150.000976562 426.741943359 150.000976562 426.741943359 150.000976562 375 c 2,25,-1
 150.000976562 349.999023438 l 1,26,-1
 400.000976562 349.999023438 l 1,27,-1
 400.000976562 375 l 2,28,29
 400.000976562 426.741943359 400.000976562 426.741943359 363.371948242 463.37097168 c 128,-1,22
 326.742919922 500 326.742919922 500 275.000976562 500 c 128,-1,23
EndSplineSet
EndChar

StartChar: i
Encoding: 54 105 8
Width: 550
GlyphClass: 1
Flags: MW
LayerCount: 2
Fore
SplineSet
100 600 m 1,0,-1
 324.998046875 599.999023438 l 1,1,-1
 324.998046875 99.9990234375 l 1,2,-1
 500.000976562 99.9990234375 l 1,3,-1
 500.000976562 0 l 1,4,-1
 50.001953125 0 l 1,5,-1
 50.001953125 99.9990234375 l 1,6,-1
 224.999023438 99.9990234375 l 1,7,-1
 224.999023438 500 l 1,8,-1
 100 500.000976562 l 1,9,-1
 100 600 l 1,0,-1
200 750 m 128,-1,11
 200 781 200 781 222 803 c 128,-1,12
 244 825 244 825 275 825 c 128,-1,13
 306 825 306 825 328 803 c 128,-1,14
 350 781 350 781 350 750 c 128,-1,15
 350 719 350 719 328 697 c 128,-1,16
 306 675 306 675 275 675 c 128,-1,17
 244 675 244 675 222 697 c 128,-1,10
 200 719 200 719 200 750 c 128,-1,11
EndSplineSet
EndChar

StartChar: j
Encoding: 55 106 9
Width: 550
GlyphClass: 1
Flags: MW
LayerCount: 2
Fore
SplineSet
275 750 m 128,-1,1
 275 781 275 781 297 803 c 128,-1,2
 319 825 319 825 350 825 c 128,-1,3
 381 825 381 825 403 803 c 128,-1,4
 425 781 425 781 425 750 c 128,-1,5
 425 719 425 719 403 697 c 128,-1,6
 381 675 381 675 350 675 c 128,-1,7
 319 675 319 675 297 697 c 128,-1,0
 275 719 275 719 275 750 c 128,-1,1
99.9990234375 599.999023438 m 1,8,-1
 400.000976562 599.999023438 l 5,9,10
 400.000976562 599.999023438 400.000976562 599.999023438 400.000976562 5.2451171875 c 5,11,12
 400.000244143 -79.7103967075 400.000244143 -79.7103967075 339.857081924 -139.851780385 c 128,-1,13
 279.713919705 -199.993164062 279.713919705 -199.993164062 194.793475798 -199.839918613 c 128,-1,14
 109.873031891 -199.686673164 109.873031891 -199.686673164 50.001953125 -139.510742188 c 1,15,16
 102.633743947 -86.8825869654 102.633743947 -86.8825869654 120.530273438 -68.982421875 c 1,17,18
 151.230429413 -99.8421125154 151.230429413 -99.8421125154 194.7578125 -99.9990234375 c 128,-1,19
 238.320800781 -99.9990234375 238.320800781 -99.9990234375 269.161376953 -69.1584472656 c 128,-1,20
 300.001953125 -38.3178710938 300.001953125 -38.3178710938 300.001953125 5.2451171875 c 2,21,-1
 300.001953125 500 l 1,22,-1
 99.9990234375 500 l 1,23,-1
 99.9990234375 599.999023438 l 1,8,-1
EndSplineSet
EndChar

StartChar: k
Encoding: 56 107 10
Width: 550
GlyphClass: 1
Flags: MW
LayerCount: 2
Fore
SplineSet
50.001953125 900.001953125 m 1,0,-1
 150.000976562 900.001953125 l 1,1,-1
 150.000976562 351.854492188 l 1,2,-1
 367.125 600 l 1,3,-1
 500 599.999023438 l 1,4,-1
 309.091796875 381.81640625 l 1,5,-1
 500.000976562 -0 l 1,6,-1
 388.198242188 -0 l 1,7,-1
 237.944335938 300.50390625 l 1,8,-1
 150.000976562 199.998046875 l 1,9,-1
 150.000976562 -0 l 1,10,-1
 50.001953125 -0 l 1,11,-1
 50.001953125 900.001953125 l 1,0,-1
EndSplineSet
EndChar

StartChar: l
Encoding: 57 108 11
Width: 550
GlyphClass: 1
Flags: MW
LayerCount: 2
Fore
SplineSet
99.9990234375 900.001953125 m 1,0,-1
 300.001953125 900.001953125 l 5,1,2
 300.001953125 900.001953125 300.001953125 900.001953125 300.001953125 199.998046875 c 5,3,4
 300.002685547 158.605224609 300.002685547 158.605224609 329.305419922 129.302490234 c 128,-1,5
 358.608154297 99.9997558594 358.608154297 99.9997558594 400.000976562 99.9990234375 c 1,6,7
 399.998052619 0 399.998052619 0 400.000976562 0 c 1,8,9
 317.214302953 0 317.214302953 0 258.606541124 58.6059832857 c 128,-1,10
 199.998779294 117.211966571 199.998779294 117.211966571 199.998046875 199.998046875 c 2,11,-1
 199.998046875 799.998046875 l 1,12,-1
 99.9990234375 799.998046875 l 1,13,-1
 99.9990234375 900.001953125 l 1,0,-1
EndSplineSet
EndChar

StartChar: m
Encoding: 58 109 12
Width: 550
GlyphClass: 1
Flags: MW
LayerCount: 2
Fore
SplineSet
50.001953125 599.999023438 m 5,0,-1
 149.913085938 599.999023438 l 1,1,2
 150 594 150 594 149.913085938 594.44921875 c 1,3,4
 168 600 168 600 187.4765625 599.999023438 c 0,5,6
 237 600 237 600 275.146484375 568.399414062 c 1,7,8
 313 600 313 600 366.260956117 599.933595065 c 0,9,10
 419 600 419 600 459.667686836 559.712806327 c 0,11,12
 499.954101562 519.046331442 499.954101562 519.046331442 499.954101562 462.51953125 c 2,13,-1
 499.954101562 0 l 1,14,-1
 400.04296875 0 l 1,15,-1
 400.04296875 462.51953125 l 2,16,17
 400 478 400 478 389.000732422 489.046630859 c 128,-1,18
 378 500 378 500 362.473632812 500.041992188 c 128,-1,19
 347 500 347 500 335.96260834 489.05696845 c 128,-1,20
 324.95703125 477.956661399 324.95703125 477.956661399 324.95703125 462.555664062 c 2,21,-1
 324.95703125 0 l 1,22,-1
 225.045898438 0 l 1,23,-1
 225.045898438 462.51953125 l 2,24,25
 225 478 225 478 214.003662109 489.046630859 c 128,-1,26
 203 500 203 500 187.4765625 500.041992188 c 128,-1,27
 172 500 172 500 160.949997696 489.046677386 c 128,-1,28
 149.956479612 477.956095362 149.956479612 477.956095362 149.955078125 462.51953125 c 2,29,-1
 149.913085938 0 l 1,30,-1
 50.001953125 0 l 5,31,32
 50.001953125 0 50.001953125 0 50.001953125 599.999023438 c 5,0,-1
EndSplineSet
EndChar

StartChar: n
Encoding: 59 110 13
Width: 550
GlyphClass: 1
Flags: MW
LayerCount: 2
Fore
SplineSet
50.001953125 599.999023438 m 1,0,-1
 149.913085938 599.999023438 l 1,1,2
 150.153823912 561.575911458 150.153823912 561.575911458 149.913085938 561.443359375 c 1,3,4
 206.598599974 599.7374216 206.598599974 599.7374216 275.000976562 599.999023438 c 0,5,6
 368.136399064 599.999023438 368.136399064 599.999023438 434.068321602 534.067298515 c 128,-1,7
 500.00024414 468.135573592 500.00024414 468.135573592 500.000976562 375 c 1,8,-1
 499.954101562 0 l 1,9,-1
 400.04296875 0 l 1,10,-1
 400.04296875 375 l 2,11,12
 400.000976562 426.741943359 400.000976562 426.741943359 363.371948242 463.37097168 c 128,-1,13
 326.742919922 500 326.742919922 500 275.000976562 500 c 128,-1,14
 223.259033203 500 223.259033203 500 186.630004883 463.37097168 c 128,-1,15
 150.000976562 426.741943359 150.000976562 426.741943359 150.000976562 375 c 1,16,-1
 149.913085938 0 l 1,17,-1
 50.001953125 0 l 1,18,-1
 50.001953125 599.999023438 l 1,0,-1
EndSplineSet
EndChar

StartChar: o
Encoding: 60 111 14
Width: 550
GlyphClass: 1
Flags: MW
LayerCount: 2
Fore
SplineSet
275.000976562 599.999023438 m 128,-1,1
 368.136399064 599.999023438 368.136399064 599.999023438 434.068321602 534.067298515 c 128,-1,2
 500.00024414 468.135573592 500.00024414 468.135573592 500.000976562 375 c 1,3,-1
 499.954101562 224.999023438 l 2,4,5
 500.000244139 131.86401367 500.000244139 131.86401367 434.068237304 65.932006835 c 128,-1,6
 368.136230469 0 368.136230469 0 275.000976562 0 c 128,-1,7
 181.866379533 0 181.866379533 0 115.93453254 65.9320446077 c 128,-1,8
 50.0026855482 131.864089215 50.0026855482 131.864089215 50.001953125 224.999023438 c 2,9,-1
 50.001953125 375 l 2,10,11
 50.0026855469 468.135498047 50.0026855469 468.135498047 115.934448242 534.067260742 c 128,-1,0
 181.866210938 599.999023438 181.866210938 599.999023438 275.000976562 599.999023438 c 128,-1,1
275.000976562 500 m 128,-1,13
 223.259033203 500 223.259033203 500 186.630004883 463.37097168 c 128,-1,14
 150.000976562 426.741943359 150.000976562 426.741943359 150.000976562 375 c 1,15,-1
 149.913085938 224.999023438 l 2,16,17
 150.000976562 173.257080078 150.000976562 173.257080078 186.630004883 136.628051758 c 128,-1,18
 223.259033203 99.9990234375 223.259033203 99.9990234375 275.000976562 99.9990234375 c 128,-1,19
 326.742919922 99.9990234375 326.742919922 99.9990234375 363.371948242 136.628051758 c 128,-1,20
 400.000976562 173.257080078 400.000976562 173.257080078 400.000976562 224.999023438 c 1,21,-1
 400.04296875 375 l 2,22,23
 400.000976562 426.741943359 400.000976562 426.741943359 363.371948242 463.37097168 c 128,-1,12
 326.742919922 500 326.742919922 500 275.000976562 500 c 128,-1,13
EndSplineSet
EndChar

StartChar: p
Encoding: 61 112 15
Width: 550
GlyphClass: 1
Flags: MW
LayerCount: 2
Fore
SplineSet
50.001953125 599.999023438 m 5,0,-1
 150.000976562 599.999023438 l 1,1,2
 150.241714537 561.637436811 150.241714537 561.637436811 150.000976562 561.505859375 c 1,3,4
 206.655449678 599.738863249 206.655449678 599.738863249 275.000976562 599.999023438 c 0,5,6
 368.136399064 599.999023438 368.136399064 599.999023438 434.068321602 534.067298515 c 128,-1,7
 500.00024414 468.135573592 500.00024414 468.135573592 500.000976562 375 c 0,8,9
 500.000001915 224.999023438 500.000001915 224.999023438 500.000976562 224.999023438 c 1,10,11
 500.000244139 131.86401367 500.000244139 131.86401367 434.068237304 65.932006835 c 128,-1,12
 368.136230469 0 368.136230469 0 275.000976562 0 c 0,13,14
 206.653104241 0.264499675074 206.653104241 0.264499675074 150.000976562 38.4990234375 c 1,15,-1
 150.000976562 -199.998046875 l 1,16,-1
 50.001953125 -199.998046875 l 1,17,-1
 50.001953125 599.999023438 l 5,0,-1
275.000976562 500 m 128,-1,19
 223.259033203 500 223.259033203 500 186.630004883 463.37097168 c 128,-1,20
 150.000976562 426.741943359 150.000976562 426.741943359 150.000976562 375 c 2,21,-1
 150.000976562 224.999023438 l 2,22,23
 150.000976562 173.257080078 150.000976562 173.257080078 186.630004883 136.628051758 c 128,-1,24
 223.259033203 99.9990234375 223.259033203 99.9990234375 275.000976562 99.9990234375 c 128,-1,25
 326.742919922 99.9990234375 326.742919922 99.9990234375 363.371948242 136.628051758 c 128,-1,26
 400.000976562 173.257080078 400.000976562 173.257080078 400.000976562 224.999023438 c 2,27,-1
 400.000976562 375 l 2,28,29
 400.000976562 426.741943359 400.000976562 426.741943359 363.371948242 463.37097168 c 128,-1,18
 326.742919922 500 326.742919922 500 275.000976562 500 c 128,-1,19
EndSplineSet
EndChar

StartChar: s
Encoding: 64 115 16
Width: 550
GlyphClass: 1
Flags: MW
LayerCount: 2
Fore
SplineSet
138.559570312 150.60546875 m 1,0,1
 167.138941134 100.294819158 167.138941134 100.294819158 224.999023438 99.9990234375 c 0,2,3
 324.998046875 100.001947381 324.998046875 100.001947381 324.998046875 99.9990234375 c 1,4,5
 356.042183829 99.9997558524 356.042183829 99.9997558524 378.019138789 121.978489363 c 128,-1,6
 399.99609375 143.957222874 399.99609375 143.957222874 399.99609375 175.001953125 c 128,-1,7
 399.995361328 206.046386719 399.995361328 206.046386719 378.018920898 228.022827148 c 128,-1,8
 356.042480469 249.999267578 356.042480469 249.999267578 324.998046875 250 c 0,9,10
 224.999023438 250.001949295 224.999023438 250.001949295 224.999023438 250 c 1,11,12
 152.561163218 250.001464841 152.561163218 250.001464841 101.281558172 301.282650811 c 128,-1,13
 50.001953125 352.56383678 50.001953125 352.56383678 50.001953125 425.001953125 c 128,-1,14
 50.0034179722 497.439377584 50.0034179722 497.439377584 101.282677074 548.718834301 c 128,-1,15
 152.561936176 599.998291017 152.561936176 599.998291017 224.999023438 599.999023438 c 0,16,17
 324.882063802 600.212471278 324.882063802 600.212471278 324.998046875 599.999023438 c 0,18,19
 379.808726983 599.850492825 379.808726983 599.850492825 425.924992426 572.416488471 c 128,-1,20
 472.041257868 544.982484117 472.041257868 544.982484117 498.23828125 498.993164062 c 1,21,22
 433.52194947 461.910919072 433.52194947 461.910919072 411.4375 449.393554688 c 1,23,24
 382.858129179 499.704204281 382.858129179 499.704204281 324.998046875 500 c 2,25,-1
 224.999023438 500 l 2,26,27
 193.955153665 499.999267574 193.955153665 499.999267574 171.978431322 478.022742847 c 128,-1,28
 150.00170898 456.046218119 150.00170898 456.046218119 150.000976562 425.001953125 c 128,-1,29
 150.000976562 393.957222874 150.000976562 393.957222874 171.977931523 371.978489363 c 128,-1,30
 193.954886484 349.999755852 193.954886484 349.999755852 224.999023438 349.999023438 c 2,31,-1
 324.998046875 349.999023438 l 2,32,33
 397.435302734 349.998291016 397.435302734 349.998291016 448.71484375 298.71875 c 128,-1,34
 499.994384766 247.439208984 499.994384766 247.439208984 499.995117188 175.001953125 c 128,-1,35
 499.995117188 102.56383678 499.995117188 102.56383678 448.715512141 51.2826508107 c 128,-1,36
 397.435907094 0.00146484116032 397.435907094 0.00146484116032 324.998046875 0 c 0,37,38
 225.11500651 -0.213447840074 225.11500651 -0.213447840074 224.999023438 0 c 0,39,40
 170.18851947 0.148530135195 170.18851947 0.148530135195 124.072215522 27.5829359972 c 128,-1,41
 77.9559115741 55.0173418593 77.9559115741 55.0173418593 51.7587890625 101.006835938 c 1,42,43
 116.47584814 138.089079601 116.47584814 138.089079601 138.559570312 150.60546875 c 1,0,1
EndSplineSet
EndChar

StartChar: t
Encoding: 65 116 17
Width: 550
GlyphClass: 1
Flags: MW
LayerCount: 2
Fore
SplineSet
200.000976562 799.998046875 m 1,0,-1
 300 799.998046875 l 1,1,-1
 300 600 l 1,2,-1
 425 600 l 1,3,-1
 425 500 l 1,4,-1
 300 500 l 1,5,-1
 300 224.999023438 l 2,6,7
 300 173.257080078 300 173.257080078 336.62902832 136.628051758 c 128,-1,8
 373.258056641 99.9990234375 373.258056641 99.9990234375 425 99.9990234375 c 1,9,-1
 425 0 l 1,10,11
 331.864670548 0 331.864670548 0 265.932823555 65.9320446084 c 128,-1,12
 200.000976562 131.864089217 200.000976562 131.864089217 200.000976562 224.999023438 c 2,13,-1
 200.000976562 500 l 1,14,-1
 99.99609375 500 l 1,15,-1
 99.99609375 600 l 1,16,-1
 200.000976562 600 l 1,17,-1
 200.000976562 799.998046875 l 1,0,-1
EndSplineSet
EndChar

StartChar: u
Encoding: 66 117 18
Width: 550
GlyphClass: 1
Flags: MW
LayerCount: 2
Fore
SplineSet
500.000976562 0 m 1,0,-1
 400.088867188 0 l 1,1,2
 399.84910386 38.4240866268 399.84910386 38.4240866268 400.088867188 38.5556640625 c 1,3,4
 343.407065173 0.263061426399 343.407065173 0.263061426399 275.000976562 0 c 0,5,6
 181.866379533 0 181.866379533 0 115.93453254 65.9320446077 c 128,-1,7
 50.0026855482 131.864089215 50.0026855482 131.864089215 50.001953125 224.999023438 c 1,8,-1
 50.048828125 599.999023438 l 1,9,-1
 149.959960938 599.999023438 l 1,10,-1
 149.959960938 224.999023438 l 2,11,12
 150.000976562 173.257080078 150.000976562 173.257080078 186.630004883 136.628051758 c 128,-1,13
 223.259033203 99.9990234375 223.259033203 99.9990234375 275.000976562 99.9990234375 c 128,-1,14
 326.742919922 99.9990234375 326.742919922 99.9990234375 363.371948242 136.628051758 c 128,-1,15
 400.000976562 173.257080078 400.000976562 173.257080078 400.000976562 224.999023438 c 1,16,-1
 400.088867188 599.999023438 l 1,17,-1
 500.000976562 599.999023438 l 1,18,-1
 500.000976562 0 l 1,0,-1
EndSplineSet
EndChar

StartChar: w
Encoding: 68 119 19
Width: 550
GlyphClass: 1
Flags: MW
LayerCount: 2
Fore
SplineSet
50.6064453125 599.999023438 m 1,0,-1
 151.365234375 599.999023438 l 1,1,-1
 200.002929688 308.182617188 l 1,2,-1
 225.681640625 462.255859375 l 1,3,-1
 324.998046875 462.255859375 l 1,4,-1
 350.340820312 310.21875 l 1,5,-1
 398.63671875 599.999023438 l 1,6,-1
 500.000976562 600 l 1,7,-1
 400.016601562 0.09765625 l 5,8,9
 331.292950324 -0.0361143867925 331.292950324 -0.0361143867925 300.6796875 0 c 5,10,-1
 275.342773438 152.037109375 l 1,11,-1
 250 0 l 1,12,-1
 150.000976562 -0 l 1,13,-1
 50.017578125 599.901367188 l 1,14,-1
 50.6064453125 599.999023438 l 1,0,-1
EndSplineSet
EndChar

StartChar: a.t
Encoding: 76 989440 20
Width: 1100
GlyphClass: 1
Flags: MW
LayerCount: 2
Fore
SplineSet
443.955546139 256.045511959 m 128,-1,1
 487.909139154 300.00048828 487.909139154 300.00048828 544.241342301 299.996150793 c 128,-1,2
 600.573545448 299.991813306 600.573545448 299.991813306 640.371493581 269.655913915 c 128,-1,3
 680.169441714 239.320014525 680.169441714 239.320014525 693.969726562 191.995117188 c 2,4,-1
 750 0.0009765625 l 1,5,-1
 650 0.0009765625 l 1,6,-1
 640.387695312 30.326171875 l 1,7,8
 600.274662858 0.0144926972366 600.274662858 0.0144926972366 544.091901006 0.00797877097145 c 128,-1,9
 487.909139154 0.0014648447063 487.909139154 0.0014648447063 443.955546139 43.956441166 c 128,-1,10
 400.001953125 87.9114174874 400.001953125 87.9114174874 400.001953125 150.000976562 c 128,-1,0
 400.001953125 212.090535638 400.001953125 212.090535638 443.955546139 256.045511959 c 128,-1,1
549.998046875 200.002929688 m 128,-1,12
 529.30213002 200.001464853 529.30213002 200.001464853 514.651553291 185.349307205 c 128,-1,13
 500.000976562 170.697149556 500.000976562 170.697149556 500.000976562 150.000976562 c 128,-1,14
 500.000976562 129.304634972 500.000976562 129.304634972 514.651637579 114.65219541 c 128,-1,15
 529.302298596 99.9997558489 529.302298596 99.9997558489 549.998046875 99.9990234375 c 128,-1,16
 570.694824219 99.9990234375 570.694824219 99.9990234375 585.347412109 114.651611328 c 128,-1,17
 600 129.304199219 600 129.304199219 600 150.000976562 c 128,-1,18
 600 170.697753906 600 170.697753906 585.347412109 185.350341797 c 128,-1,11
 570.694824219 200.002929688 570.694824219 200.002929688 549.998046875 200.002929688 c 128,-1,12
500 375 m 1,19,-1
 500 900 l 1,20,-1
 600 900 l 1,21,-1
 600 375 l 1,22,-1
 500 375 l 1,19,-1
EndSplineSet
LCarets2: 1 0
MultipleSubs2: "cartouched sitelen" a.t cartouche.body
Ligature2: "sitelen" a
Ligature2: "sitelen+-space" a space
EndChar

StartChar: akesi.t
Encoding: 77 989441 21
Width: 1100
GlyphClass: 1
Flags: MW
LayerCount: 2
Fore
SplineSet
475 538 m 1,0,-1
 625 538 l 1,1,-1
 625 575 l 2,2,3
 625 606 625 606 603 628 c 128,-1,4
 581 650 581 650 550 650 c 128,-1,5
 519 650 519 650 497 628 c 128,-1,6
 475 606 475 606 475 575 c 2,7,-1
 475 538 l 1,0,-1
475 313 m 1,8,-1
 625 313 l 1,9,-1
 625 438 l 1,10,-1
 475 438 l 1,11,-1
 475 313 l 1,8,-1
475 175 m 2,12,13
 475 144 475 144 497 122 c 128,-1,14
 519 100 519 100 550 100 c 128,-1,15
 581 100 581 100 603 122 c 128,-1,16
 625 144 625 144 625 175 c 2,17,-1
 625 213 l 1,18,-1
 475 213 l 1,19,-1
 475 175 l 2,12,13
425 759 m 128,-1,21
 396 759 396 759 375 779.5 c 128,-1,22
 354 800 354 800 354 829.5 c 128,-1,23
 354 859 354 859 375 879.5 c 128,-1,24
 396 900 396 900 425 900 c 128,-1,25
 454 900 454 900 475 879.5 c 128,-1,26
 496 859 496 859 496 829.5 c 128,-1,27
 496 800 496 800 475 779.5 c 128,-1,20
 454 759 454 759 425 759 c 128,-1,21
675 759 m 128,-1,29
 646 759 646 759 625 779.5 c 128,-1,30
 604 800 604 800 604 829.5 c 128,-1,31
 604 859 604 859 625 879.5 c 128,-1,32
 646 900 646 900 675 900 c 128,-1,33
 704 900 704 900 725 879.5 c 128,-1,34
 746 859 746 859 746 829.5 c 128,-1,35
 746 800 746 800 725 779.5 c 128,-1,28
 704 759 704 759 675 759 c 128,-1,29
550 750 m 128,-1,37
 622 750 622 750 673.5 698.5 c 128,-1,38
 725 647 725 647 725 575 c 2,39,-1
 725 538 l 1,40,-1
 825 538 l 1,41,-1
 825 438 l 1,42,-1
 725 438 l 1,43,-1
 725 313 l 1,44,-1
 825 313 l 1,45,-1
 825 213 l 1,46,-1
 725 213 l 1,47,-1
 725 175 l 2,48,49
 725 103 725 103 673.5 51.5 c 128,-1,50
 622 0 622 0 550 0 c 128,-1,51
 478 0 478 0 426.5 51.5 c 128,-1,52
 375 103 375 103 375 175 c 2,53,-1
 375 213 l 1,54,-1
 275 213 l 1,55,-1
 275 313 l 1,56,-1
 375 313 l 1,57,-1
 375 438 l 1,58,-1
 275 438 l 1,59,-1
 275 538 l 1,60,-1
 375 538 l 1,61,-1
 375 575 l 2,62,63
 375 647 375 647 426.5 698.5 c 128,-1,36
 478 750 478 750 550 750 c 128,-1,37
EndSplineSet
MultipleSubs2: "cartouched sitelen" akesi.t cartouche.body
LCarets2: 5 0 0 0 0 0
Ligature2: "sitelen+-space" a k e s i space
Ligature2: "sitelen" a k e s i
EndChar

StartChar: ala.t
Encoding: 78 989442 22
Width: 1100
GlyphClass: 1
Flags: MW
LayerCount: 2
Fore
SplineSet
171 900 m 1,0,-1
 550 521 l 1,1,-1
 929 900 l 1,2,-1
 1000 829 l 1,3,-1
 621 450 l 1,4,-1
 1000 71 l 1,5,-1
 929 0 l 1,6,-1
 550 379 l 1,7,-1
 171 0 l 1,8,-1
 100 71 l 1,9,-1
 479 450 l 1,10,-1
 100 829 l 1,11,-1
 171 900 l 1,0,-1
EndSplineSet
MultipleSubs2: "cartouched sitelen" ala.t cartouche.body
LCarets2: 3 0 0 0
Ligature2: "sitelen+-space" a l a space
Ligature2: "sitelen" a l a
EndChar

StartChar: alasa.t
Encoding: 79 989443 23
Width: 1100
GlyphClass: 1
Flags: MW
LayerCount: 2
Fore
SplineSet
200 900 m 5,0,1
 282 890 282 890 356.5 851.5 c 0,2,3
 508.500158546 772.949582497 508.500158546 772.949582497 570 611 c 0,4,5
 590.802072025 556.221210334 590.802072025 556.221210334 597.179937366 500 c 1,6,-1
 809 500 l 1,7,-1
 699 609 l 1,8,-1
 770 680 l 1,9,-1
 1000 450 l 1,10,-1
 770 220 l 1,11,-1
 699 291 l 1,12,-1
 809 400 l 1,13,-1
 597.179937366 400 l 1,14,15
 580.855987688 256.10354574 580.855987688 256.10354574 485.5 148.5 c 0,16,17
 431 87 431 87 356.5 48.5 c 128,-1,18
 282 10 282 10 200 0 c 1,19,20
 200 0 200 0 200 400 c 1,21,-1
 100 400 l 1,22,-1
 100 500 l 1,23,-1
 200 500 l 1,24,25
 200 500 200 500 200 900 c 5,0,1
300 500 m 1,26,-1
 496.358402943 500 l 1,27,28
 480.933029512 605.076537701 480.933029512 605.076537701 411 685 c 0,29,30
 364 737 364 737 300 768 c 1,31,-1
 300 500 l 1,26,-1
300 400 m 1,32,-1
 300 132 l 1,33,34
 426.323928293 193.188152767 426.323928293 193.188152767 476.5 324.5 c 0,35,36
 490.749187557 361.790427012 490.749187557 361.790427012 496.358402943 400 c 1,37,-1
 300 400 l 1,32,-1
EndSplineSet
MultipleSubs2: "cartouched sitelen" alasa.t cartouche.body
Ligature2: "sitelen+-space" a l a s a space
Ligature2: "sitelen" a l a s a
EndChar

StartChar: ale.t
Encoding: 80 989444 24
Width: 1100
GlyphClass: 1
Flags: MW
LayerCount: 2
Fore
SplineSet
863.5 538.5 m 128,-1,1
 827 575 827 575 770 575 c 128,-1,2
 713 575 713 575 675 525 c 1,3,-1
 614 450 l 1,4,5
 622 441 622 441 634 426 c 128,-1,6
 646 411 646 411 656 399 c 128,-1,7
 666 387 666 387 679.5 370 c 128,-1,8
 693 353 693 353 720 339 c 128,-1,9
 747 325 747 325 775 325 c 0,10,11
 827 325 827 325 863.5 361.5 c 128,-1,12
 900 398 900 398 900 450 c 128,-1,0
 900 502 900 502 863.5 538.5 c 128,-1,1
425 525 m 1,13,14
 387 575 387 575 330 575 c 128,-1,15
 273 575 273 575 236.5 538.5 c 128,-1,16
 200 502 200 502 200 450 c 128,-1,17
 200 398 200 398 236.5 361.5 c 128,-1,18
 273 325 273 325 328.545454545 325 c 128,-1,19
 384.090909091 325 384.090909091 325 425 375 c 0,20,21
 449.75 406.5 449.75 406.5 486 450 c 1,22,-1
 425 525 l 1,13,14
166 609 m 128,-1,24
 232 675 232 675 330 675 c 128,-1,25
 428 675 428 675 500 591 c 1,26,-1
 550 530 l 1,27,-1
 600 591 l 2,28,29
 668.923076923 675 668.923076923 675 768.461538462 675 c 128,-1,30
 868 675 868 675 934 609 c 128,-1,31
 1000 543 1000 543 1000 450 c 128,-1,32
 1000 357 1000 357 934 291 c 128,-1,33
 868 225 868 225 775 225 c 0,34,35
 727.4 225 727.4 225 700.2 237 c 0,36,37
 634.363636364 266.045454545 634.363636364 266.045454545 600 309 c 2,38,-1
 550 370 l 1,39,40
 525 339 525 339 496.5 304.5 c 128,-1,41
 468 270 468 270 422.5 247.5 c 128,-1,42
 377 225 377 225 325 225 c 0,43,44
 232 225 232 225 166 291 c 128,-1,45
 100 357 100 357 100 450 c 128,-1,23
 100 543 100 543 166 609 c 128,-1,24
EndSplineSet
MultipleSubs2: "cartouched sitelen" ale.t cartouche.body
Ligature2: "sitelen+-space" a l i space
Ligature2: "sitelen+-space" a l e space
Ligature2: "sitelen" a l e
Ligature2: "sitelen" a l i
EndChar

StartChar: anpa.t
Encoding: 81 989445 25
Width: 1100
GlyphClass: 1
Flags: MW
LayerCount: 2
Fore
SplineSet
603.033203125 146.966796875 m 128,-1,1
 581.065673828 125 581.065673828 125 549.999633789 125 c 128,-1,2
 518.93359375 125 518.93359375 125 496.966796875 146.966796875 c 128,-1,3
 475 168.934326172 475 168.934326172 475 200.000366211 c 128,-1,4
 475 231.06640625 475 231.06640625 496.966796875 253.033203125 c 128,-1,5
 518.93359375 275 518.93359375 275 549.999633789 275 c 128,-1,6
 581.065673828 275 581.065673828 275 603.033203125 253.033203125 c 128,-1,7
 625 231.06640625 625 231.06640625 625 200.000366211 c 128,-1,0
 625 168.934326172 625 168.934326172 603.033203125 146.966796875 c 128,-1,1
99.9990234375 725 m 1,8,-1
 199.998046875 725 l 1,9,-1
 199.998046875 425.002929688 l 1,10,-1
 900.001953125 425.002929688 l 1,11,-1
 900.001953125 725 l 1,12,-1
 1000.00097656 725 l 1,13,-1
 1000.00097656 324.998046875 l 1,14,-1
 99.9990234375 324.998046875 l 1,15,-1
 99.9990234375 725 l 1,8,-1
EndSplineSet
MultipleSubs2: "cartouched sitelen" anpa.t cartouche.body
Ligature2: "sitelen+-space" a n p a space
Ligature2: "sitelen" a n p a
EndChar

StartChar: ante.t
Encoding: 82 989446 26
Width: 1100
GlyphClass: 1
Flags: MW
LayerCount: 2
Fore
SplineSet
156 0 m 1,0,-1
 100 83 l 1,1,-1
 550 400 l 1,2,-1
 1000 83 l 1,3,-1
 944 0 l 1,4,-1
 550 278 l 1,5,-1
 156 0 l 1,0,-1
156 900 m 1,6,-1
 550 622 l 1,7,-1
 944 900 l 1,8,-1
 1000 817 l 1,9,-1
 550 500 l 1,10,-1
 100 817 l 1,11,-1
 156 900 l 1,6,-1
EndSplineSet
MultipleSubs2: "cartouched sitelen" ante.t cartouche.body
Ligature2: "sitelen+-space" a n t e space
Ligature2: "sitelen" a n t e
EndChar

StartChar: anu.t
Encoding: 83 989447 27
Width: 1100
GlyphClass: 1
Flags: MW
LayerCount: 2
Fore
SplineSet
171 900 m 1,0,-1
 550 521 l 1,1,-1
 929 900 l 1,2,-1
 1000 829 l 1,3,-1
 600 429 l 1,4,-1
 600 0 l 1,5,-1
 500 0 l 1,6,-1
 500 429 l 1,7,-1
 100 829 l 1,8,-1
 171 900 l 1,0,-1
EndSplineSet
MultipleSubs2: "cartouched sitelen" anu.t cartouche.body
Ligature2: "sitelen+-space" a n u space
Ligature2: "sitelen" a n u
EndChar

StartChar: awen.t
Encoding: 84 989448 28
Width: 1100
GlyphClass: 1
Flags: MW
LayerCount: 2
Fore
SplineSet
100 0 m 1,0,-1
 100 100 l 1,1,-1
 277.474645354 100 l 1,2,3
 503.091529359 761.189219532 503.091529359 761.189219532 550 900 c 5,4,5
 574.026241596 826.960225549 574.026241596 826.960225549 822.491282085 100 c 1,6,-1
 1000 100 l 1,7,-1
 1000 0 l 1,8,-1
 750 0 l 1,9,-1
 550 588 l 1,10,-1
 350 0 l 1,11,-1
 100 0 l 1,0,-1
EndSplineSet
MultipleSubs2: "cartouched sitelen" awen.t cartouche.body
Ligature2: "sitelen+-space" a w e n space
Ligature2: "sitelen" a w e n
EndChar

StartChar: e.t
Encoding: 85 989449 29
Width: 1100
GlyphClass: 1
Flags: MW
LayerCount: 2
Fore
SplineSet
570 871 m 1,0,-1
 1000 450 l 1,1,-1
 570 29 l 1,2,-1
 500 100 l 1,3,-1
 857 450 l 1,4,-1
 500 800 l 1,5,-1
 570 871 l 1,0,-1
170 871 m 1,6,-1
 600 450 l 1,7,-1
 170 29 l 1,8,-1
 100 100 l 1,9,-1
 457 450 l 1,10,-1
 100 800 l 1,11,-1
 170 871 l 1,6,-1
EndSplineSet
MultipleSubs2: "cartouched sitelen" e.t cartouche.body
Ligature2: "sitelen" e
Ligature2: "sitelen+-space" e space
EndChar

StartChar: en.t
Encoding: 86 989450 30
Width: 1100
GlyphClass: 1
Flags: MW
LayerCount: 2
Fore
SplineSet
500 800 m 1,0,-1
 600 800 l 1,1,-1
 600 500 l 1,2,-1
 900 500 l 1,3,-1
 900 400 l 1,4,-1
 600 400 l 1,5,-1
 600 100 l 1,6,-1
 500 100 l 1,7,-1
 500 400 l 1,8,-1
 200 400 l 1,9,-1
 200 500 l 1,10,-1
 500 500 l 1,11,-1
 500 800 l 1,0,-1
EndSplineSet
MultipleSubs2: "cartouched sitelen" en.t cartouche.body
Ligature2: "sitelen+-space" e n space
Ligature2: "sitelen" e n
EndChar

StartChar: esun.t
Encoding: 87 989451 31
Width: 1100
GlyphClass: 1
Flags: MW
LayerCount: 2
Fore
SplineSet
387 334 m 2,0,1
 359 350 359 350 316 350 c 128,-1,2
 273 350 273 350 236.5 313.5 c 128,-1,3
 200 277 200 277 200 225 c 128,-1,4
 200 173 200 173 236.5 136.5 c 128,-1,5
 273 100 273 100 321 100 c 128,-1,6
 369 100 369 100 403.5 128.5 c 128,-1,7
 438 157 438 157 447 201 c 2,8,-1
 465 289 l 1,9,-1
 387 334 l 2,0,1
863.5 763.5 m 128,-1,11
 827 800 827 800 778.5 800 c 128,-1,12
 730 800 730 800 696 772 c 128,-1,13
 662 744 662 744 653 700 c 0,14,15
 649 684 649 684 643 653 c 128,-1,16
 637 622 637 622 634 611 c 1,17,-1
 713 567 l 2,18,19
 742 550 742 550 784.5 550 c 128,-1,20
 827 550 827 550 863.5 586.5 c 128,-1,21
 900 623 900 623 900 675 c 128,-1,10
 900 727 900 727 863.5 763.5 c 128,-1,11
633 849.5 m 128,-1,23
 695 900 695 900 781.5 900 c 128,-1,24
 868 900 868 900 934 834 c 128,-1,25
 1000 768 1000 768 1000 675 c 128,-1,26
 1000 582 1000 582 934 516 c 128,-1,27
 868 450 868 450 775 450 c 0,28,29
 714 450 714 450 664 479 c 2,30,-1
 613 508 l 1,31,-1
 578 340 l 1,32,-1
 1000 100 l 1,33,-1
 951 13 l 1,34,-1
 557 237 l 1,35,-1
 545 180 l 2,36,37
 529 101 529 101 467 50.5 c 128,-1,38
 405 0 405 0 318.5 0 c 128,-1,39
 232 0 232 0 166 66 c 128,-1,40
 100 132 100 132 100 225 c 128,-1,41
 100 318 100 318 166 384 c 128,-1,42
 232 450 232 450 325 450 c 0,43,44
 386 450 386 450 436 421 c 2,45,-1
 487 392 l 1,46,-1
 521 560 l 1,47,-1
 100 800 l 1,48,-1
 149 887 l 1,49,-1
 543 663 l 1,50,-1
 555 720 l 2,51,22
 571 799 571 799 633 849.5 c 128,-1,23
EndSplineSet
LCarets2: 4 0 0 0 0
MultipleSubs2: "cartouched sitelen" esun.t cartouche.body
Ligature2: "sitelen+-space" e s u n space
Ligature2: "sitelen" e s u n
EndChar

StartChar: ijo.t
Encoding: 88 989452 32
Width: 1100
GlyphClass: 1
Flags: MW
LayerCount: 2
Fore
SplineSet
550 800 m 128,-1,1
 455 800 455 800 374.5 753 c 128,-1,2
 294 706 294 706 247 625.5 c 128,-1,3
 200 545 200 545 200 450 c 128,-1,4
 200 355 200 355 247 274.5 c 128,-1,5
 294 194 294 194 374.5 147 c 128,-1,6
 455 100 455 100 550 100 c 128,-1,7
 645 100 645 100 725.5 147 c 128,-1,8
 806 194 806 194 853 274.5 c 128,-1,9
 900 355 900 355 900 450 c 128,-1,10
 900 545 900 545 853 625.5 c 128,-1,11
 806 706 806 706 725.5 753 c 128,-1,0
 645 800 645 800 550 800 c 128,-1,1
550 900 m 128,-1,13
 641 900 641 900 724.5 864.5 c 128,-1,14
 808 829 808 829 868.5 768.5 c 128,-1,15
 929 708 929 708 964.5 624.5 c 128,-1,16
 1000 541 1000 541 1000 450 c 128,-1,17
 1000 359 1000 359 964.5 275.5 c 128,-1,18
 929 192 929 192 868.5 131.5 c 128,-1,19
 808 71 808 71 724.5 35.5 c 128,-1,20
 641 0 641 0 550 0 c 128,-1,21
 459 0 459 0 375.5 35.5 c 128,-1,22
 292 71 292 71 231.5 131.5 c 128,-1,23
 171 192 171 192 135.5 275.5 c 128,-1,24
 100 359 100 359 100 450 c 128,-1,25
 100 541 100 541 135.5 624.5 c 128,-1,26
 171 708 171 708 231.5 768.5 c 128,-1,27
 292 829 292 829 375.5 864.5 c 128,-1,12
 459 900 459 900 550 900 c 128,-1,13
EndSplineSet
MultipleSubs2: "cartouched sitelen" ijo.t cartouche.body
Ligature2: "sitelen+-space" i j o space
Ligature2: "sitelen" i j o
EndChar

StartChar: ike.t
Encoding: 89 989453 33
Width: 1100
GlyphClass: 1
Flags: MW
LayerCount: 2
Fore
SplineSet
900 225 m 1,0,1
 900 320 900 320 853 400.5 c 128,-1,2
 806 481 806 481 725.63933073 528.137041496 c 0,3,4
 645 575 645 575 549.99609375 574.999023438 c 128,-1,5
 455 575 455 575 374.5 528 c 128,-1,6
 294 481 294 481 247 400.5 c 128,-1,7
 200 320 200 320 199.997070312 225 c 1,8,-1
 99.998046875 225 l 1,9,10
 100 316 100 316 135.5 399.5 c 0,11,12
 207.111687907 567.93875888 207.111687907 567.93875888 375.181715531 639.336265106 c 0,13,14
 459 675 459 675 549.99609375 674.998046875 c 128,-1,15
 641 675 641 675 724.5 639.5 c 0,16,17
 893.201639928 567.776548294 893.201639928 567.776548294 964.337530245 399.31477438 c 0,18,19
 999.949848273 314.978804993 999.949848273 314.978804993 1000 225 c 1,20,-1
 900 225 l 1,0,1
EndSplineSet
LCarets2: 3 0 0 0
MultipleSubs2: "cartouched sitelen" ike.t cartouche.body
Ligature2: "sitelen+-space" i k e space
Ligature2: "sitelen" i k e
EndChar

StartChar: ilo.t
Encoding: 90 989454 34
Width: 1100
GlyphClass: 1
Flags: MW
LayerCount: 2
Fore
SplineSet
600 800 m 1,0,-1
 600 500 l 1,1,-1
 900 500 l 1,2,-1
 900 800 l 1,3,-1
 600 800 l 1,0,-1
200 800 m 1,4,-1
 200 500 l 1,5,-1
 500 500 l 1,6,-1
 500 800 l 1,7,-1
 200 800 l 1,4,-1
100 900 m 1,8,-1
 1000 900 l 1,9,-1
 1000 400 l 1,10,-1
 600 400 l 1,11,-1
 600 0 l 1,12,-1
 500 0 l 1,13,-1
 500 400 l 1,14,-1
 100 400 l 1,15,-1
 100 900 l 1,8,-1
EndSplineSet
MultipleSubs2: "cartouched sitelen" ilo.t cartouche.body
Ligature2: "sitelen+-space" i l o space
Ligature2: "sitelen" i l o
EndChar

StartChar: insa.t
Encoding: 91 989455 35
Width: 1100
GlyphClass: 1
Flags: MW
LayerCount: 2
Fore
SplineSet
475 525 m 128,-1,1
 475 556 475 556 497 578 c 128,-1,2
 519 600 519 600 550 600 c 128,-1,3
 581 600 581 600 603 578 c 128,-1,4
 625 556 625 556 625 525 c 128,-1,5
 625 494 625 494 603 472 c 128,-1,6
 581 450 581 450 550 450 c 128,-1,7
 519 450 519 450 497 472 c 128,-1,0
 475 494 475 494 475 525 c 128,-1,1
99.9990234375 650.001953125 m 5,8,-1
 199.998046875 650.001953125 l 1,9,-1
 199.998046875 349.999023438 l 1,10,-1
 900.001953125 349.999023438 l 1,11,-1
 900.001953125 650.001953125 l 1,12,-1
 1000.00097656 650.001953125 l 1,13,14
 1000.00097656 650.001953125 1000.00097656 650.001953125 1000.00097656 250 c 1,15,16
 1000.00097656 250 1000.00097656 250 99.9990234375 250 c 5,17,18
 99.9990234375 250 99.9990234375 250 99.9990234375 650.001953125 c 5,8,-1
EndSplineSet
MultipleSubs2: "cartouched sitelen" insa.t cartouche.body
Ligature2: "sitelen+-space" i n s a space
Ligature2: "sitelen" i n s a
EndChar

StartChar: jaki.t
Encoding: 92 989456 36
Width: 1100
GlyphClass: 1
Flags: MW
LayerCount: 2
Fore
SplineSet
299 267 m 1,0,1
 275 233 275 233 265.5 195.5 c 128,-1,2
 256 158 256 158 265.5 137 c 0,3,4
 281.924829157 100.692482916 281.924829157 100.692482916 305 103 c 0,5,6
 330.245283019 103 330.245283019 103 340.271267654 147.28143214 c 128,-1,7
 350.29725229 191.56286428 350.29725229 191.56286428 299 267 c 1,0,1
838 505 m 1,8,9
 829.091561939 393.644524237 829.091561939 393.644524237 692 340 c 0,10,11
 688 338 688 338 646.112903226 322.612903226 c 128,-1,12
 604.225806452 307.225806452 604.225806452 307.225806452 582.612903226 285.112903226 c 128,-1,13
 561 263 561 263 555.5 231.5 c 128,-1,14
 550 200 550 200 562.5 170 c 128,-1,15
 575 140 575 140 601 122 c 128,-1,16
 627 104 627 104 664 102.5 c 128,-1,17
 701 101 701 101 739.5 130 c 128,-1,18
 778 159 778 159 802 209 c 0,19,20
 839 283 839 283 849 436 c 0,21,22
 851 463 851 463 849.5 476 c 128,-1,23
 848 489 848 489 838 505 c 1,8,9
610 900 m 1,24,-1
 633 799 l 1,25,-1
 434 747 l 2,26,27
 368 730 368 730 331 709.5 c 128,-1,28
 294 689 294 689 271 650.5 c 0,29,30
 211.784172662 551.377854238 211.784172662 551.377854238 310 419 c 1,31,32
 344.08 446.588571429 344.08 446.588571429 389.04 476.294285714 c 128,-1,33
 434 506 434 506 496.727272727 552.363636364 c 128,-1,34
 559.454545455 598.727272727 559.454545455 598.727272727 612 625 c 1,35,36
 552 630 552 630 491.5 605 c 128,-1,37
 431 580 431 580 388 516 c 1,38,-1
 310 578 l 1,39,40
 370 666 370 666 464.5 705 c 128,-1,41
 559 744 559 744 647 725 c 128,-1,42
 735 706 735 706 785 653 c 1,43,44
 864.524344569 638.966292135 864.524344569 638.966292135 910 576 c 0,45,46
 939 536 939 536 943.5 501 c 128,-1,47
 948 466 948 466 944 406 c 0,48,49
 933.846153846 253.692307692 933.846153846 253.692307692 892.923076923 170.846153846 c 128,-1,50
 852 88 852 88 791 42 c 128,-1,51
 730 -4 730 -4 663.5 -1.5 c 128,-1,52
 597 1 597 1 548 35.5 c 128,-1,53
 499 70 499 70 474.5 128.5 c 128,-1,54
 450 187 450 187 461 251 c 0,55,56
 481.668058455 371.250521921 481.668058455 371.250521921 613 420.5 c 0,57,58
 625 425 625 425 657.886792453 436.745283019 c 0,59,60
 766.575 475.5625 766.575 475.5625 736 552 c 1,61,62
 675.011925043 549.560477002 675.011925043 549.560477002 630.505962521 520.280238501 c 128,-1,63
 586 491 586 491 535.461538462 454.307692308 c 128,-1,64
 484.923076923 417.615384615 484.923076923 417.615384615 440.961538462 388.307692308 c 128,-1,65
 397 359 397 359 370 338 c 1,66,67
 454.910641755 215.728675873 454.910641755 215.728675873 432 116 c 0,68,69
 422 70 422 70 389.5 36 c 128,-1,70
 357 2 357 2 313 -1 c 128,-1,71
 269 -4 269 -4 235 20 c 128,-1,72
 201 44 201 44 183 82 c 0,73,74
 153 147 153 147 171.5 218.5 c 128,-1,75
 190 290 190 290 237 349 c 1,76,77
 156.952868852 456.649590164 156.952868852 456.649590164 154 560 c 0,78,79
 151 640 151 640 189 704.5 c 128,-1,80
 227 769 227 769 293 806 c 0,81,82
 334 828 334 828 412 848 c 2,83,-1
 610 900 l 1,24,-1
EndSplineSet
LCarets2: 4 0 0 0 0
MultipleSubs2: "cartouched sitelen" jaki.t cartouche.body
Ligature2: "sitelen+-space" j a k i space
Ligature2: "sitelen" j a k i
EndChar

StartChar: jan.t
Encoding: 93 989457 37
Width: 1100
GlyphClass: 1
Flags: MW
LayerCount: 2
Fore
SplineSet
550 800 m 128,-1,1
 426 800 426 800 338 712 c 128,-1,2
 250 624 250 624 250 500 c 0,3,4
 250 418 250 418 292.5 348.5 c 128,-1,5
 335 279 335 279 404 239.5 c 128,-1,6
 473 200 473 200 550 200 c 128,-1,7
 627 200 627 200 696 239.5 c 128,-1,8
 765 279 765 279 807.5 348.5 c 128,-1,9
 850 418 850 418 850 500 c 0,10,11
 850 624 850 624 762 712 c 128,-1,0
 674 800 674 800 550 800 c 128,-1,1
550 900 m 128,-1,13
 659 900 659 900 751 846.5 c 128,-1,14
 843 793 843 793 896.5 701 c 128,-1,15
 950 609 950 609 950 500 c 0,16,17
 950 349 950 349 850 235 c 1,18,-1
 1000 67 l 1,19,-1
 925 0 l 1,20,-1
 775 169 l 1,21,22
 673 100 673 100 550 100 c 128,-1,23
 427 100 427 100 326 169 c 1,24,-1
 175 0 l 1,25,-1
 100 67 l 1,26,-1
 250 236 l 1,27,28
 150 349 150 349 150 500 c 0,29,30
 150 609 150 609 203.5 701 c 128,-1,31
 257 793 257 793 349 846.5 c 128,-1,12
 441 900 441 900 550 900 c 128,-1,13
EndSplineSet
MultipleSubs2: "cartouched sitelen" jan.t cartouche.body
Ligature2: "sitelen+-space" j a n space
Ligature2: "sitelen" j a n
EndChar

StartChar: jelo.t
Encoding: 94 989458 38
Width: 1100
GlyphClass: 1
Flags: MW
LayerCount: 2
Fore
SplineSet
200 0 m 1,0,-1
 466 418 l 1,1,2
 413 443 413 443 381.5 492 c 0,3,4
 364 519 364 519 356.102462269 550 c 1,5,-1
 250 550 l 1,6,-1
 250 650 l 1,7,-1
 355.839235848 650 l 1,8,9
 368 701 368 701 408.5 741.5 c 128,-1,10
 449 782 449 782 500 794.160764152 c 1,11,-1
 500 900 l 1,12,-1
 600 900 l 1,13,-1
 600 794.160764152 l 1,14,15
 651 782 651 782 691.5 741.5 c 128,-1,16
 732 701 732 701 744.160764152 650 c 1,17,-1
 850 650 l 1,18,-1
 850 550 l 1,19,-1
 743.897537731 550 l 1,20,21
 736 519 736 519 718.5 492 c 0,22,23
 687 443 687 443 634 418 c 1,24,-1
 900 0 l 1,25,-1
 200 0 l 1,0,-1
550 364 m 1,26,-1
 382 100 l 1,27,-1
 718 100 l 1,28,-1
 550 364 l 1,26,-1
550 700 m 128,-1,30
 509 700 509 700 479.5 670.5 c 128,-1,31
 450 641 450 641 450 600 c 128,-1,32
 450 559 450 559 479.5 529.5 c 128,-1,33
 509 500 509 500 550 500 c 128,-1,34
 591 500 591 500 620.5 529.5 c 128,-1,35
 650 559 650 559 650 600 c 128,-1,36
 650 641 650 641 620.5 670.5 c 128,-1,29
 591 700 591 700 550 700 c 128,-1,30
EndSplineSet
MultipleSubs2: "cartouched sitelen" jelo.t cartouche.body
Ligature2: "sitelen+-space" j e l o space
Ligature2: "sitelen" j e l o
EndChar

StartChar: jo.t
Encoding: 95 989459 39
Width: 1100
GlyphClass: 1
Flags: MW
LayerCount: 2
Fore
SplineSet
550 750 m 128,-1,1
 519 750 519 750 497 728 c 128,-1,2
 475 706 475 706 475 675 c 128,-1,3
 475 644 475 644 497 622 c 128,-1,4
 519 600 519 600 550 600 c 128,-1,5
 581 600 581 600 603 622 c 128,-1,6
 625 644 625 644 625 675 c 128,-1,7
 625 706 625 706 603 728 c 128,-1,0
 581 750 581 750 550 750 c 128,-1,1
550 500 m 0,8,9
 459.908086274 500 459.908086274 500 406.041390214 575.55945929 c 1,10,11
 373.615941274 550.944443287 373.615941274 550.944443287 343.307970637 504.472221644 c 128,-1,12
 313 458 313 458 312 387 c 0,13,14
 312 289 312 289 382 219.5 c 128,-1,15
 452 150 452 150 550 150 c 128,-1,16
 648 150 648 150 718 219.5 c 0,17,18
 764.732570047 265.898765975 764.732570047 265.898765975 780.266095763 325 c 1,19,-1
 500 325 l 1,20,21
 500 325 500 325 500 425 c 5,22,23
 500 425 500 425 887 425 c 5,24,-1
 887 402.74011537 l 2,25,26
 887.585786438 394.870057685 887.585786438 394.870057685 888 387 c 0,27,28
 888 296 888 296 842.5 218 c 128,-1,29
 797 140 797 140 719.5 95 c 128,-1,30
 642 50 642 50 550 50 c 128,-1,31
 458 50 458 50 380.5 95 c 128,-1,32
 303 140 303 140 257.5 218 c 128,-1,33
 212 296 212 296 212.5 398 c 128,-1,34
 213 500 213 500 279.5 588.5 c 0,35,36
 320.22023181 642.691586695 320.22023181 642.691586695 375.001212776 675.69831133 c 1,37,38
 375.24991594 747.24991594 375.24991594 747.24991594 426.62495797 798.62495797 c 128,-1,39
 478 850 478 850 550 850 c 128,-1,40
 622 850 622 850 673.5 798.5 c 128,-1,41
 725 747 725 747 725 675 c 128,-1,42
 725 603 725 603 673.5 551.5 c 128,-1,43
 622 500 622 500 550 500 c 0,8,9
EndSplineSet
LCarets2: 2 0 0
MultipleSubs2: "cartouched sitelen" jo.t cartouche.body
Ligature2: "sitelen+-space" j o space
Ligature2: "sitelen" j o
EndChar

StartChar: kala.t
Encoding: 96 989460 40
Width: 1100
GlyphClass: 1
Flags: MW
LayerCount: 2
Fore
SplineSet
700 650 m 0,0,1
 612 650 612 650 554 587 c 2,2,-1
 425 450 l 1,3,-1
 554 313 l 2,4,5
 612 250 612 250 700 250 c 0,6,7
 783 250 783 250 841.5 308.5 c 128,-1,8
 900 367 900 367 900 450 c 128,-1,9
 900 533 900 533 841.5 591.5 c 128,-1,10
 783 650 783 650 700 650 c 0,0,1
700 750 m 0,11,12
 824 750 824 750 912 662 c 128,-1,13
 1000 574 1000 574 1000 450 c 128,-1,14
 1000 326 1000 326 912 238 c 128,-1,15
 824 150 824 150 700 150 c 0,16,17
 637 150 637 150 580 175 c 128,-1,18
 523 200 523 200 481 244 c 2,19,-1
 357 377 l 1,20,-1
 173 181 l 1,21,-1
 100 250 l 1,22,-1
 288 450 l 1,23,-1
 100 650 l 1,24,-1
 173 719 l 1,25,-1
 357 523 l 1,26,-1
 481 656 l 2,27,28
 523 700 523 700 580 725 c 128,-1,29
 637 750 637 750 700 750 c 0,11,12
EndSplineSet
LCarets2: 4 0 0 0 0
MultipleSubs2: "cartouched sitelen" kala.t cartouche.body
Ligature2: "sitelen+-space" k a l a space
Ligature2: "sitelen" k a l a
EndChar

StartChar: kalama.t
Encoding: 97 989461 41
Width: 1100
GlyphClass: 1
Flags: MW
LayerCount: 2
Fore
SplineSet
350 800 m 1,0,-1
 425 575 l 1,1,-1
 320 575 l 1,2,-1
 245 800 l 1,3,-1
 350 800 l 1,0,-1
750 800 m 1,4,-1
 855 800 l 1,5,-1
 780 575 l 1,6,-1
 675 575 l 1,7,-1
 750 800 l 1,4,-1
500 800 m 1,8,-1
 600 800 l 1,9,-1
 600 575 l 1,10,-1
 500 575 l 1,11,-1
 500 800 l 1,8,-1
306 400 m 1,12,13
 323 314 323 314 391.5 257 c 128,-1,14
 460 200 460 200 550 200 c 128,-1,15
 640 200 640 200 708.5 257 c 128,-1,16
 777 314 777 314 795 400 c 1,17,-1
 306 400 l 1,12,13
200 500 m 1,18,-1
 900 500 l 1,19,-1
 900 450 l 2,20,21
 900 355 900 355 853 274.5 c 128,-1,22
 806 194 806 194 725.5 147 c 128,-1,23
 645 100 645 100 550 100 c 128,-1,24
 455 100 455 100 374.5 147 c 128,-1,25
 294 194 294 194 247 274.5 c 128,-1,26
 200 355 200 355 200 450 c 2,27,-1
 200 500 l 1,18,-1
EndSplineSet
MultipleSubs2: "cartouched sitelen" kalama.t cartouche.body
Ligature2: "sitelen+-space" k a l a m a space
Ligature2: "sitelen" k a l a m a
EndChar

StartChar: kama.t
Encoding: 98 989462 42
Width: 1100
GlyphClass: 1
Flags: MW
LayerCount: 2
Fore
SplineSet
550 900 m 1,0,1
 550 900 550 900 1000 100 c 5,2,3
 1000 100 1000 100 700 0 c 5,4,-1
 668 95 l 1,5,-1
 853 157 l 1,6,-1
 580 642 l 1,7,8
 580 642 580 642 400 0 c 1,9,10
 400 0 400 0 100 100 c 1,11,-1
 132 195 l 1,12,-1
 330 129 l 1,13,-1
 550 900 l 1,0,1
EndSplineSet
MultipleSubs2: "cartouched sitelen" kama.t cartouche.body
Ligature2: "sitelen+-space" k a m a space
Ligature2: "sitelen" k a m a
EndChar

StartChar: kasi.t
Encoding: 99 989463 43
Width: 1100
GlyphClass: 1
Flags: MW
LayerCount: 2
Fore
SplineSet
900 800 m 1,0,1
 776 800 776 800 688 712 c 128,-1,2
 600 624 600 624 600 500 c 1,3,4
 724 500 724 500 812 588 c 128,-1,5
 900 676 900 676 900 800 c 1,0,1
200 800 m 1,6,7
 200 676 200 676 288 588 c 128,-1,8
 376 500 376 500 500 500 c 1,9,10
 500 624 500 624 412 712 c 128,-1,11
 324 800 324 800 200 800 c 1,6,7
100 900 m 1,12,-1
 200 900 l 2,13,14
 311 900 311 900 404.5 843.5 c 128,-1,15
 498 787 498 787 550 693 c 1,16,17
 602 787 602 787 695.5 843.5 c 128,-1,18
 789 900 789 900 900 900 c 2,19,-1
 1000 900 l 1,20,21
 1000 900 1000 900 1000 795.5 c 128,-1,22
 1000 691 1000 691 946.5 599 c 128,-1,23
 893 507 893 507 801 453.5 c 128,-1,24
 709 400 709 400 600 400 c 1,25,-1
 600 0 l 1,26,-1
 500 0 l 1,27,-1
 500 400 l 1,28,29
 391 400 391 400 299 453.5 c 128,-1,30
 207 507 207 507 153.5 599 c 128,-1,31
 100 691 100 691 100 800 c 2,32,-1
 100 900 l 1,12,-1
EndSplineSet
MultipleSubs2: "cartouched sitelen" kasi.t cartouche.body
Ligature2: "sitelen+-space" k a s i space
Ligature2: "sitelen" k a s i
EndChar

StartChar: ken.t
Encoding: 100 989464 44
Width: 1100
GlyphClass: 1
Flags: MW
LayerCount: 2
Fore
SplineSet
250 900.001953125 m 1,0,-1
 349.999023438 900.001953125 l 1,1,2
 350.000972733 500.001949295 350.000972733 500.001949295 349.999023438 500 c 1,3,4
 458.580676161 500 458.580676161 500 550.733222426 553.557377079 c 128,-1,5
 642.88576869 607.114754158 642.88576869 607.114754158 696.442884345 699.267492713 c 128,-1,6
 750 791.420231267 750 791.420231267 750 900.001953125 c 1,7,8
 808.613800629 900.165721426 808.613800629 900.165721426 835.627642515 900.122099377 c 2,9,-1
 850 900.001953125 l 1,10,11
 849.99350529 753.656663136 849.99350529 753.656663136 772.642716667 632.669657186 c 128,-1,12
 695.291928044 511.682651236 695.291928044 511.682651236 567.892578125 449.998046875 c 1,13,14
 695.290417409 388.314941737 695.290417409 388.314941737 772.641239715 267.32940512 c 128,-1,15
 849.99206202 146.343868503 849.99206202 146.343868503 850 0 c 1,16,17
 850 0 850 0 750 0 c 1,18,19
 750 108.581696312 750 108.581696312 696.442873448 200.734209885 c 128,-1,20
 642.885746896 292.886723458 642.885746896 292.886723458 550.733233323 346.44385001 c 128,-1,21
 458.58071975 400.000976562 458.58071975 400.000976562 349.999023438 400.000976562 c 1,22,-1
 349.999023438 0 l 1,23,-1
 250 0 l 1,24,-1
 250 900.001953125 l 1,0,-1
EndSplineSet
MultipleSubs2: "cartouched sitelen" ken.t cartouche.body
Ligature2: "sitelen+-space" k e n space
Ligature2: "sitelen" k e n
EndChar

StartChar: kepeken.t
Encoding: 101 989465 45
Width: 1100
GlyphClass: 1
Flags: MW
LayerCount: 2
Fore
SplineSet
150 260 m 1,0,-1
 237 310 l 1,1,-1
 300 200 l 1,2,-1
 300 250 l 2,3,4
 300 353 300 353 373.5 426.5 c 0,5,6
 428.49285551 481.49285551 428.49285551 481.49285551 500 495.339940175 c 1,7,-1
 500 600 l 1,8,-1
 250 600 l 1,9,-1
 250 900 l 1,10,-1
 850 900 l 1,11,-1
 850 600 l 1,12,-1
 600 600 l 1,13,-1
 600 495.339940175 l 1,14,15
 671.50714449 481.49285551 671.50714449 481.49285551 726.5 426.5 c 0,16,17
 800 353 800 353 800 250 c 2,18,-1
 800 0 l 1,19,-1
 700 0 l 1,20,-1
 700 250 l 2,21,22
 700 312 700 312 656 356 c 128,-1,23
 612 400 612 400 550 400 c 128,-1,24
 488 400 488 400 444 356 c 128,-1,25
 400 312 400 312 400 250 c 2,26,-1
 400 0 l 1,27,-1
 300 0 l 1,28,-1
 150 260 l 1,0,-1
600 800 m 1,29,-1
 600 700 l 1,30,-1
 750 700 l 1,31,-1
 750 800 l 1,32,-1
 600 800 l 1,29,-1
350 800 m 1,33,-1
 350 700 l 1,34,-1
 500 700 l 1,35,-1
 500 800 l 1,36,-1
 350 800 l 1,33,-1
EndSplineSet
LCarets2: 7 0 0 0 0 0 0 0
MultipleSubs2: "cartouched sitelen" kepeken.t cartouche.body
Ligature2: "sitelen+-space" k e p e k e n space
Ligature2: "sitelen" k e p e k e n
EndChar

StartChar: kili.t
Encoding: 102 989466 46
Width: 1100
GlyphClass: 1
Flags: MW
LayerCount: 2
Fore
SplineSet
449 900 m 1,0,-1
 550 900 l 1,1,-1
 591.691033544 653.189081418 l 1,2,3
 699.631650173 717.092704696 699.631650173 717.092704696 818 672 c 0,4,5
 901 640 901 640 949 565.5 c 128,-1,6
 997 491 997 491 1000 403 c 128,-1,7
 1003 315 1003 315 964.5 237 c 128,-1,8
 926 159 926 159 858 103 c 0,9,10
 731 0 731 0 550 0 c 128,-1,11
 369 0 369 0 243 103 c 0,12,13
 174 159 174 159 135.5 237 c 128,-1,14
 97 315 97 315 100 403 c 128,-1,15
 103 491 103 491 151 565.5 c 128,-1,16
 199 640 199 640 282 672 c 0,17,18
 389.528463165 711.339681646 389.528463165 711.339681646 488.355041981 663.869748114 c 1,19,-1
 449 900 l 1,0,-1
509 521 m 2,20,21
 477 566 477 566 423.611111111 582.444444444 c 128,-1,22
 370.222222222 598.888888889 370.222222222 598.888888889 318.111111111 578.444444444 c 128,-1,23
 266 558 266 558 234 509 c 128,-1,24
 202 460 202 460 200 398.5 c 128,-1,25
 198 337 198 337 226 279.5 c 128,-1,26
 254 222 254 222 306 181 c 0,27,28
 405 100 405 100 550 100 c 128,-1,29
 695 100 695 100 794 181 c 0,30,31
 846 223 846 223 874 280 c 128,-1,32
 902 337 902 337 900 398.5 c 128,-1,33
 898 460 898 460 866.5 509 c 128,-1,34
 835 558 835 558 782.5 578 c 128,-1,35
 730 598 730 598 676.5 582 c 128,-1,36
 623 566 623 566 591 521 c 2,37,-1
 550 464 l 1,38,-1
 509 521 l 2,20,21
EndSplineSet
MultipleSubs2: "cartouched sitelen" kili.t cartouche.body
Ligature2: "sitelen+-space" k i l i space
Ligature2: "sitelen" k i l i
EndChar

StartChar: kiwen.t
Encoding: 103 989467 47
Width: 1100
GlyphClass: 1
Flags: MW
LayerCount: 2
Fore
SplineSet
358 700 m 1,0,-1
 230 476 l 1,1,-1
 550 227 l 1,2,-1
 870 476 l 1,3,-1
 742 700 l 1,4,-1
 358 700 l 1,0,-1
300 800 m 1,5,-1
 800 800 l 1,6,-1
 1000 450 l 1,7,-1
 550 100 l 1,8,-1
 100 450 l 1,9,-1
 300 800 l 1,5,-1
EndSplineSet
MultipleSubs2: "cartouched sitelen" kiwen.t cartouche.body
Ligature2: "sitelen+-space" k i w e n space
Ligature2: "sitelen" k i w e n
EndChar

StartChar: ko.t
Encoding: 104 989468 48
Width: 1100
GlyphClass: 1
Flags: MW
LayerCount: 2
Fore
SplineSet
556.5 746.5 m 128,-1,1
 495 782 495 782 463.658854167 791.765625 c 128,-1,2
 432.317708333 801.53125 432.317708333 801.53125 411.158854167 791.765625 c 0,3,4
 375.661764706 775.382352941 375.661764706 775.382352941 378 752 c 0,5,6
 378 748 378 748 391.5 714.5 c 128,-1,7
 405 681 405 681 408 655 c 128,-1,8
 411 629 411 629 396 598 c 0,9,10
 372.268791341 548.955502105 372.268791341 548.955502105 292 536.5 c 0,11,12
 255.855072464 530.891304348 255.855072464 530.891304348 249.619843924 526.214882943 c 128,-1,13
 243.384615385 521.538461538 243.384615385 521.538461538 254.192307692 509.769230769 c 128,-1,14
 265 498 265 498 299.2 488.1 c 128,-1,15
 333.4 478.2 333.4 478.2 341.5 475.5 c 0,16,17
 401.636363636 455.454545455 401.636363636 455.454545455 427.318181818 419.727272727 c 128,-1,18
 453 384 453 384 453 349 c 0,19,20
 453 284.222222222 453 284.222222222 375.25 223.75 c 0,21,22
 340 196.333333333 340 196.333333333 340 176 c 0,23,24
 340 129.032258065 340 129.032258065 388 112 c 0,25,26
 459.726155647 85.7004095963 459.726155647 85.7004095963 562.5 167.5 c 0,27,28
 638.591346154 228.0625 638.591346154 228.0625 688 243 c 0,29,30
 709 250 709 250 754.354625551 256.918502203 c 128,-1,31
 799.709251101 263.837004405 799.709251101 263.837004405 804 281 c 0,32,33
 810.454545455 293.909090909 810.454545455 293.909090909 766.227272727 326.954545455 c 128,-1,34
 722 360 722 360 705.5 381 c 0,35,36
 669.217983651 427.177111717 669.217983651 427.177111717 678.608991826 476.088555858 c 128,-1,37
 688 525 688 525 729 555 c 0,38,39
 752 571 752 571 788.5 584 c 128,-1,40
 825 597 825 597 840.256666667 604.96 c 128,-1,41
 855.513333333 612.92 855.513333333 612.92 854.256666667 623.96 c 128,-1,42
 853 635 853 635 845 647 c 128,-1,43
 837 659 837 659 815.5 667 c 128,-1,44
 794 675 794 675 744.5 681.5 c 128,-1,45
 695 688 695 688 656.5 699.5 c 128,-1,0
 618 711 618 711 556.5 746.5 c 128,-1,1
308 645 m 1,46,-1
 308 650 l 1,47,48
 307 657 307 657 306.953125 657.109375 c 130,-1,49
 306.953125 657.109375 306.953125 657.109375 299.453125 674.609375 c 128,-1,50
 292 692 292 692 289 699.5 c 0,51,52
 261.44278607 768.393034826 261.44278607 768.393034826 300 827 c 0,53,54
 322 860 322 860 358 877 c 0,55,56
 422.083769634 907.261780105 422.083769634 907.261780105 500 885 c 0,57,58
 546 872 546 872 608 836 c 128,-1,59
 670 800 670 800 687 795 c 128,-1,60
 704 790 704 790 758 783 c 0,61,62
 887.302752294 766.23853211 887.302752294 766.23853211 929.438261393 699.693036547 c 128,-1,63
 971.573770492 633.147540984 971.573770492 633.147540984 942 574 c 0,64,65
 925 537 925 537 883 514 c 0,66,67
 866 505 866 505 822.727272727 490.363636364 c 128,-1,68
 779.454545455 475.727272727 779.454545455 475.727272727 777 461 c 0,69,70
 777 444 777 444 818.5 413 c 0,71,72
 918.700270513 338.151605159 918.700270513 338.151605159 903.317241379 265.813793103 c 0,73,74
 883.841461061 174.230053382 883.841461061 174.230053382 754.5 154.5 c 0,75,76
 725 150 725 150 705.953362256 144.398047722 c 128,-1,77
 686.906724512 138.796095445 686.906724512 138.796095445 625 89.5 c 0,78,79
 477.573221757 -27.8953974895 477.573221757 -27.8953974895 353 18 c 0,80,81
 284 44 284 44 255 107 c 0,82,83
 201.266462481 217.825421133 201.266462481 217.825421133 320.136363636 310.227272727 c 0,84,85
 353 335.773359841 353 335.773359841 353 346.98667992 c 128,-1,86
 353 358.2 353 358.2 338.5 367.1 c 128,-1,87
 324 376 324 376 267.5 392.5 c 128,-1,88
 211 409 211 409 183.5 438 c 128,-1,89
 156 467 156 467 148 503 c 128,-1,90
 140 539 140 539 159 572.5 c 0,91,92
 186.62295082 621.203623814 186.62295082 621.203623814 264.5 633.5 c 0,93,94
 298.896551724 638.931034483 298.896551724 638.931034483 308 645 c 1,46,-1
EndSplineSet
MultipleSubs2: "cartouched sitelen" ko.t cartouche.body
Ligature2: "sitelen+-space" k o space
Ligature2: "sitelen" k o
EndChar

StartChar: kon.t
Encoding: 105 989469 49
Width: 1100
GlyphClass: 1
Flags: MW
LayerCount: 2
Fore
SplineSet
770 340 m 2,0,-1
 650 500 l 2,1,2
 600 567 600 567 600 660.5 c 128,-1,3
 600 754 600 754 673 827 c 128,-1,4
 746 900 746 900 850 900 c 1,5,-1
 850 800 l 1,6,7
 788 800 788 800 744 756 c 128,-1,8
 700 712 700 712 700 656 c 128,-1,9
 700 600 700 600 730 560 c 2,10,-1
 850 400 l 2,11,12
 900 333 900 333 900 239.5 c 128,-1,13
 900 146 900 146 827 73 c 128,-1,14
 754 0 754 0 650 0 c 1,15,-1
 650 100 l 1,16,17
 712 100 712 100 756 144 c 128,-1,18
 800 188 800 188 800 244 c 128,-1,19
 800 300 800 300 770 340 c 2,0,-1
370 340 m 2,20,-1
 250 500 l 2,21,22
 200 567 200 567 200 660.5 c 128,-1,23
 200 754 200 754 273 827 c 128,-1,24
 346 900 346 900 450 900 c 1,25,-1
 450 800 l 1,26,27
 388 800 388 800 344 756 c 128,-1,28
 300 712 300 712 300 656 c 128,-1,29
 300 600 300 600 330 560 c 2,30,-1
 450 400 l 2,31,32
 500 333 500 333 500 239.5 c 128,-1,33
 500 146 500 146 427 73 c 128,-1,34
 354 0 354 0 250 0 c 1,35,-1
 250 100 l 1,36,37
 312 100 312 100 356 144 c 128,-1,38
 400 188 400 188 400 244 c 128,-1,39
 400 300 400 300 370 340 c 2,20,-1
EndSplineSet
MultipleSubs2: "cartouched sitelen" kon.t cartouche.body
Ligature2: "sitelen+-space" k o n space
Ligature2: "sitelen" k o n
EndChar

StartChar: kule.t
Encoding: 106 989470 50
Width: 1100
GlyphClass: 1
Flags: MW
LayerCount: 2
Fore
SplineSet
387 350 m 1,0,-1
 262 100 l 1,1,-1
 838 100 l 1,2,-1
 713 350 l 1,3,-1
 387 350 l 1,0,-1
550 676 m 1,4,-1
 437 450 l 1,5,-1
 663 450 l 1,6,-1
 550 676 l 1,4,-1
550 900 m 1,7,-1
 775 450 l 1,8,-1
 1000 450 l 1,9,-1
 1000 350 l 1,10,-1
 825 350 l 1,11,-1
 1000 0 l 1,12,-1
 100 0 l 1,13,-1
 275 350 l 1,14,-1
 100 350 l 1,15,-1
 100 450 l 1,16,-1
 325 450 l 1,17,-1
 550 900 l 1,7,-1
EndSplineSet
MultipleSubs2: "cartouched sitelen" kule.t cartouche.body
Ligature2: "sitelen+-space" k u l e space
Ligature2: "sitelen" k u l e
EndChar

StartChar: kulupu.t
Encoding: 107 989471 51
Width: 1100
GlyphClass: 1
Flags: MW
LayerCount: 2
Fore
SplineSet
800 325 m 128,-1,1
 759 325 759 325 729.5 295.5 c 128,-1,2
 700 266 700 266 700 225 c 128,-1,3
 700 184 700 184 729.5 154.5 c 128,-1,4
 759 125 759 125 800 125 c 128,-1,5
 841 125 841 125 870.5 154.5 c 128,-1,6
 900 184 900 184 900 225 c 128,-1,7
 900 266 900 266 870.5 295.5 c 128,-1,0
 841 325 841 325 800 325 c 128,-1,1
800 425 m 128,-1,9
 883 425 883 425 941.5 366.5 c 128,-1,10
 1000 308 1000 308 1000 225 c 128,-1,11
 1000 142 1000 142 941.5 83.5 c 128,-1,12
 883 25 883 25 800 25 c 128,-1,13
 717 25 717 25 658.5 83.5 c 128,-1,14
 600 142 600 142 600 225 c 128,-1,15
 600 308 600 308 658.5 366.5 c 128,-1,8
 717 425 717 425 800 425 c 128,-1,9
300 325 m 128,-1,17
 259 325 259 325 229.5 295.5 c 128,-1,18
 200 266 200 266 200 225 c 128,-1,19
 200 184 200 184 229.5 154.5 c 128,-1,20
 259 125 259 125 300 125 c 128,-1,21
 341 125 341 125 370.5 154.5 c 128,-1,22
 400 184 400 184 400 225 c 128,-1,23
 400 266 400 266 370.5 295.5 c 128,-1,16
 341 325 341 325 300 325 c 128,-1,17
300 425 m 128,-1,25
 383 425 383 425 441.5 366.5 c 128,-1,26
 500 308 500 308 500 225 c 128,-1,27
 500 142 500 142 441.5 83.5 c 128,-1,28
 383 25 383 25 300 25 c 128,-1,29
 217 25 217 25 158.5 83.5 c 128,-1,30
 100 142 100 142 100 225 c 128,-1,31
 100 308 100 308 158.5 366.5 c 128,-1,24
 217 425 217 425 300 425 c 128,-1,25
550 775 m 128,-1,33
 509 775 509 775 479.5 745.5 c 128,-1,34
 450 716 450 716 450 675 c 128,-1,35
 450 634 450 634 479.5 604.5 c 128,-1,36
 509 575 509 575 550 575 c 128,-1,37
 591 575 591 575 620.5 604.5 c 128,-1,38
 650 634 650 634 650 675 c 128,-1,39
 650 716 650 716 620.5 745.5 c 128,-1,32
 591 775 591 775 550 775 c 128,-1,33
550 875 m 128,-1,41
 633 875 633 875 691.5 816.5 c 128,-1,42
 750 758 750 758 750 675 c 128,-1,43
 750 592 750 592 691.5 533.5 c 128,-1,44
 633 475 633 475 550 475 c 128,-1,45
 467 475 467 475 408.5 533.5 c 128,-1,46
 350 592 350 592 350 675 c 128,-1,47
 350 758 350 758 408.5 816.5 c 128,-1,40
 467 875 467 875 550 875 c 128,-1,41
EndSplineSet
MultipleSubs2: "cartouched sitelen" kulupu.t cartouche.body
Ligature2: "sitelen+-space" k u l u p u space
Ligature2: "sitelen" k u l u p u
EndChar

StartChar: kute.t
Encoding: 108 989472 52
Width: 1100
GlyphClass: 1
Flags: MW
LayerCount: 2
Fore
SplineSet
581 653 m 1,0,1
 600 616 600 616 600 575 c 0,2,3
 600 503 600 503 548.5 451.5 c 128,-1,4
 497 400 497 400 425 400 c 1,5,6
 425 400 425 400 425 500 c 1,7,8
 456 500 456 500 478 522 c 128,-1,9
 500 544 500 544 500 568.5 c 128,-1,10
 500 593 500 593 492 608 c 1,11,-1
 581 653 l 1,0,1
230 772 m 1,12,13
 334.533333333 900 334.533333333 900 507.5 900 c 0,14,15
 595 900 595 900 675.5 853 c 128,-1,16
 756 806 756 806 803 725.5 c 128,-1,17
 850 645 850 645 850 550 c 0,18,19
 850 424 850 424 770 328 c 2,20,-1
 500 0 l 1,21,-1
 423 63 l 1,22,23
 423 66.3164556962 423 66.3164556962 693 391 c 4,24,25
 750 460 750 460 750 556.5 c 128,-1,26
 750 653 750 653 676.5 726.5 c 128,-1,27
 603 800 603 800 500 800 c 0,28,29
 443 800 443 800 392.5 775.5 c 128,-1,30
 342 751 342 751 307 709 c 1,31,-1
 230 772 l 1,12,13
EndSplineSet
MultipleSubs2: "cartouched sitelen" kute.t cartouche.body
Ligature2: "sitelen+-space" k u t e space
Ligature2: "sitelen" k u t e
EndChar

StartChar: la.t
Encoding: 109 989473 53
Width: 1100
GlyphClass: 1
Flags: MW
LayerCount: 2
Fore
SplineSet
450 900 m 1,0,1
 586 843 586 843 668 720.5 c 128,-1,2
 750 598 750 598 750 450 c 128,-1,3
 750 302 750 302 668 179.5 c 128,-1,4
 586 57 586 57 450 0 c 1,5,-1
 412 92 l 1,6,7
 520 137 520 137 585 235 c 128,-1,8
 650 333 650 333 650 450 c 128,-1,9
 650 567 650 567 585 665 c 128,-1,10
 520 763 520 763 412 808 c 1,11,-1
 450 900 l 1,0,1
EndSplineSet
MultipleSubs2: "cartouched sitelen" la.t cartouche.body
Ligature2: "sitelen+-space" l a space
Ligature2: "sitelen" l a
EndChar

StartChar: lape.t
Encoding: 110 989474 54
Width: 1100
GlyphClass: 1
Flags: MW
LayerCount: 2
Fore
SplineSet
800 550 m 128,-1,1
 759 550 759 550 729.5 520.5 c 128,-1,2
 700 491 700 491 700 450 c 128,-1,3
 700 409 700 409 729.5 379.5 c 128,-1,4
 759 350 759 350 800 350 c 128,-1,5
 841 350 841 350 870.5 379.5 c 128,-1,6
 900 409 900 409 900 450 c 128,-1,7
 900 491 900 491 870.5 520.5 c 128,-1,0
 841 550 841 550 800 550 c 128,-1,1
800 650 m 0,8,9
 883 650 883 650 941.5 591.5 c 128,-1,10
 1000 533 1000 533 1000 450 c 128,-1,11
 1000 367 1000 367 941.5 308.5 c 128,-1,12
 883 250 883 250 800 250 c 0,13,14
 731 250 731 250 677.5 292.5 c 128,-1,15
 624 335 624 335 607 400 c 1,16,-1
 100 400 l 1,17,-1
 100 500 l 1,18,-1
 607 500 l 1,19,20
 624 565 624 565 677.5 607.5 c 128,-1,21
 731 650 731 650 800 650 c 0,8,9
EndSplineSet
MultipleSubs2: "cartouched sitelen" lape.t cartouche.body
Ligature2: "sitelen+-space" l a p e space
Ligature2: "sitelen" l a p e
EndChar

StartChar: laso.t
Encoding: 111 989475 55
Width: 1100
GlyphClass: 1
Flags: MW
LayerCount: 2
Fore
SplineSet
750 800 m 1,0,1
 688 800 688 800 644 756 c 128,-1,2
 600 712 600 712 600 650 c 1,3,4
 662 650 662 650 706 694 c 128,-1,5
 750 738 750 738 750 800 c 1,0,1
350 800 m 1,6,7
 350 738 350 738 394 694 c 128,-1,8
 438 650 438 650 500 650 c 1,9,10
 500 712 500 712 456 756 c 128,-1,11
 412 800 412 800 350 800 c 1,6,7
250 900 m 1,12,-1
 350 900 l 2,13,14
 410 900 410 900 462.5 873 c 128,-1,15
 515 846 515 846 550 800 c 1,16,17
 585 846 585 846 637.5 873 c 128,-1,18
 690 900 690 900 750 900 c 2,19,-1
 850 900 l 1,20,-1
 850 800 l 2,21,22
 850 697 850 697 776.5 623.5 c 128,-1,23
 703 550 703 550 600 550 c 1,24,-1
 600 471.428571429 l 1,25,-1
 900 0 l 1,26,27
 900 0 900 0 200 0 c 1,28,-1
 500 471.428571429 l 1,29,-1
 500 550 l 1,30,31
 397 550 397 550 323.5 623.5 c 128,-1,32
 250 697 250 697 250 800 c 2,33,-1
 250 900 l 1,12,-1
550 364 m 1,34,-1
 382 100 l 1,35,-1
 718 100 l 1,36,-1
 550 364 l 1,34,-1
EndSplineSet
MultipleSubs2: "cartouched sitelen" laso.t cartouche.body
Ligature2: "sitelen+-space" l a s o space
Ligature2: "sitelen" l a s o
EndChar

StartChar: lawa.t
Encoding: 112 989476 56
Width: 1100
GlyphClass: 1
Flags: MW
LayerCount: 2
Fore
SplineSet
475 725 m 128,-1,1
 361 725 361 725 280.5 644.5 c 0,2,3
 248.411475886 612.411475886 248.411475886 612.411475886 229.113925435 575 c 1,4,-1
 720.886074565 575 l 1,5,6
 701.588524114 612.411475886 701.588524114 612.411475886 669.5 644.5 c 0,7,0
 589 725 589 725 475 725 c 128,-1,1
475 825 m 0,8,9
 577 825 577 825 663.5 775 c 0,10,11
 783.511093384 705.629425789 783.511093384 705.629425789 829.244856293 575 c 1,12,-1
 1000 575 l 1,13,-1
 1000 475 l 1,14,-1
 849.234768647 475 l 1,15,16
 850 462.61861086 850 462.61861086 850 450 c 0,17,18
 850 348 850 348 800 261.5 c 128,-1,19
 750 175 750 175 663.5 125 c 128,-1,20
 577 75 577 75 475 75 c 0,21,22
 320 75 320 75 210 185 c 128,-1,23
 100 295 100 295 100 450 c 128,-1,24
 100 605 100 605 210 715 c 128,-1,25
 320 825 320 825 475 825 c 0,8,9
201.00034687 475 m 1,26,27
 200 462.708146709 200 462.708146709 200 450 c 0,28,29
 200 336 200 336 280.5 255.5 c 128,-1,30
 361 175 361 175 475 175 c 128,-1,31
 589 175 589 175 669.5 255.5 c 128,-1,32
 750 336 750 336 750 450 c 0,33,34
 750 462.708146709 750 462.708146709 748.99965313 475 c 1,35,-1
 201.00034687 475 l 1,26,27
EndSplineSet
MultipleSubs2: "cartouched sitelen" lawa.t cartouche.body
Ligature2: "sitelen+-space" l a w a space
Ligature2: "sitelen" l a w a
EndChar

StartChar: len.t
Encoding: 113 989477 57
Width: 1100
GlyphClass: 1
Flags: MW
LayerCount: 2
Fore
SplineSet
300 800 m 1,0,-1
 300 400 l 1,1,-1
 800 400 l 1,2,-1
 800 800 l 1,3,-1
 300 800 l 1,0,-1
200 900 m 5,4,5
 200 900 200 900 900 900 c 5,6,-1
 900 0 l 1,7,-1
 800 0 l 1,8,-1
 800 300 l 1,9,-1
 600 300 l 1,10,-1
 600 0 l 1,11,-1
 500 0 l 1,12,-1
 500 300 l 1,13,-1
 300 300 l 1,14,-1
 300 0 l 1,15,-1
 200 0 l 1,16,-1
 200 900 l 5,4,5
EndSplineSet
MultipleSubs2: "cartouched sitelen" len.t cartouche.body
Ligature2: "sitelen+-space" l e n space
Ligature2: "sitelen" l e n
EndChar

StartChar: lete.t
Encoding: 114 989478 58
Width: 1100
GlyphClass: 1
Flags: MW
LayerCount: 2
Fore
SplineSet
368 865 m 1,0,-1
 550 550 l 1,1,-1
 732 865 l 1,2,-1
 818 815 l 1,3,-1
 637 500 l 1,4,-1
 1000 500 l 1,5,-1
 1000 400 l 1,6,-1
 637 400 l 1,7,-1
 818 85 l 1,8,-1
 732 35 l 1,9,-1
 550 350 l 1,10,-1
 368 35 l 1,11,-1
 282 85 l 1,12,-1
 463 400 l 1,13,-1
 100 400 l 1,14,-1
 100 500 l 1,15,-1
 463 500 l 1,16,-1
 282 815 l 1,17,-1
 368 865 l 1,0,-1
EndSplineSet
MultipleSubs2: "cartouched sitelen" lete.t cartouche.body
Ligature2: "sitelen+-space" l e t e space
Ligature2: "sitelen" l e t e
EndChar

StartChar: li.t
Encoding: 115 989479 59
Width: 1100
GlyphClass: 1
Flags: MW
LayerCount: 2
Fore
SplineSet
395 871 m 1,0,-1
 825 450 l 1,1,-1
 395 29 l 1,2,-1
 325 100 l 1,3,-1
 682 450 l 1,4,-1
 325 800 l 1,5,-1
 395 871 l 1,0,-1
EndSplineSet
MultipleSubs2: "cartouched sitelen" li.t cartouche.body
Ligature2: "sitelen+-space" l i space
Ligature2: "sitelen" l i
EndChar

StartChar: lili.t
Encoding: 116 989480 60
Width: 1100
GlyphClass: 1
Flags: MW
LayerCount: 2
Fore
SplineSet
475 600 m 1,0,-1
 550 484 l 1,1,-1
 625 600 l 1,2,-1
 709 546 l 1,3,-1
 550 300 l 1,4,-1
 391 546 l 1,5,-1
 475 600 l 1,0,-1
EndSplineSet
MultipleSubs2: "cartouched sitelen" lili.t cartouche.body
Ligature2: "sitelen+-space" l i l i space
Ligature2: "sitelen" l i l i
EndChar

StartChar: linja.t
Encoding: 117 989481 61
Width: 1100
GlyphClass: 1
Flags: MW
LayerCount: 2
Fore
SplineSet
440 430 m 2,0,-1
 600 550 l 2,1,2
 667 600 667 600 750 600 c 0,3,4
 854 600 854 600 927 527 c 128,-1,5
 1000 454 1000 454 1000 350 c 1,6,-1
 900 350 l 1,7,8
 900 412 900 412 856 456 c 128,-1,9
 812 500 812 500 750 500 c 0,10,11
 700 500 700 500 660 470 c 2,12,-1
 500 350 l 2,13,14
 433 300 433 300 350 300 c 0,15,16
 246 300 246 300 173 373 c 128,-1,17
 100 446 100 446 100 550 c 1,18,-1
 200 550 l 1,19,20
 200 488 200 488 244 444 c 128,-1,21
 288 400 288 400 350 400 c 0,22,23
 400 400 400 400 440 430 c 2,0,-1
EndSplineSet
MultipleSubs2: "cartouched sitelen" linja.t cartouche.body
LCarets2: 5 0 0 0 0 0
Ligature2: "sitelen+-space" l i n j a space
Ligature2: "sitelen" l i n j a
EndChar

StartChar: lipu.t
Encoding: 118 989482 62
Width: 1100
GlyphClass: 1
Flags: MW
LayerCount: 2
Fore
SplineSet
300 800 m 1,0,-1
 300 100 l 1,1,-1
 800 100 l 1,2,-1
 800 800 l 1,3,-1
 300 800 l 1,0,-1
200 900 m 5,4,5
 200 900 200 900 900 900 c 1,6,-1
 900 0 l 1,7,8
 900 0 900 0 200 0 c 5,9,10
 200 0 200 0 200 900 c 5,4,5
EndSplineSet
MultipleSubs2: "cartouched sitelen" lipu.t cartouche.body
Ligature2: "sitelen+-space" l i p u space
Ligature2: "sitelen" l i p u
EndChar

StartChar: loje.t
Encoding: 119 989483 63
Width: 1100
GlyphClass: 1
Flags: MW
LayerCount: 2
Fore
SplineSet
550 364 m 1,0,-1
 382 100 l 1,1,-1
 718 100 l 1,2,-1
 550 364 l 1,0,-1
550 550 m 128,-1,4
 426 550 426 550 338 638 c 128,-1,5
 250 726 250 726 250 850 c 6,6,-1
 250 900 l 1,7,8
 250 900 250 900 850 900 c 1,9,-1
 850 850 l 2,10,11
 850 726 850 726 762 638 c 128,-1,3
 674 550 674 550 550 550 c 128,-1,4
550 550 m 1,12,-1
 900 0 l 1,13,14
 900 0 900 0 200 0 c 1,15,-1
 550 550 l 1,12,-1
355.839235848 800 m 1,16,17
 368.482296857 748.517703143 368.482296857 748.517703143 408.5 708.5 c 0,18,19
 467 650 467 650 550 650 c 128,-1,20
 633 650 633 650 691.5 708.5 c 0,21,22
 731.517703143 748.517703143 731.517703143 748.517703143 744.160764152 800 c 1,23,-1
 355.839235848 800 l 1,16,17
EndSplineSet
MultipleSubs2: "cartouched sitelen" loje.t cartouche.body
Ligature2: "sitelen+-space" l o j e space
Ligature2: "sitelen" l o j e
EndChar

StartChar: lon.t
Encoding: 120 989484 64
Width: 1100
GlyphClass: 1
Flags: MW
LayerCount: 2
Fore
SplineSet
475 575 m 128,-1,1
 475 606 475 606 497 628 c 128,-1,2
 519 650 519 650 550 650 c 128,-1,3
 581 650 581 650 603 628 c 128,-1,4
 625 606 625 606 625 575 c 128,-1,5
 625 544 625 544 603 522 c 128,-1,6
 581 500 581 500 550 500 c 128,-1,7
 519 500 519 500 497 522 c 128,-1,0
 475 544 475 544 475 575 c 128,-1,1
100 325 m 1,8,-1
 100 425 l 1,9,-1
 1000 425 l 1,10,-1
 1000 325 l 1,11,-1
 100 325 l 1,8,-1
EndSplineSet
MultipleSubs2: "cartouched sitelen" lon.t cartouche.body
Ligature2: "sitelen+-space" l o n space
Ligature2: "sitelen" l o n
EndChar

StartChar: luka.t
Encoding: 121 989485 65
Width: 1100
GlyphClass: 1
Flags: MW
LayerCount: 2
Fore
SplineSet
650 900 m 128,-1,1
 774 900 774 900 862 812 c 128,-1,2
 950 724 950 724 950 600 c 2,3,-1
 950 0 l 1,4,-1
 850 0 l 1,5,-1
 850 600 l 2,6,7
 850 683 850 683 791.5 741.5 c 128,-1,8
 733 800 733 800 650 800 c 128,-1,9
 567 800 567 800 508.5 741.5 c 128,-1,10
 450 683 450 683 450 600 c 2,11,-1
 450 0 l 1,12,-1
 350 0 l 1,13,-1
 100 300 l 1,14,-1
 177 364 l 1,15,-1
 350 156.4 l 1,16,-1
 350 600 l 2,17,18
 350 724 350 724 438 812 c 128,-1,0
 526 900 526 900 650 900 c 128,-1,1
EndSplineSet
MultipleSubs2: "cartouched sitelen" luka.t cartouche.body
Ligature2: "sitelen+-space" l u k a space
Ligature2: "sitelen" l u k a
EndChar

StartChar: lukin.t
Encoding: 122 989486 66
Width: 1100
GlyphClass: 1
Flags: MW
LayerCount: 2
Fore
SplineSet
549.997070312 699.999023438 m 128,-1,1
 709.762469524 699.999023438 709.762469524 699.999023438 841.684695063 612.416371876 c 0,2,3
 939.173683827 547.623688234 939.173683827 547.623688234 999.8515625 450.220703125 c 1,4,5
 943.616563873 359.971017754 943.616563873 359.971017754 856.056640625 297.645507812 c 0,6,7
 855.139366543 296.993979803 855.139366543 296.993979803 852.363289483 294.96062064 c 0,8,9
 783.246625775 244.335584539 783.246625775 244.335584539 701.860994427 222.169257113 c 128,-1,10
 620.475363079 200.002929688 620.475363079 200.002929688 549.997070312 200.002929688 c 0,11,12
 377.367728029 200.002929688 377.367728029 200.002929688 247.727292312 294.895528752 c 0,13,14
 245.045211351 296.858725125 245.045211351 296.858725125 238.546885815 301.478005328 c 0,15,16
 156.480998409 359.813853061 156.480998409 359.813853061 100.149414062 450.220703125 c 1,17,18
 160.820035325 547.615135002 160.820035325 547.615135002 257.709960938 612.014648438 c 0,19,0
 390.265864818 699.999023438 390.265864818 699.999023438 549.997070312 699.999023438 c 128,-1,1
549.997070312 599.999023438 m 128,-1,21
 438.57028678 599.999023438 438.57028678 599.999023438 341.172851562 545.888671875 c 0,22,23
 274.698271715 508.958999533 274.698271715 508.958999533 223.909179688 449.89453125 c 1,24,25
 270.822013648 395.357673211 270.822013648 395.357673211 331.93359375 359.399414062 c 0,26,27
 432.879418818 300.001953125 432.879418818 300.001953125 549.997070312 300.001953125 c 128,-1,28
 667.120581182 300.001953125 667.120581182 300.001953125 768.06640625 359.399414062 c 0,29,30
 829.177355863 395.3566983 829.177355863 395.3566983 876.090820312 449.89453125 c 1,31,32
 825.301728285 508.958999533 825.301728285 508.958999533 758.827148438 545.888671875 c 0,33,20
 661.42971322 599.999023438 661.42971322 599.999023438 549.997070312 599.999023438 c 128,-1,21
475 450 m 128,-1,35
 475 481 475 481 497 503 c 128,-1,36
 519 525 519 525 550 525 c 128,-1,37
 581 525 581 525 603 503 c 128,-1,38
 625 481 625 481 625 450 c 128,-1,39
 625 419 625 419 603 397 c 128,-1,40
 581 375 581 375 550 375 c 128,-1,41
 519 375 519 375 497 397 c 128,-1,34
 475 419 475 419 475 450 c 128,-1,35
EndSplineSet
MultipleSubs2: "cartouched sitelen" lukin.t cartouche.body
LCarets2: 5 0 0 0 0 0
Ligature2: "sitelen+-space" l u k i n space
Ligature2: "sitelen" l u k i n
EndChar

StartChar: lupa.t
Encoding: 123 989487 67
Width: 1100
GlyphClass: 1
Flags: MW
LayerCount: 2
Fore
SplineSet
550 0 m 128,-1,1
 426 0 426 0 338 88 c 128,-1,2
 250 176 250 176 250 300 c 2,3,-1
 250 900 l 1,4,-1
 350 900 l 1,5,-1
 350 300 l 2,6,7
 350 217 350 217 408.5 158.5 c 128,-1,8
 467 100 467 100 550 100 c 128,-1,9
 633 100 633 100 691.5 158.5 c 128,-1,10
 750 217 750 217 750 300 c 2,11,-1
 750 900 l 1,12,-1
 850 900 l 1,13,-1
 850 300 l 2,14,15
 850 176 850 176 762 88 c 128,-1,0
 674 0 674 0 550 0 c 128,-1,1
EndSplineSet
LCarets2: 4 0 0 0 0
MultipleSubs2: "cartouched sitelen" lupa.t cartouche.body
Ligature2: "sitelen+-space" l u p a space
Ligature2: "sitelen" l u p a
EndChar

StartChar: ma.t
Encoding: 124 989488 68
Width: 1100
GlyphClass: 1
Flags: MW
LayerCount: 2
Fore
SplineSet
600 400 m 1,0,-1
 600 104 l 1,1,2
 715 120 715 120 797.5 202.5 c 128,-1,3
 880 285 880 285 896 400 c 1,4,-1
 600 400 l 1,0,-1
204 400 m 1,5,6
 221 286 221 286 303.5 203.5 c 128,-1,7
 386 121 386 121 500 104 c 1,8,-1
 500 400 l 1,9,-1
 204 400 l 1,5,6
600 796 m 1,10,-1
 600 500 l 1,11,-1
 896 500 l 1,12,13
 879 614 879 614 796.5 696.5 c 128,-1,14
 714 779 714 779 600 796 c 1,10,-1
500 796 m 1,15,16
 386 779 386 779 303.5 696.5 c 128,-1,17
 221 614 221 614 204 500 c 1,18,-1
 500 500 l 1,19,-1
 500 796 l 1,15,16
550 900 m 132,-1,21
 641 900 641 900 724.5 864.5 c 128,-1,22
 808 829 808 829 868.5 768.5 c 128,-1,23
 929 708 929 708 964.5 624.5 c 128,-1,24
 1000 541 1000 541 1000 450 c 128,-1,25
 1000 359 1000 359 964.5 275.5 c 128,-1,26
 929 192 929 192 868.5 131.5 c 128,-1,27
 808 71 808 71 724.5 35.5 c 128,-1,28
 641 0 641 0 550 0 c 128,-1,29
 459 0 459 0 375.5 35.5 c 128,-1,30
 292 71 292 71 231.5 131.5 c 128,-1,31
 171 192 171 192 135.5 275.5 c 128,-1,32
 100 359 100 359 100 450 c 128,-1,33
 100 541 100 541 135.5 624.5 c 128,-1,34
 171 708 171 708 231.5 768.5 c 128,-1,35
 292 829 292 829 375.5 864.5 c 128,-1,20
 459 900 459 900 550 900 c 132,-1,21
EndSplineSet
LCarets2: 2 0 0
MultipleSubs2: "cartouched sitelen" ma.t cartouche.body
Ligature2: "sitelen+-space" m a space
Ligature2: "sitelen" m a
EndChar

StartChar: mama.t
Encoding: 125 989489 69
Width: 1100
GlyphClass: 1
Flags: MW
LayerCount: 2
Fore
SplineSet
550 800 m 128,-1,1
 457 800 457 800 391 734 c 128,-1,2
 325 668 325 668 325 575 c 128,-1,3
 325 482 325 482 391 416 c 128,-1,4
 457 350 457 350 550 350 c 128,-1,5
 643 350 643 350 709 416 c 128,-1,6
 775 482 775 482 775 575 c 128,-1,7
 775 668 775 668 709 734 c 128,-1,0
 643 800 643 800 550 800 c 128,-1,1
550 900 m 128,-1,9
 638 900 638 900 713 856.5 c 128,-1,10
 788 813 788 813 831.5 738 c 128,-1,11
 875 663 875 663 875 575 c 128,-1,12
 875 487 875 487 831.5 412 c 128,-1,13
 788 337 788 337 713 293.5 c 0,14,15
 701.22135274 286.668384589 701.22135274 286.668384589 689.122069942 280.909665021 c 1,16,17
 725 235.09558558 725 235.09558558 725 175 c 0,18,19
 725 103 725 103 673.5 51.5 c 128,-1,20
 622 0 622 0 550 0 c 128,-1,21
 478 0 478 0 426.5 51.5 c 128,-1,22
 375 103 375 103 375 175 c 0,23,24
 375 235.09558558 375 235.09558558 410.877930058 280.909665021 c 1,25,26
 398.77864726 286.668384589 398.77864726 286.668384589 387 293.5 c 0,27,28
 312 337 312 337 268.5 412 c 128,-1,29
 225 487 225 487 225 575 c 128,-1,30
 225 663 225 663 268.5 738 c 128,-1,31
 312 813 312 813 387 856.5 c 128,-1,8
 462 900 462 900 550 900 c 128,-1,9
550 250 m 128,-1,33
 519 250 519 250 497 228 c 128,-1,34
 475 206 475 206 475 175 c 128,-1,35
 475 144 475 144 497 122 c 128,-1,36
 519 100 519 100 550 100 c 128,-1,37
 581 100 581 100 603 122 c 128,-1,38
 625 144 625 144 625 175 c 128,-1,39
 625 206 625 206 603 228 c 128,-1,32
 581 250 581 250 550 250 c 128,-1,33
EndSplineSet
MultipleSubs2: "cartouched sitelen" mama.t cartouche.body
Ligature2: "sitelen+-space" m a m a space
Ligature2: "sitelen" m a m a
EndChar

StartChar: mani.t
Encoding: 126 989490 70
Width: 1100
GlyphClass: 1
Flags: MW
LayerCount: 2
Fore
SplineSet
550 700 m 128,-1,1
 447 700 447 700 373.5 626.5 c 128,-1,2
 300 553 300 553 300 450 c 128,-1,3
 300 347 300 347 373.5 273.5 c 128,-1,4
 447 200 447 200 550 200 c 128,-1,5
 653 200 653 200 726.5 273.5 c 128,-1,6
 800 347 800 347 800 450 c 128,-1,7
 800 553 800 553 726.5 626.5 c 128,-1,0
 653 700 653 700 550 700 c 128,-1,1
550 800 m 128,-1,9
 645 800 645 800 713.988211314 759.72116855 c 128,-1,10
 782.976422628 719.442337099 782.976422628 719.442337099 823.375022364 668.806851307 c 1,11,12
 840.766325061 678.766325061 840.766325061 678.766325061 856 694 c 0,13,14
 900 738 900 738 900 800 c 1,15,-1
 1000 800 l 1,16,17
 1000 724 1000 724 962.498828923 667.974154053 c 128,-1,18
 924.997657845 611.948308105 924.997657845 611.948308105 874.225010192 582.751324735 c 1,19,20
 900 520.351591646 900 520.351591646 900 437.675795823 c 128,-1,21
 900 355 900 355 853 274.5 c 128,-1,22
 806 194 806 194 725.5 147 c 128,-1,23
 645 100 645 100 550 100 c 128,-1,24
 455 100 455 100 374.5 147 c 128,-1,25
 294 194 294 194 247 274.5 c 128,-1,26
 200 355 200 355 200 437.675795823 c 128,-1,27
 200 520.351591646 200 520.351591646 225.774989808 582.751324735 c 1,28,29
 175.002342155 611.948308105 175.002342155 611.948308105 137.501171078 667.974154053 c 128,-1,30
 100 724 100 724 100 800 c 1,31,-1
 200 800 l 1,32,33
 200 738 200 738 244 694 c 0,34,35
 259.233674939 678.766325061 259.233674939 678.766325061 276.624977636 668.806851307 c 1,36,37
 317.023577372 719.442337099 317.023577372 719.442337099 386.011788686 759.72116855 c 128,-1,8
 455 800 455 800 550 800 c 128,-1,9
EndSplineSet
MultipleSubs2: "cartouched sitelen" mani.t cartouche.body
Ligature2: "sitelen+-space" m a n i space
Ligature2: "sitelen" m a n i
EndChar

StartChar: meli.t
Encoding: 127 989491 71
Width: 1100
GlyphClass: 1
Flags: MW
LayerCount: 2
Fore
SplineSet
550 625 m 128,-1,1
 478 625 478 625 426.5 573.5 c 128,-1,2
 375 522 375 522 375 450 c 128,-1,3
 375 378 375 378 426.5 326.5 c 128,-1,4
 478 275 478 275 550 275 c 128,-1,5
 622 275 622 275 673.5 326.5 c 128,-1,6
 725 378 725 378 725 450 c 128,-1,7
 725 522 725 522 673.5 573.5 c 128,-1,0
 622 625 622 625 550 625 c 128,-1,1
550 725 m 128,-1,9
 664 725 664 725 744.5 644.5 c 128,-1,10
 825 564 825 564 825 450 c 128,-1,11
 825 336 825 336 744.5 255.5 c 128,-1,12
 664 175 664 175 550 175 c 128,-1,13
 436 175 436 175 355.5 255.5 c 128,-1,14
 275 336 275 336 275 450 c 128,-1,15
 275 564 275 564 355.5 644.5 c 128,-1,8
 436 725 436 725 550 725 c 128,-1,9
550 900 m 128,-1,17
 641 900 641 900 724.5 864.5 c 128,-1,18
 808 829 808 829 868.5 768.5 c 128,-1,19
 929 708 929 708 964.5 624.5 c 128,-1,20
 1000 541 1000 541 1000 450 c 2,21,-1
 1000 0 l 1,22,-1
 900 0 l 1,23,-1
 900 450 l 2,24,25
 900 545 900 545 853 625.5 c 128,-1,26
 806 706 806 706 725.5 753 c 128,-1,27
 645 800 645 800 550 800 c 128,-1,28
 455 800 455 800 374.5 753 c 128,-1,29
 294 706 294 706 247 625.5 c 128,-1,30
 200 545 200 545 200 450 c 2,31,-1
 200 0 l 1,32,-1
 100 0 l 1,33,-1
 100 450 l 2,34,35
 100 541 100 541 135.5 624.5 c 128,-1,36
 171 708 171 708 231.5 768.5 c 128,-1,37
 292 829 292 829 375.5 864.5 c 128,-1,16
 459 900 459 900 550 900 c 128,-1,17
EndSplineSet
MultipleSubs2: "cartouched sitelen" meli.t cartouche.body
Ligature2: "sitelen+-space" m e l i space
Ligature2: "sitelen" m e l i
EndChar

StartChar: mi.t
Encoding: 128 989492 72
Width: 1100
GlyphClass: 1
Flags: MW
LayerCount: 2
Fore
SplineSet
550 800 m 128,-1,1
 509 800 509 800 479.5 770.5 c 128,-1,2
 450 741 450 741 450 700 c 128,-1,3
 450 659 450 659 479.5 629.5 c 128,-1,4
 509 600 509 600 550 600 c 128,-1,5
 591 600 591 600 620.5 629.5 c 128,-1,6
 650 659 650 659 650 700 c 128,-1,7
 650 741 650 741 620.5 770.5 c 128,-1,0
 591 800 591 800 550 800 c 128,-1,1
406 0 m 1,8,9
 318 217.066666667 318 217.066666667 318 450 c 0,10,11
 318 602 318 602 356 750 c 0,12,13
 373 816 373 816 427.5 858 c 128,-1,14
 482 900 482 900 557.5 900 c 128,-1,15
 633 900 633 900 691.5 841.5 c 128,-1,16
 750 783 750 783 750 700 c 128,-1,17
 750 617 750 617 691.5 558.5 c 128,-1,18
 633 500 633 500 555.5 500 c 128,-1,19
 478 500 478 500 423 546 c 1,20,21
 418 497 418 497 418 450 c 0,22,23
 418 234.714285714 418 234.714285714 499 38 c 1,24,-1
 406 0 l 1,8,9
EndSplineSet
MultipleSubs2: "cartouched sitelen" mi.t cartouche.body
Ligature2: "sitelen" m i
EndChar

StartChar: mije.t
Encoding: 129 989493 73
Width: 1100
GlyphClass: 1
Flags: MW
LayerCount: 2
Fore
SplineSet
708.881719206 300 m 1,0,1
 825 384.098423502 825 384.098423502 825 525 c 0,2,3
 825 639 825 639 744.5 719.5 c 128,-1,4
 664 800 664 800 550 800 c 128,-1,5
 436 800 436 800 355.5 719.5 c 128,-1,6
 275 639 275 639 275 525 c 0,7,8
 275 384.098423502 275 384.098423502 391.118280794 300 c 1,9,-1
 393 300 l 1,10,11
 464 250 464 250 550 250 c 128,-1,12
 636 250 636 250 707 300 c 1,13,-1
 708.881719206 300 l 1,0,1
248.919494577 300 m 1,14,15
 175 399.812380486 175 399.812380486 175 513.406190243 c 128,-1,16
 175 627 175 627 225 713.5 c 128,-1,17
 275 800 275 800 361.5 850 c 128,-1,18
 448 900 448 900 550 900 c 128,-1,19
 652 900 652 900 738.5 850 c 128,-1,20
 825 800 825 800 875 713.5 c 128,-1,21
 925 627 925 627 925 513.406190243 c 128,-1,22
 925 399.812380486 925 399.812380486 851.080505423 300 c 1,23,-1
 1000 300 l 1,24,-1
 1000 0 l 1,25,-1
 900 0 l 1,26,-1
 900 200 l 1,27,-1
 738.5 200 l 1,28,29
 652 150 652 150 550 150 c 128,-1,30
 448 150 448 150 361.5 200 c 1,31,-1
 200 200 l 1,32,-1
 200 0 l 1,33,-1
 100 0 l 1,34,-1
 100 200 l 1,35,-1
 100 300 l 1,36,-1
 232 300 l 5,37,-1
 248.919494577 300 l 1,14,15
EndSplineSet
MultipleSubs2: "cartouched sitelen" mije.t cartouche.body
Ligature2: "sitelen+-space" m i j e space
Ligature2: "sitelen" m i j e
EndChar

StartChar: moku.t
Encoding: 130 989494 74
Width: 1100
GlyphClass: 1
Flags: MW
LayerCount: 2
Fore
SplineSet
150 260 m 1,0,-1
 237 310 l 1,1,-1
 300 200.8 l 1,2,-1
 300 300 l 2,3,4
 300 403 300 403 373.5 476.5 c 128,-1,5
 447 550 447 550 550 550 c 128,-1,6
 653 550 653 550 726.5 476.5 c 128,-1,7
 800 403 800 403 800 300 c 2,8,-1
 800 0 l 1,9,-1
 700 0 l 1,10,-1
 700 300 l 2,11,12
 700 362 700 362 656 406 c 128,-1,13
 612 450 612 450 550 450 c 128,-1,14
 488 450 488 450 444 406 c 128,-1,15
 400 362 400 362 400 300 c 2,16,-1
 400 0 l 1,17,-1
 300 0 l 1,18,-1
 150 260 l 1,0,-1
550 600 m 128,-1,20
 447 600 447 600 373.5 673.5 c 128,-1,21
 300 747 300 747 300 850 c 2,22,-1
 300 900 l 1,23,-1
 800 900 l 1,24,-1
 800 850 l 2,25,26
 800 747 800 747 726.5 673.5 c 128,-1,19
 653 600 653 600 550 600 c 128,-1,20
691.861540443 800 m 1,27,-1
 408.138459557 800 l 1,28,29
 418.923324774 769.076675226 418.923324774 769.076675226 444 744 c 0,30,31
 488 700 488 700 550 700 c 128,-1,32
 612 700 612 700 656 744 c 0,33,34
 681.076675226 769.076675226 681.076675226 769.076675226 691.861540443 800 c 1,27,-1
EndSplineSet
MultipleSubs2: "cartouched sitelen" moku.t cartouche.body
LCarets2: 4 0 0 0 0
Ligature2: "sitelen+-space" m o k u space
Ligature2: "sitelen" m o k u
EndChar

StartChar: moli.t
Encoding: 131 989495 75
Width: 1100
GlyphClass: 1
Flags: MW
LayerCount: 2
Fore
SplineSet
634 616 m 1,0,-1
 704 546 l 1,1,-1
 775 616 l 1,2,-1
 846 546 l 1,3,-1
 775 475 l 1,4,-1
 846 404 l 1,5,-1
 775 334 l 1,6,-1
 704 404 l 1,7,-1
 634 334 l 1,8,-1
 563 404 l 1,9,-1
 634 475 l 1,10,-1
 563 546 l 1,11,-1
 634 616 l 1,0,-1
325 616 m 1,12,-1
 396 546 l 1,13,-1
 466 616 l 1,14,-1
 537 546 l 1,15,-1
 466 475 l 1,16,-1
 537 404 l 1,17,-1
 466 334 l 1,18,-1
 396 404 l 1,19,-1
 325 334 l 1,20,-1
 254 404 l 1,21,-1
 325 475 l 1,22,-1
 254 546 l 1,23,-1
 325 616 l 1,12,-1
550 800 m 128,-1,25
 455 800 455 800 374.5 753 c 128,-1,26
 294 706 294 706 247 625.5 c 128,-1,27
 200 545 200 545 200 450 c 128,-1,28
 200 355 200 355 247 274.5 c 128,-1,29
 294 194 294 194 374.5 147 c 128,-1,30
 455 100 455 100 550 100 c 128,-1,31
 645 100 645 100 725.5 147 c 128,-1,32
 806 194 806 194 853 274.5 c 128,-1,33
 900 355 900 355 900 450 c 128,-1,34
 900 545 900 545 853 625.5 c 128,-1,35
 806 706 806 706 725.5 753 c 128,-1,24
 645 800 645 800 550 800 c 128,-1,25
550 900 m 128,-1,37
 641 900 641 900 724.5 864.5 c 128,-1,38
 808 829 808 829 868.5 768.5 c 128,-1,39
 929 708 929 708 964.5 624.5 c 128,-1,40
 1000 541 1000 541 1000 450 c 128,-1,41
 1000 359 1000 359 964.5 275.5 c 128,-1,42
 929 192 929 192 868.5 131.5 c 128,-1,43
 808 71 808 71 724.5 35.5 c 128,-1,44
 641 0 641 0 550 0 c 128,-1,45
 459 0 459 0 375.5 35.5 c 128,-1,46
 292 71 292 71 231.5 131.5 c 128,-1,47
 171 192 171 192 135.5 275.5 c 128,-1,48
 100 359 100 359 100 450 c 128,-1,49
 100 541 100 541 135.5 624.5 c 128,-1,50
 171 708 171 708 231.5 768.5 c 128,-1,51
 292 829 292 829 375.5 864.5 c 128,-1,36
 459 900 459 900 550 900 c 128,-1,37
EndSplineSet
MultipleSubs2: "cartouched sitelen" moli.t cartouche.body
Ligature2: "sitelen+-space" m o l i space
Ligature2: "sitelen" m o l i
EndChar

StartChar: monsi.t
Encoding: 132 989496 76
Width: 1100
GlyphClass: 1
Flags: MW
LayerCount: 2
Fore
SplineSet
225 450 m 128,-1,1
 225 481 225 481 247 503 c 128,-1,2
 269 525 269 525 300 525 c 128,-1,3
 331 525 331 525 353 503 c 128,-1,4
 375 481 375 481 375 450 c 128,-1,5
 375 419 375 419 353 397 c 128,-1,6
 331 375 331 375 300 375 c 128,-1,7
 269 375 269 375 247 397 c 128,-1,0
 225 419 225 419 225 450 c 128,-1,1
425.002929688 900.001953125 m 1,8,-1
 525.001953125 900.001953125 l 1,9,-1
 824.999023438 900.001953125 l 1,10,-1
 824.999023438 799.998046875 l 1,11,-1
 525.001953125 799.998046875 l 1,12,-1
 525.001953125 99.9990234375 l 1,13,-1
 824.999023438 99.9990234375 l 1,14,-1
 824.999023438 0 l 1,15,-1
 525.001953125 0 l 1,16,-1
 425.002929688 0 l 1,17,-1
 425.002929688 99.9990234375 l 1,18,-1
 425.002929688 799.998046875 l 1,19,-1
 425.002929688 900.001953125 l 1,8,-1
EndSplineSet
MultipleSubs2: "cartouched sitelen" monsi.t cartouche.body
LCarets2: 5 0 0 0 0 0
Ligature2: "sitelen+-space" m o n s i space
Ligature2: "sitelen" m o n s i
EndChar

StartChar: mu.t
Encoding: 133 989497 77
Width: 1100
GlyphClass: 1
Flags: MW
LayerCount: 2
Fore
SplineSet
600 225 m 128,-1,1
 579 204 579 204 550 204 c 128,-1,2
 521 204 521 204 500 225 c 128,-1,3
 479 246 479 246 479 275 c 128,-1,4
 479 304 479 304 500 325 c 128,-1,5
 521 346 521 346 550 346 c 128,-1,6
 579 346 579 346 600 325 c 128,-1,7
 621 304 621 304 621 275 c 128,-1,0
 621 246 621 246 600 225 c 128,-1,1
825 775 m 128,-1,9
 794 775 794 775 772 753 c 128,-1,10
 750 731 750 731 750 700 c 128,-1,11
 750 669 750 669 772 647 c 128,-1,12
 794 625 794 625 825 625 c 128,-1,13
 856 625 856 625 878 647 c 128,-1,14
 900 669 900 669 900 700 c 128,-1,15
 900 731 900 731 878 753 c 128,-1,8
 856 775 856 775 825 775 c 128,-1,9
825 875 m 128,-1,17
 897 875 897 875 948.5 823.5 c 128,-1,18
 1000 772 1000 772 1000 700 c 128,-1,19
 1000 628 1000 628 948.5 576.5 c 0,20,21
 911.719991679 539.719991679 911.719991679 539.719991679 864.484044156 529.207342816 c 1,22,23
 900 457.582196512 900 457.582196512 900 368.791098256 c 128,-1,24
 900 280 900 280 853 199.5 c 128,-1,25
 806 119 806 119 725.5 72 c 128,-1,26
 645 25 645 25 550 25 c 128,-1,27
 455 25 455 25 374.5 72 c 128,-1,28
 294 119 294 119 247 199.5 c 128,-1,29
 200 280 200 280 200 368.791098256 c 128,-1,30
 200 457.582196512 200 457.582196512 235.515955844 529.207342816 c 1,31,32
 188.280008321 539.719991679 188.280008321 539.719991679 151.5 576.5 c 0,33,34
 100 628 100 628 100 700 c 128,-1,35
 100 772 100 772 151.5 823.5 c 128,-1,36
 203 875 203 875 275 875 c 128,-1,37
 347 875 347 875 396.560569662 825.439430338 c 128,-1,38
 446.121139324 775.878860676 446.121139324 775.878860676 449.707853201 710.729454911 c 1,39,40
 497.652619113 725 497.652619113 725 550 725 c 128,-1,41
 602.347380887 725 602.347380887 725 650.292146799 710.729454911 c 1,42,43
 653.878860676 775.878860676 653.878860676 775.878860676 703.439430338 825.439430338 c 128,-1,16
 753 875 753 875 825 875 c 128,-1,17
275 775 m 128,-1,45
 244 775 244 775 222 753 c 128,-1,46
 200 731 200 731 200 700 c 128,-1,47
 200 669 200 669 222 647 c 128,-1,48
 244 625 244 625 275 625 c 128,-1,49
 306 625 306 625 328 647 c 128,-1,50
 350 669 350 669 350 700 c 128,-1,51
 350 731 350 731 328 753 c 128,-1,44
 306 775 306 775 275 775 c 128,-1,45
549 625 m 128,-1,53
 446 625 446 625 373 552 c 128,-1,54
 300 479 300 479 300 376 c 128,-1,55
 300 273 300 273 373 200.5 c 128,-1,56
 446 128 446 128 549 128 c 128,-1,57
 652 128 652 128 724.5 200.5 c 128,-1,58
 797 273 797 273 797 376 c 128,-1,59
 797 479 797 479 724.5 552 c 128,-1,52
 652 625 652 625 549 625 c 128,-1,53
EndSplineSet
MultipleSubs2: "cartouched sitelen" mu.t cartouche.body
Ligature2: "sitelen+-space" m u space
Ligature2: "sitelen" m u
EndChar

StartChar: mun.t
Encoding: 134 989498 78
Width: 1100
GlyphClass: 1
Flags: MW
LayerCount: 2
Fore
SplineSet
501 799 m 0,0,1
 492 799 492 799 483 798 c 1,2,3
 561 735 561 735 605.5 642 c 128,-1,4
 650 549 650 549 650 449.5 c 128,-1,5
 650 350 650 350 606 257 c 128,-1,6
 562 164 562 164 484 101 c 1,7,8
 555 97 555 97 623 122.5 c 128,-1,9
 691 148 691 148 742 196.5 c 128,-1,10
 793 245 793 245 821.5 312 c 128,-1,11
 850 379 850 379 850 449.5 c 128,-1,12
 850 520 850 520 821.5 587 c 128,-1,13
 793 654 793 654 743.5 701 c 0,14,15
 642.545945946 796.855364455 642.545945946 796.855364455 501 799 c 0,0,1
217 798 m 1,16,17
 341.402439024 899 341.402439024 899 510 899 c 0,18,19
 607 897 607 897 694 855 c 0,20,21
 811 800 811 800 880.5 690 c 128,-1,22
 950 580 950 580 950 450 c 128,-1,23
 950 320 950 320 881 210 c 128,-1,24
 812 100 812 100 694.5 44 c 128,-1,25
 577 -12 577 -12 448 3 c 128,-1,26
 319 18 319 18 218 100 c 1,27,28
 284 103 284 103 346 131.5 c 128,-1,29
 408 160 408 160 454 208 c 128,-1,30
 500 256 500 256 525 319.5 c 128,-1,31
 550 383 550 383 550 449.5 c 128,-1,32
 550 516 550 516 524.5 579 c 128,-1,33
 499 642 499 642 453 690.5 c 128,-1,34
 407 739 407 739 345 767 c 128,-1,35
 283 795 283 795 217 798 c 1,16,17
EndSplineSet
MultipleSubs2: "cartouched sitelen" mun.t cartouche.body
Ligature2: "sitelen+-space" m u n space
Ligature2: "sitelen" m u n
EndChar

StartChar: musi.t
Encoding: 135 989499 79
Width: 1100
GlyphClass: 1
Flags: MW
LayerCount: 2
Fore
SplineSet
825 800 m 128,-1,1
 794 800 794 800 772 778 c 128,-1,2
 750 756 750 756 750 725 c 128,-1,3
 750 694 750 694 772 672 c 128,-1,4
 794 650 794 650 825 650 c 128,-1,5
 856 650 856 650 878 672 c 128,-1,6
 900 694 900 694 900 725 c 128,-1,7
 900 756 900 756 878 778 c 128,-1,0
 856 800 856 800 825 800 c 128,-1,1
275 800 m 128,-1,9
 244 800 244 800 222 778 c 128,-1,10
 200 756 200 756 200 725 c 128,-1,11
 200 694 200 694 222 672 c 128,-1,12
 244 650 244 650 275 650 c 128,-1,13
 306 650 306 650 328 672 c 128,-1,14
 350 694 350 694 350 725 c 128,-1,15
 350 756 350 756 328 778 c 128,-1,8
 306 800 306 800 275 800 c 128,-1,9
275 900 m 128,-1,17
 347 900 347 900 398.5 848.5 c 128,-1,18
 450 797 450 797 450 725 c 128,-1,19
 450 653 450 653 398.5 601.5 c 128,-1,20
 347 550 347 550 275 550 c 0,21,22
 271 550 271 550 267 551 c 1,23,24
 208.022312373 429.112778905 208.022312373 429.112778905 256 303 c 0,25,26
 291 211 291 211 371.5 155.5 c 128,-1,27
 452 100 452 100 550 100 c 128,-1,28
 648 100 648 100 728.5 155.5 c 128,-1,29
 809 211 809 211 844 303 c 0,30,31
 891.977687627 429.112778905 891.977687627 429.112778905 833 551 c 1,32,33
 829 550 829 550 825 550 c 0,34,35
 753 550 753 550 701.5 601.5 c 128,-1,36
 650 653 650 653 650 725 c 128,-1,37
 650 797 650 797 701.5 848.5 c 128,-1,38
 753 900 753 900 825 900 c 128,-1,39
 897 900 897 900 948.5 848.5 c 128,-1,40
 1000 797 1000 797 1000 725 c 0,41,42
 1000 682 1000 682 980.5 645 c 128,-1,43
 961 608 961 608 928 584 c 1,44,45
 998.375 425.65625 998.375 425.65625 938 267.5 c 0,46,47
 892 147 892 147 785.5 73.5 c 128,-1,48
 679 0 679 0 550 0 c 128,-1,49
 421 0 421 0 314.5 73.5 c 128,-1,50
 208 147 208 147 162 267.5 c 0,51,52
 101.625 425.65625 101.625 425.65625 172 584 c 1,53,54
 139 608 139 608 119.5 645 c 128,-1,55
 100 682 100 682 100 725 c 0,56,57
 100 797 100 797 151.5 848.5 c 128,-1,16
 203 900 203 900 275 900 c 128,-1,17
EndSplineSet
MultipleSubs2: "cartouched sitelen" musi.t cartouche.body
Ligature2: "sitelen+-space" m u s i space
Ligature2: "sitelen" m u s i
EndChar

StartChar: mute.t
Encoding: 136 989500 80
Width: 1100
GlyphClass: 1
Flags: MW
LayerCount: 2
Fore
SplineSet
750 850 m 1,0,-1
 850 850 l 1,1,-1
 850 50 l 1,2,-1
 750 50 l 1,3,-1
 750 850 l 1,0,-1
500 850 m 1,4,-1
 600 850 l 1,5,-1
 600 50 l 1,6,-1
 500 50 l 1,7,-1
 500 850 l 1,4,-1
250 850 m 1,8,-1
 350 850 l 1,9,-1
 350 50 l 1,10,-1
 250 50 l 1,11,-1
 250 850 l 1,8,-1
EndSplineSet
MultipleSubs2: "cartouched sitelen" mute.t cartouche.body
Ligature2: "sitelen+-space" m u t e space
Ligature2: "sitelen" m u t e
EndChar

StartChar: nanpa.t
Encoding: 137 989501 81
Width: 1100
GlyphClass: 1
Flags: MW
LayerCount: 2
Fore
SplineSet
775 225 m 1,0,-1
 775 0 l 1,1,-1
 675 0 l 1,2,-1
 675 225 l 1,3,-1
 425 225 l 1,4,-1
 425 0 l 1,5,-1
 325 0 l 1,6,-1
 325 225 l 1,7,-1
 100 225 l 1,8,-1
 100 325 l 1,9,-1
 325 325 l 1,10,-1
 325 575 l 1,11,-1
 100 575 l 1,12,-1
 100 675 l 1,13,-1
 325 675 l 1,14,-1
 325 900 l 1,15,-1
 425 900 l 1,16,-1
 425 675 l 1,17,-1
 675 675 l 1,18,-1
 675 900 l 1,19,-1
 775 900 l 1,20,-1
 775 675 l 1,21,-1
 1000 675 l 1,22,-1
 1000 575 l 1,23,-1
 775 575 l 1,24,-1
 775 325 l 1,25,-1
 1000 325 l 1,26,-1
 1000 225 l 1,27,-1
 775 225 l 1,0,-1
675 325 m 1,28,-1
 675 575 l 1,29,-1
 425 575 l 1,30,-1
 425 325 l 1,31,-1
 675 325 l 1,28,-1
EndSplineSet
MultipleSubs2: "cartouched sitelen" nanpa.t cartouche.body
Ligature2: "sitelen+-space" n a n p a space
Ligature2: "sitelen" n a n p a
EndChar

StartChar: nasa.t
Encoding: 138 989502 82
Width: 1100
GlyphClass: 1
Flags: MW
LayerCount: 2
Fore
SplineSet
390 856 m 128,-1,1
 466 896 466 896 558.5 900 c 128,-1,2
 651 904 651 904 739.5 860.5 c 128,-1,3
 828 817 828 817 883.5 735 c 128,-1,4
 939 653 939 653 941.5 561.5 c 128,-1,5
 944 470 944 470 906 396.5 c 128,-1,6
 868 323 868 323 797.5 277 c 128,-1,7
 727 231 727 231 651 231.5 c 128,-1,8
 575 232 575 232 515.5 264.5 c 128,-1,9
 456 297 456 297 420.5 356 c 128,-1,10
 385 415 385 415 389 490 c 128,-1,11
 393 565 393 565 454.18134715 624.554404145 c 128,-1,12
 515.362694301 684.10880829 515.362694301 684.10880829 598 670 c 0,13,14
 655 662 655 662 694.717344754 612.699143469 c 128,-1,15
 734.434689507 563.398286938 734.434689507 563.398286938 711 497 c 1,16,-1
 619 537 l 1,17,18
 622 544 622 544 612 556.5 c 128,-1,19
 602 569 602 569 575 573 c 128,-1,20
 548 577 548 577 519.5 549 c 128,-1,21
 491 521 491 521 488 470 c 128,-1,22
 485 419 485 419 532.5 375.5 c 128,-1,23
 580 332 580 332 643 332 c 0,24,25
 727 331 727 331 785.5 397.5 c 128,-1,26
 844 464 844 464 842 543 c 128,-1,27
 840 622 840 622 799.5 681 c 128,-1,28
 759 740 759 740 694 771.5 c 128,-1,29
 629 803 629 803 550 799.5 c 128,-1,30
 471 796 471 796 400 745.5 c 128,-1,31
 329 695 329 695 291 616 c 128,-1,32
 253 537 253 537 259 444.5 c 128,-1,33
 265 352 265 352 320.5 271 c 128,-1,34
 376 190 376 190 463.5 144.5 c 128,-1,35
 551 99 551 99 649 100 c 1,36,-1
 650 0 l 1,37,38
 526 -1 526 -1 416 56 c 128,-1,39
 306 113 306 113 236 216 c 128,-1,40
 166 319 166 319 159 444 c 0,41,42
 154 529 154 529 182 610 c 128,-1,43
 210 691 210 691 262 753.5 c 128,-1,0
 314 816 314 816 390 856 c 128,-1,1
EndSplineSet
MultipleSubs2: "cartouched sitelen" nasa.t cartouche.body
Ligature2: "sitelen+-space" n a s a space
Ligature2: "sitelen" n a s a
EndChar

StartChar: nasin.t
Encoding: 139 989503 83
Width: 1100
GlyphClass: 1
Flags: MW
LayerCount: 2
Fore
SplineSet
500 484 m 1,0,-1
 291 275 l 1,1,-1
 221 346 l 1,2,-1
 500 625 l 1,3,-1
 500 900 l 1,4,-1
 600 900 l 1,5,-1
 600 625 l 1,6,-1
 879 346 l 1,7,-1
 809 275 l 1,8,-1
 600 484 l 1,9,-1
 600 0 l 1,10,-1
 500 0 l 1,11,-1
 500 484 l 1,0,-1
EndSplineSet
MultipleSubs2: "cartouched sitelen" nasin.t cartouche.body
Ligature2: "sitelen+-space" n a s i n space
Ligature2: "sitelen" n a s i n
EndChar

StartChar: nena.t
Encoding: 140 989504 84
Width: 1100
GlyphClass: 1
Flags: MW
LayerCount: 2
Fore
SplineSet
550 900 m 128,-1,1
 674 900 674 900 762 812 c 128,-1,2
 850 724 850 724 850 600 c 2,3,-1
 850 0 l 1,4,-1
 750 0 l 1,5,-1
 750 600 l 2,6,7
 750 683 750 683 691.5 741.5 c 128,-1,8
 633 800 633 800 550 800 c 128,-1,9
 467 800 467 800 408.5 741.5 c 128,-1,10
 350 683 350 683 350 600 c 2,11,-1
 350 0 l 1,12,-1
 250 0 l 1,13,-1
 250 600 l 2,14,15
 250 724 250 724 338 812 c 128,-1,0
 426 900 426 900 550 900 c 128,-1,1
EndSplineSet
MultipleSubs2: "cartouched sitelen" nena.t cartouche.body
Ligature2: "sitelen+-space" n e n a space
Ligature2: "sitelen" n e n a
EndChar

StartChar: ni.t
Encoding: 141 989505 85
Width: 1100
GlyphClass: 1
Flags: MW
LayerCount: 2
Fore
SplineSet
500 900 m 1,0,-1
 600 900 l 1,1,-1
 600 191 l 1,2,-1
 809 400 l 1,3,-1
 879 329 l 1,4,-1
 550 0 l 1,5,-1
 221 329 l 1,6,-1
 291 400 l 1,7,-1
 500 191 l 1,8,-1
 500 900 l 1,0,-1
EndSplineSet
MultipleSubs2: "cartouched sitelen" ni.t cartouche.body
Ligature2: "sitelen+-space" n i space
Ligature2: "sitelen" n i
EndChar

StartChar: nimi.t
Encoding: 142 989506 86
Width: 1100
GlyphClass: 1
Flags: MW
LayerCount: 2
Fore
SplineSet
850 250 m 2,0,-1
 250 250 l 2,1,2
 188 250 188 250 144 294 c 128,-1,3
 100 338 100 338 100 400 c 2,4,-1
 100 500 l 2,5,6
 100 562 100 562 144 606 c 128,-1,7
 188 650 188 650 250 650 c 2,8,-1
 850 650 l 2,9,10
 912 650 912 650 956 606 c 128,-1,11
 1000 562 1000 562 1000 500 c 2,12,-1
 1000 400 l 2,13,14
 1000 338 1000 338 956 294 c 128,-1,15
 912 250 912 250 850 250 c 2,0,-1
850 350 m 2,16,17
 871 350 871 350 885.5 364.5 c 128,-1,18
 900 379 900 379 900 400 c 2,19,-1
 900 500 l 6,20,21
 900 521 900 521 885.5 535.5 c 128,-1,22
 871 550 871 550 850 550 c 2,23,-1
 250 550 l 2,24,25
 229 550 229 550 214.5 535.5 c 128,-1,26
 200 521 200 521 200 500 c 2,27,-1
 200 400 l 2,28,29
 200 379 200 379 214.5 364.5 c 128,-1,30
 229 350 229 350 250 350 c 2,31,-1
 850 350 l 2,16,17
EndSplineSet
MultipleSubs2: "cartouched sitelen" nimi.t cartouche.body
Ligature2: "sitelen+-space" n i m i space
Ligature2: "sitelen" n i m i
EndChar

StartChar: noka.t
Encoding: 143 989507 87
Width: 1100
GlyphClass: 1
Flags: MW
LayerCount: 2
Fore
SplineSet
500 900 m 1,0,-1
 600 900 l 1,1,-1
 600 500 l 1,2,-1
 725 500 l 2,3,4
 828 500 828 500 901.5 426.5 c 128,-1,5
 975 353 975 353 975 250 c 128,-1,6
 975 147 975 147 901.5 73.5 c 128,-1,7
 828 0 828 0 725 0 c 2,8,9
 725 0 725 0 150 0 c 1,10,-1
 150 900 l 1,11,-1
 250 900 l 1,12,-1
 250 100 l 1,13,-1
 725 100 l 2,14,15
 787 100 787 100 831 144 c 128,-1,16
 875 188 875 188 875 250 c 128,-1,17
 875 312 875 312 831 356 c 128,-1,18
 787 400 787 400 725 400 c 2,19,-1
 600 400 l 1,20,-1
 500 400 l 1,21,-1
 500 900 l 1,0,-1
EndSplineSet
MultipleSubs2: "cartouched sitelen" noka.t cartouche.body
Ligature2: "sitelen+-space" n o k a space
Ligature2: "sitelen" n o k a
EndChar

StartChar: o.t
Encoding: 144 989508 88
Width: 1100
GlyphClass: 1
Flags: MW
LayerCount: 2
Fore
SplineSet
550 300.001953125 m 128,-1,1
 612.090332031 300.001953125 612.090332031 300.001953125 656.045654297 256.046630859 c 128,-1,2
 700.000976562 212.091308594 700.000976562 212.091308594 700.000976562 150.000976562 c 128,-1,3
 700.000976562 87.9106445312 700.000976562 87.9106445312 656.045654297 43.9553222656 c 128,-1,4
 612.090332031 0 612.090332031 0 550 0 c 128,-1,5
 487.911092279 0.0014648447063 487.911092279 0.0014648447063 443.957499264 43.956441166 c 128,-1,6
 400.00390625 87.9114174874 400.00390625 87.9114174874 400.00390625 150.000976562 c 128,-1,7
 400.00390625 212.090535638 400.00390625 212.090535638 443.957499264 256.045511959 c 128,-1,0
 487.911092279 300.00048828 487.911092279 300.00048828 550 300.001953125 c 128,-1,1
550 200.002929688 m 128,-1,9
 529.304251721 200.002197276 529.304251721 200.002197276 514.653590704 185.349757715 c 128,-1,10
 500.002929688 170.697318153 500.002929688 170.697318153 500.002929688 150.000976562 c 128,-1,11
 500.002929688 129.304803569 500.002929688 129.304803569 514.653506416 114.65264592 c 128,-1,12
 529.304083145 100.000488272 529.304083145 100.000488272 550 99.9990234375 c 128,-1,13
 570.696777344 99.9990234375 570.696777344 99.9990234375 585.349365234 114.651611328 c 128,-1,14
 600.001953125 129.304199219 600.001953125 129.304199219 600.001953125 150.000976562 c 128,-1,15
 600.001953125 170.697753906 600.001953125 170.697753906 585.349365234 185.350341797 c 128,-1,8
 570.696777344 200.002929688 570.696777344 200.002929688 550 200.002929688 c 128,-1,9
500 374.998046875 m 1,16,-1
 500 900 l 1,17,-1
 600 900 l 1,18,-1
 600 374.998046875 l 1,19,-1
 500 374.998046875 l 1,16,-1
EndSplineSet
MultipleSubs2: "cartouched sitelen" o.t cartouche.body
Ligature2: "sitelen" o
Ligature2: "sitelen+-space" o space
EndChar

StartChar: olin.t
Encoding: 145 989509 89
Width: 1100
GlyphClass: 1
Flags: MW
LayerCount: 2
Fore
SplineSet
367.194335938 925 m 1,0,-1
 367.194335938 875 l 1025,1,-1
350 900 m 1,2,-1
 400 900 l 1025,3,-1
508.313603253 392.372665521 m 128,-1,5
 487.41956076 420.516449232 487.41956076 420.516449232 456.565814379 420.474707358 c 128,-1,6
 425.712067998 420.432965484 425.712067998 420.432965484 407.704011091 403.740388118 c 0,7,8
 368.997881985 367.861722364 368.997881985 367.861722364 386.586206694 309.686755372 c 0,9,10
 413.37465996 221.081535134 413.37465996 221.081535134 550 121.760742188 c 1,11,12
 735.228546899 256.413992815 735.228546899 256.413992815 715.45703125 360.041015625 c 0,13,14
 710.304045816 387.047810752 710.304045816 387.047810752 692.380470664 403.66292609 c 128,-1,15
 674.456895513 420.278041429 674.456895513 420.278041429 647.522151355 420.485120827 c 128,-1,16
 620.587407196 420.692200226 620.587407196 420.692200226 594.696903892 389.393173521 c 128,-1,17
 568.806400588 358.094146816 568.806400588 358.094146816 550 300 c 1,18,4
 529.207645747 364.228881811 529.207645747 364.228881811 508.313603253 392.372665521 c 128,-1,5
508 770.5 m 128,-1,20
 487 800 487 800 456.356033999 799.983572586 c 128,-1,21
 425.712067998 799.967145171 425.712067998 799.967145171 407.704011091 783.274567805 c 0,22,23
 368.997881985 747.395902051 368.997881985 747.395902051 386.586206694 689.220935059 c 0,24,25
 413.374659961 600.615714819 413.374659961 600.615714819 550 501.294921875 c 1,26,27
 735.2285469 635.9481725 735.2285469 635.9481725 715.45703125 739.575195312 c 0,28,29
 710.304045816 766.581990439 710.304045816 766.581990439 692.380470664 783.197105778 c 128,-1,30
 674.456895513 799.812221117 674.456895513 799.812221117 650 800 c 0,31,32
 591 800 591 800 550 675 c 1,33,19
 529 741 529 741 508 770.5 c 128,-1,20
339.4609375 856.380859375 m 0,34,35
 397.003805887 909.721493507 397.003805887 909.721493507 474.689453125 898.717773438 c 0,36,37
 515.033821863 893.004358509 515.033821863 893.004358509 550 866.7890625 c 1,38,39
 584.964259473 893.004086795 584.964259473 893.004086795 625.310546875 898.717773438 c 0,40,41
 702.998562736 909.71874664 702.998562736 909.71874664 760.5390625 856.380859375 c 0,42,43
 844.805707082 778.26831202 844.805707082 778.26831202 804.440603782 644.752919325 c 0,44,45
 785.491024396 582.073517407 785.491024396 582.073517407 712.979560964 508.497105078 c 1,46,47
 738.268644297 497.49111937 738.268644297 497.49111937 760.5390625 476.846679688 c 0,48,49
 844.805699572 398.734139295 844.805699572 398.734139295 803.723986474 262.848359952 c 0,50,51
 784.057628319 197.798044295 784.057628319 197.798044295 714.578815343 130.30873285 c 128,-1,52
 645.100002367 62.8194214052 645.100002367 62.8194214052 577.555664062 18.201171875 c 2,53,-1
 550 0 l 1,54,-1
 522.444335938 18.201171875 l 2,55,56
 454.899997633 62.8194214052 454.899997633 62.8194214052 385.421184657 130.30873285 c 128,-1,57
 315.942371681 197.798044295 315.942371681 197.798044295 296.276013526 262.848359952 c 0,58,59
 255.194300428 398.734139295 255.194300428 398.734139295 339.4609375 476.846679688 c 0,60,61
 361.381044746 497.166007756 361.381044746 497.166007756 387.399502529 508.112813212 c 1,62,63
 262.683068888 634.438181808 262.683068888 634.438181808 286.317382812 758.3125 c 0,64,65
 297.630010289 817.604896491 297.630010289 817.604896491 339.4609375 856.380859375 c 0,34,35
EndSplineSet
MultipleSubs2: "cartouched sitelen" olin.t cartouche.body
Ligature2: "sitelen+-space" o l i n space
Ligature2: "sitelen" o l i n
EndChar

StartChar: ona.t
Encoding: 146 989510 90
Width: 1100
GlyphClass: 1
Flags: MW
LayerCount: 2
Fore
SplineSet
900 450 m 128,-1,1
 900 491 900 491 870.5 520.5 c 128,-1,2
 841 550 841 550 800 550 c 128,-1,3
 759 550 759 550 729.5 520.5 c 128,-1,4
 700 491 700 491 700 450 c 128,-1,5
 700 409 700 409 729.5 379.5 c 128,-1,6
 759 350 759 350 800 350 c 128,-1,7
 841 350 841 350 870.5 379.5 c 128,-1,0
 900 409 900 409 900 450 c 128,-1,1
138 399 m 1,8,9
 334.714285714 318 334.714285714 318 550 318 c 0,10,11
 597 318 597 318 646 323 c 1,12,13
 600 378 600 378 600 455.5 c 128,-1,14
 600 533 600 533 658.5 591.5 c 128,-1,15
 717 650 717 650 800 650 c 128,-1,16
 883 650 883 650 941.5 591.5 c 128,-1,17
 1000 533 1000 533 1000 457.5 c 128,-1,18
 1000 382 1000 382 958 327.5 c 128,-1,19
 916 273 916 273 850 256 c 0,20,21
 702 218 702 218 550 218 c 0,22,23
 317.066666667 218 317.066666667 218 100 306 c 1,24,-1
 138 399 l 1,8,9
EndSplineSet
MultipleSubs2: "cartouched sitelen" ona.t cartouche.body
Ligature2: "sitelen+-space" o n a space
Ligature2: "sitelen" o n a
EndChar

StartChar: open.t
Encoding: 147 989511 91
Width: 1100
GlyphClass: 1
Flags: MW
LayerCount: 2
Fore
SplineSet
250 250 m 1,0,-1
 250 100 l 1,1,-1
 850 100 l 1,2,-1
 850 250 l 1,3,-1
 250 250 l 1,0,-1
150 900 m 1,4,-1
 250 900 l 1,5,-1
 250 350 l 1,6,-1
 850 350 l 1,7,-1
 850 900 l 1,8,-1
 950 900 l 1,9,-1
 950 0 l 1,10,11
 950 0 950 0 150 0 c 1,12,-1
 150 900 l 1,4,-1
EndSplineSet
MultipleSubs2: "cartouched sitelen" open.t cartouche.body
Ligature2: "sitelen+-space" o p e n space
Ligature2: "sitelen" o p e n
EndChar

StartChar: pakala.t
Encoding: 148 989512 92
Width: 1100
GlyphClass: 1
Flags: MW
LayerCount: 2
Fore
SplineSet
607 800 m 1,0,-1
 494 500 l 1,1,-1
 675 500 l 1,2,-1
 750 500 l 1,3,-1
 600 100 l 1,4,-1
 850 100 l 1,5,-1
 850 800 l 1,6,-1
 607 800 l 1,0,-1
250 800 m 1,7,-1
 250 100 l 1,8,-1
 493 100 l 1,9,-1
 606 400 l 1,10,-1
 457 400 l 1,11,-1
 350 400 l 1,12,-1
 500 800 l 1,13,-1
 250 800 l 1,7,-1
150 900 m 1,14,15
 150 900 150 900 950 900 c 5,16,-1
 950 0 l 1,17,18
 950 0 950 0 150 0 c 1,19,-1
 150 900 l 1,14,15
EndSplineSet
MultipleSubs2: "cartouched sitelen" pakala.t cartouche.body
LCarets2: 6 0 0 0 0 0 0
Ligature2: "sitelen+-space" p a k a l a space
Ligature2: "sitelen" p a k a l a
EndChar

StartChar: pali.t
Encoding: 149 989513 93
Width: 1100
GlyphClass: 1
Flags: MW
LayerCount: 2
Fore
SplineSet
550 800 m 128,-1,1
 509 800 509 800 479.5 770.5 c 128,-1,2
 450 741 450 741 450 700 c 128,-1,3
 450 659 450 659 479.5 629.5 c 128,-1,4
 509 600 509 600 550 600 c 128,-1,5
 591 600 591 600 620.5 629.5 c 128,-1,6
 650 659 650 659 650 700 c 128,-1,7
 650 741 650 741 620.5 770.5 c 128,-1,0
 591 800 591 800 550 800 c 128,-1,1
409.88105334 557.130454353 m 1,8,9
 350 616.01603269 350 616.01603269 350 699.508016345 c 128,-1,10
 350 783 350 783 408.5 841.5 c 128,-1,11
 467 900 467 900 550 900 c 128,-1,12
 633 900 633 900 691.5 841.5 c 128,-1,13
 750 783 750 783 750 699.508016302 c 128,-1,14
 750 616.016032605 750 616.016032605 690.118946658 557.130454352 c 1,15,16
 709.132981436 543.867018561 709.132981436 543.867018561 726.5 526.5 c 0,17,18
 800 453 800 453 800 350 c 2,19,-1
 800 0 l 1,20,-1
 700 0 l 1,21,-1
 700 350 l 2,22,23
 700 412 700 412 656 456 c 128,-1,24
 612 500 612 500 550 500 c 128,-1,25
 488 500 488 500 444 456 c 128,-1,26
 400 412 400 412 400 350 c 2,27,-1
 400 0 l 1,28,-1
 300 0 l 1,29,-1
 150 260 l 1,30,-1
 237 310 l 1,31,-1
 300 200.8 l 1,32,-1
 300 350 l 2,33,34
 300 453 300 453 373.5 526.5 c 0,35,36
 390.867018563 543.867018563 390.867018563 543.867018563 409.88105334 557.130454353 c 1,8,9
EndSplineSet
MultipleSubs2: "cartouched sitelen" pali.t cartouche.body
Ligature2: "sitelen+-space" p a l i space
Ligature2: "sitelen" p a l i
EndChar

StartChar: palisa.t
Encoding: 150 989514 94
Width: 1100
GlyphClass: 1
Flags: MW
LayerCount: 2
Fore
SplineSet
550 800 m 128,-1,1
 529 800 529 800 514.5 785.5 c 128,-1,2
 500 771 500 771 500 750 c 2,3,-1
 500 609 l 1,4,-1
 500 150 l 2,5,6
 500 129 500 129 514.5 114.5 c 128,-1,7
 529 100 529 100 550 100 c 128,-1,8
 571 100 571 100 585.5 114.5 c 128,-1,9
 600 129 600 129 600 150 c 2,10,-1
 600 729.5 l 1,11,-1
 600 750 l 2,12,13
 600 771 600 771 585.5 785.5 c 128,-1,0
 571 800 571 800 550 800 c 128,-1,1
550 900 m 128,-1,15
 612 900 612 900 656 856 c 128,-1,16
 700 812 700 812 700 750 c 2,17,-1
 700 150 l 2,18,19
 700 88 700 88 656 44 c 128,-1,20
 612 0 612 0 550 0 c 128,-1,21
 488 0 488 0 444 44 c 128,-1,22
 400 88 400 88 400 150 c 2,23,-1
 400 750 l 2,24,25
 400 812 400 812 444 856 c 128,-1,14
 488 900 488 900 550 900 c 128,-1,15
EndSplineSet
MultipleSubs2: "cartouched sitelen" palisa.t cartouche.body
Ligature2: "sitelen+-space" p a l i s a space
Ligature2: "sitelen" p a l i s a
EndChar

StartChar: pan.t
Encoding: 151 989515 95
Width: 1100
GlyphClass: 1
Flags: MW
LayerCount: 2
Fore
SplineSet
373 322 m 1,0,-1
 550 145 l 1,1,-1
 727 322 l 1,2,-1
 797 251 l 1,3,-1
 621 74 l 1,4,-1
 550 3 l 1,5,-1
 479 74 l 1,6,-1
 303 251 l 1,7,-1
 373 322 l 1,0,-1
373 597 m 1,8,-1
 550 420 l 1,9,-1
 727 597 l 1,10,-1
 797 526 l 1,11,-1
 621 349 l 1,12,-1
 550 278 l 1,13,-1
 479 349 l 1,14,-1
 303 526 l 1,15,-1
 373 597 l 1,8,-1
373 897 m 1,16,-1
 550 720 l 1,17,-1
 727 897 l 1,18,-1
 797 826 l 1,19,-1
 621 649 l 1,20,-1
 550 578 l 1,21,-1
 479 649 l 1,22,-1
 303 826 l 1,23,-1
 373 897 l 1,16,-1
EndSplineSet
MultipleSubs2: "cartouched sitelen" pan.t cartouche.body
Ligature2: "sitelen+-space" p a n space
Ligature2: "sitelen" p a n
EndChar

StartChar: pana.t
Encoding: 152 989516 96
Width: 1100
GlyphClass: 1
Flags: MW
LayerCount: 2
Fore
SplineSet
350 900 m 1,0,-1
 425 675 l 1,1,-1
 320 675 l 1,2,-1
 245 900 l 1,3,-1
 350 900 l 1,0,-1
750 900 m 1,4,-1
 855 900 l 1,5,-1
 780 675 l 1,6,-1
 675 675 l 1,7,-1
 750 900 l 1,4,-1
500 900 m 1,8,-1
 600 900 l 1,9,-1
 600 675 l 1,10,-1
 500 675 l 1,11,-1
 500 900 l 1,8,-1
150 260 m 1,12,-1
 237 310 l 1,13,-1
 300 200.8 l 1,14,-1
 300 350 l 2,15,16
 300 453 300 453 373.5 526.5 c 128,-1,17
 447 600 447 600 550 600 c 128,-1,18
 653 600 653 600 726.5 526.5 c 128,-1,19
 800 453 800 453 800 350 c 2,20,-1
 800 0 l 1,21,-1
 700 0 l 1,22,-1
 700 350 l 2,23,24
 700 412 700 412 656 456 c 128,-1,25
 612 500 612 500 550 500 c 128,-1,26
 488 500 488 500 444 456 c 128,-1,27
 400 412 400 412 400 350 c 2,28,-1
 400 0 l 1,29,-1
 300 0 l 1,30,-1
 150 260 l 1,12,-1
EndSplineSet
MultipleSubs2: "cartouched sitelen" pana.t cartouche.body
Ligature2: "sitelen+-space" p a n a space
Ligature2: "sitelen" p a n a
EndChar

StartChar: pi.t
Encoding: 153 989517 97
Width: 1100
GlyphClass: 1
Flags: MW
LayerCount: 2
Fore
SplineSet
200 800 m 1,0,-1
 300 800 l 1,1,-1
 300 200 l 1,2,-1
 900 200 l 1,3,-1
 900 100 l 1,4,-1
 300 100 l 1,5,-1
 200 100 l 1,6,-1
 200 200 l 1,7,-1
 200 800 l 1,0,-1
EndSplineSet
MultipleSubs2: "cartouched sitelen" pi.t cartouche.body
Ligature2: "sitelen+-space" p i space
Ligature2: "sitelen" p i
EndChar

StartChar: pilin.t
Encoding: 154 989518 98
Width: 1100
GlyphClass: 1
Flags: MW
LayerCount: 2
Fore
SplineSet
500 725 m 0,0,1
 434.202666584 825.654372442 434.202666584 825.654372442 337.0703125 801.484375 c 0,2,3
 305.17823148 793.547852435 305.17823148 793.547852435 277.244043777 769.964270244 c 128,-1,4
 249.309856073 746.380688052 249.309856073 746.380688052 233.06640625 714.31640625 c 0,5,6
 200.165454711 649.372840074 200.165454711 649.372840074 213.174739334 571.668151988 c 128,-1,7
 226.184023957 493.963463902 226.184023957 493.963463902 269.712066144 427.160717682 c 0,8,9
 352.352172753 300.332452683 352.352172753 300.332452683 550 130.99609375 c 1,10,11
 747.647573732 300.332235482 747.647573732 300.332235482 824.375 418.0859375 c 0,12,13
 873.815976043 493.963463902 873.815976043 493.963463902 886.825260666 571.668151988 c 128,-1,14
 899.834545289 649.372840074 899.834545289 649.372840074 865.621423492 716.907771321 c 128,-1,15
 831.408301696 784.442702569 831.408301696 784.442702569 752.36669613 804.113483096 c 0,16,17
 709.91162374 814.679113757 709.91162374 814.679113757 669.643627327 792.308443848 c 0,18,19
 596.092764805 751.447655788 596.092764805 751.447655788 557 623 c 2,20,-1
 550 600 l 1,21,22
 525 688 525 688 500 725 c 0,0,1
312.9296875 898.515625 m 0,23,24
 404.197845549 921.229061501 404.197845549 921.229061501 486.42578125 875.546875 c 0,25,26
 521.488581257 856.067228955 521.488581257 856.067228955 550 823.33984375 c 1,27,28
 578.511418743 856.067228955 578.511418743 856.067228955 613.57421875 875.546875 c 0,29,30
 695.801683107 921.228799643 695.801683107 921.228799643 787.0703125 898.515625 c 0,31,32
 842.232192259 884.788188841 842.232192259 884.788188841 886.21678772 847.762856164 c 128,-1,33
 930.20138318 810.737523487 930.20138318 810.737523487 956.15234375 759.51171875 c 0,34,35
 1003.89456606 665.270334889 1003.89456606 665.270334889 986.447168644 561.056091292 c 128,-1,36
 968.999771229 456.841847694 968.999771229 456.841847694 917.206762481 377.354361186 c 0,37,38
 812.282589404 216.325701267 812.282589404 216.325701267 581.8359375 26.03515625 c 2,39,-1
 550 -0.25390625 l 1,40,-1
 518.1640625 26.03515625 l 2,41,42
 287.717410596 216.325701267 287.717410596 216.325701267 182.793237519 377.354361186 c 0,43,44
 131.000228771 456.841847694 131.000228771 456.841847694 113.552831353 561.056091292 c 128,-1,45
 96.1054339352 665.270334889 96.1054339352 665.270334889 143.84765625 759.51171875 c 0,46,47
 169.79861682 810.737523487 169.79861682 810.737523487 213.78321228 847.762856164 c 128,-1,48
 257.767807741 884.788188841 257.767807741 884.788188841 312.9296875 898.515625 c 0,23,24
EndSplineSet
MultipleSubs2: "cartouched sitelen" pilin.t cartouche.body
Ligature2: "sitelen+-space" p i l i n space
Ligature2: "sitelen" p i l i n
EndChar

StartChar: pimeja.t
Encoding: 155 989519 99
Width: 1100
GlyphClass: 1
Flags: MW
LayerCount: 2
Fore
SplineSet
550 232 m 1,0,-1
 465 100 l 1,1,-1
 635 100 l 1,2,-1
 550 232 l 1,0,-1
425 426 m 1,3,-1
 262 100 l 1,4,-1
 346 100 l 1,5,-1
 490 324 l 1,6,-1
 425 426 l 1,3,-1
675 426 m 1,7,-1
 610 324 l 1,8,-1
 754 100 l 1,9,-1
 838 100 l 1,10,-1
 675 426 l 1,7,-1
550 676 m 1,11,-1
 477 529 l 1,12,-1
 550 416 l 1,13,-1
 623 529 l 1,14,-1
 550 676 l 1,11,-1
100 0 m 1,15,-1
 550 900 l 1,16,-1
 1000 0 l 1,17,-1
 700 0 l 1,18,-1
 400 0 l 1,19,-1
 100 0 l 1,15,-1
EndSplineSet
MultipleSubs2: "cartouched sitelen" pimeja.t cartouche.body
LCarets2: 6 0 0 0 0 0 0
Ligature2: "sitelen+-space" p i m e j a space
Ligature2: "sitelen" p i m e j a
EndChar

StartChar: pini.t
Encoding: 156 989520 100
Width: 1100
GlyphClass: 1
Flags: MW
LayerCount: 2
Fore
SplineSet
250 900 m 1,0,-1
 850 900 l 1,1,-1
 850 800 l 1,2,-1
 600 800 l 1,3,-1
 600 100 l 1,4,-1
 850 100 l 1,5,-1
 850 0 l 1,6,-1
 250 0 l 1,7,-1
 250 100 l 1,8,-1
 500 100 l 1,9,-1
 500 800 l 1,10,-1
 250 800 l 1,11,-1
 250 900 l 1,0,-1
EndSplineSet
MultipleSubs2: "cartouched sitelen" pini.t cartouche.body
Ligature2: "sitelen+-space" p i n i space
Ligature2: "sitelen" p i n i
EndChar

StartChar: pipi.t
Encoding: 157 989521 101
Width: 1100
GlyphClass: 1
Flags: MW
LayerCount: 2
Fore
SplineSet
500 750 m 1,0,-1
 600 750 l 1,1,-1
 600 625 l 1,2,-1
 750 625 l 1,3,-1
 750 525 l 1,4,-1
 600 525 l 1,5,-1
 600 425 l 1,6,-1
 750 425 l 1,7,-1
 750 325 l 1,8,-1
 600 325 l 1,9,-1
 600 225 l 1,10,-1
 750 225 l 1,11,-1
 750 125 l 1,12,-1
 600 125 l 1,13,-1
 600 0 l 1,14,-1
 500 0 l 1,15,-1
 500 125 l 1,16,-1
 350 125 l 1,17,-1
 350 225 l 1,18,-1
 500 225 l 1,19,-1
 500 325 l 1,20,-1
 350 325 l 1,21,-1
 350 425 l 1,22,-1
 500 425 l 1,23,-1
 500 525 l 1,24,-1
 350 525 l 1,25,-1
 350 625 l 1,26,-1
 500 625 l 1,27,-1
 500 750 l 1,0,-1
425 900 m 128,-1,29
 454 900 454 900 475 879.5 c 128,-1,30
 496 859 496 859 496 829.5 c 128,-1,31
 496 800 496 800 475 779.5 c 128,-1,32
 454 759 454 759 425 759 c 128,-1,33
 396 759 396 759 375 779.5 c 128,-1,34
 354 800 354 800 354 829.5 c 128,-1,35
 354 859 354 859 375 879.5 c 128,-1,28
 396 900 396 900 425 900 c 128,-1,29
675 900 m 128,-1,37
 704 900 704 900 725 879.5 c 128,-1,38
 746 859 746 859 746 829.5 c 128,-1,39
 746 800 746 800 725 779.5 c 128,-1,40
 704 759 704 759 675 759 c 128,-1,41
 646 759 646 759 625 779.5 c 128,-1,42
 604 800 604 800 604 829.5 c 128,-1,43
 604 859 604 859 625 879.5 c 128,-1,36
 646 900 646 900 675 900 c 128,-1,37
EndSplineSet
MultipleSubs2: "cartouched sitelen" pipi.t cartouche.body
LCarets2: 4 0 0 0 0
Ligature2: "sitelen+-space" p i p i space
Ligature2: "sitelen" p i p i
EndChar

StartChar: poka.t
Encoding: 158 989522 102
Width: 1100
GlyphClass: 1
Flags: MW
LayerCount: 2
Fore
SplineSet
850 450 m 128,-1,1
 850 481 850 481 872 503 c 128,-1,2
 894 525 894 525 925 525 c 128,-1,3
 956 525 956 525 978 503 c 128,-1,4
 1000 481 1000 481 1000 450 c 128,-1,5
 1000 419 1000 419 978 397 c 128,-1,6
 956 375 956 375 925 375 c 128,-1,7
 894 375 894 375 872 397 c 128,-1,0
 850 419 850 419 850 450 c 128,-1,1
100 650 m 1,8,-1
 199.999023438 650 l 1,9,-1
 199.999023438 349.998046875 l 1,10,-1
 700.000976562 349.998046875 l 1,11,-1
 700.000976562 650 l 1,12,-1
 800 650 l 1,13,-1
 800 249.999023438 l 1,14,-1
 100 249.999023438 l 1,15,-1
 100 650 l 1,8,-1
EndSplineSet
MultipleSubs2: "cartouched sitelen" poka.t cartouche.body
LCarets2: 4 0 0 0 0
Ligature2: "sitelen+-space" p o k a space
Ligature2: "sitelen" p o k a
EndChar

StartChar: poki.t
Encoding: 159 989523 103
Width: 1100
GlyphClass: 1
Flags: MW
LayerCount: 2
Fore
SplineSet
150 900 m 1,0,-1
 250 900 l 1,1,-1
 250 100 l 1,2,-1
 850 100 l 1,3,-1
 850 900 l 1,4,-1
 950 900 l 1,5,-1
 950 0 l 1,6,-1
 850 0 l 1,7,-1
 250 0 l 1,8,-1
 150 0 l 1,9,-1
 150 900 l 1,0,-1
EndSplineSet
MultipleSubs2: "cartouched sitelen" poki.t cartouche.body
Ligature2: "sitelen+-space" p o k i space
Ligature2: "sitelen" p o k i
EndChar

StartChar: pona.t
Encoding: 160 989524 104
Width: 1100
GlyphClass: 1
Flags: MW
LayerCount: 2
Fore
SplineSet
550 225 m 128,-1,1
 459 225 459 225 375.5 260.5 c 128,-1,2
 292 296 292 296 231.5 356.5 c 128,-1,3
 171 417 171 417 135.5 500.5 c 128,-1,4
 100 584 100 584 100 675 c 1,5,-1
 200 675 l 1,6,7
 200 580 200 580 247 499.5 c 128,-1,8
 294 419 294 419 374.5 372 c 128,-1,9
 455 325 455 325 550 325 c 128,-1,10
 645 325 645 325 725.5 372 c 128,-1,11
 806 419 806 419 853 499.5 c 128,-1,12
 900 580 900 580 900 675 c 1,13,14
 900 675 900 675 1000 675 c 1,15,16
 1000 584 1000 584 964.5 500.5 c 132,-1,17
 929 417 929 417 868.5 356.5 c 128,-1,18
 808 296 808 296 724.5 260.5 c 128,-1,0
 641 225 641 225 550 225 c 128,-1,1
EndSplineSet
MultipleSubs2: "cartouched sitelen" pona.t cartouche.body
Ligature2: "sitelen+-space" p o n a space
Ligature2: "sitelen" p o n a
EndChar

StartChar: pu.t
Encoding: 161 989525 105
Width: 1100
GlyphClass: 1
Flags: MW
LayerCount: 2
Fore
SplineSet
450 362 m 1,0,-1
 500 362 l 1,1,2
 500 342 500 342 514.5 327.5 c 128,-1,3
 529 313 529 313 550 313 c 128,-1,4
 571 313 571 313 585.5 327.5 c 128,-1,5
 600 342 600 342 600 362 c 1,6,-1
 650 362 l 1,7,8
 650 321 650 321 620.5 292 c 128,-1,9
 591 263 591 263 550 263 c 128,-1,10
 509 263 509 263 479.5 292 c 128,-1,11
 450 321 450 321 450 362 c 1,0,-1
550 500 m 128,-1,13
 493 500 493 500 452.5 459.5 c 128,-1,14
 412 419 412 419 412 362.5 c 128,-1,15
 412 306 412 306 452.5 265.5 c 128,-1,16
 493 225 493 225 550 225 c 128,-1,17
 607 225 607 225 647 265.5 c 128,-1,18
 687 306 687 306 687 362.5 c 128,-1,19
 687 419 687 419 647 459.5 c 128,-1,12
 607 500 607 500 550 500 c 128,-1,13
550 550 m 128,-1,21
 628 550 628 550 682.5 495 c 128,-1,22
 737 440 737 440 737 362.5 c 128,-1,23
 737 285 737 285 682.5 230 c 128,-1,24
 628 175 628 175 550 175 c 128,-1,25
 472 175 472 175 417 230 c 128,-1,26
 362 285 362 285 362 362.5 c 128,-1,27
 362 440 362 440 417 495 c 128,-1,20
 472 550 472 550 550 550 c 128,-1,21
675 725 m 1,28,-1
 729 725 l 1,29,-1
 679 600 l 1,30,-1
 625 600 l 1,31,-1
 675 725 l 1,28,-1
525 725 m 1,32,-1
 575 725 l 1,33,-1
 575 600 l 1,34,-1
 525 600 l 1,35,-1
 525 725 l 1,32,-1
371 725 m 1,36,-1
 425 725 l 1,37,-1
 475 600 l 1,38,-1
 421 600 l 1,39,-1
 371 725 l 1,36,-1
300 800 m 1,40,-1
 300 100 l 1,41,-1
 800 100 l 1,42,-1
 800 800 l 1,43,-1
 300 800 l 1,40,-1
200 900 m 1,44,-1
 900 900 l 1,45,-1
 900 0 l 1,46,-1
 200 0 l 1,47,-1
 200 900 l 1,44,-1
EndSplineSet
MultipleSubs2: "cartouched sitelen" pu.t cartouche.body
Ligature2: "sitelen+-space" p u space
Ligature2: "sitelen" p u
EndChar

StartChar: sama.t
Encoding: 162 989526 106
Width: 1100
GlyphClass: 1
Flags: MW
LayerCount: 2
Fore
SplineSet
200 350 m 1,0,-1
 900 350 l 1,1,-1
 900 250 l 1,2,-1
 200 250 l 1,3,-1
 200 350 l 1,0,-1
200 650 m 1,4,-1
 900 650 l 1,5,-1
 900 550 l 1,6,-1
 200 550 l 1,7,-1
 200 650 l 1,4,-1
EndSplineSet
MultipleSubs2: "cartouched sitelen" sama.t cartouche.body
Ligature2: "sitelen+-space" s a m a space
Ligature2: "sitelen" s a m a
EndChar

StartChar: seli.t
Encoding: 163 989527 107
Width: 1100
GlyphClass: 1
Flags: MW
LayerCount: 2
Fore
SplineSet
475 150 m 128,-1,1
 475 181 475 181 497 203 c 128,-1,2
 519 225 519 225 550 225 c 128,-1,3
 581 225 581 225 603 203 c 128,-1,4
 625 181 625 181 625 150 c 128,-1,5
 625 119 625 119 603 97 c 128,-1,6
 581 75 581 75 550 75 c 128,-1,7
 519 75 519 75 497 97 c 128,-1,0
 475 119 475 119 475 150 c 128,-1,1
909.53125 780.759765625 m 1,8,-1
 1000 738.15234375 l 1,9,-1
 765.662109375 240.573242188 l 1,10,-1
 675.193359375 283.1796875 l 1,11,-1
 909.53125 780.759765625 l 1,8,-1
100 738.15234375 m 1,12,-1
 190.46875 780.759765625 l 1,13,-1
 424.806640625 283.1796875 l 1,14,-1
 334.337890625 240.573242188 l 1,15,-1
 100 738.15234375 l 1,12,-1
500 850 m 1,16,-1
 600 850 l 1,17,-1
 600 300 l 1,18,-1
 500 300 l 1,19,-1
 500 850 l 1,16,-1
EndSplineSet
MultipleSubs2: "cartouched sitelen" seli.t cartouche.body
Ligature2: "sitelen+-space" s e l i space
Ligature2: "sitelen" s e l i
EndChar

StartChar: selo.t
Encoding: 164 989528 108
Width: 1100
GlyphClass: 1
Flags: MW
LayerCount: 2
Fore
SplineSet
100 700 m 1,0,-1
 1000 700 l 1,1,-1
 1000 200 l 1,2,-1
 900 200 l 1,3,-1
 900 600 l 1,4,-1
 775 600 l 1,5,-1
 775 200 l 1,6,-1
 675 200 l 1,7,-1
 675 600 l 1,8,-1
 425 600 l 1,9,-1
 425 201 l 1,10,-1
 325 201 l 1,11,-1
 325 600 l 1,12,-1
 200 600 l 1,13,-1
 200 200 l 1,14,-1
 100 200 l 1,15,-1
 100 700 l 1,0,-1
EndSplineSet
MultipleSubs2: "cartouched sitelen" selo.t cartouche.body
Ligature2: "sitelen+-space" s e l o space
Ligature2: "sitelen" s e l o
EndChar

StartChar: seme.t
Encoding: 165 989529 109
Width: 1100
GlyphClass: 1
Flags: MW
LayerCount: 2
Fore
SplineSet
549.997070312 900.000976562 m 0,0,1
 653.492500951 899.922604226 653.492500951 899.922604226 726.705724744 826.714319344 c 128,-1,2
 799.918948537 753.506034461 799.918948537 753.506034461 799.998046875 650 c 0,3,4
 799.989992011 591.285169187 799.989992011 591.285169187 773.482478342 538.282581205 c 128,-1,5
 746.974964673 485.279993223 746.974964673 485.279993223 700.030273438 450.059570312 c 2,6,-1
 660.295898438 419.606445312 l 2,7,8
 600.307088048 374.846709054 600.307088048 374.846709054 600 300.000976562 c 2,9,-1
 600 225 l 1,10,-1
 500.000976562 225 l 1,11,-1
 500.000976562 300.000976562 l 2,12,13
 500.187743918 358.934500133 500.187743918 358.934500133 526.677828221 411.578801332 c 128,-1,14
 553.167912525 464.223102532 553.167912525 464.223102532 600.3828125 499.4921875 c 2,15,-1
 639.966796875 530.043945312 l 1,16,17
 699.966447392 575.017698916 699.966447392 575.017698916 699.983467848 643.483475895 c 128,-1,18
 700.000488305 711.949252875 700.000488305 711.949252875 655.975446824 755.975480924 c 128,-1,19
 611.950405344 800.001708972 611.950405344 800.001708972 550.571829228 799.822066281 c 128,-1,20
 489.193253112 799.64242359 489.193253112 799.64242359 444.724532469 756.110200777 c 128,-1,21
 400.255811826 712.577977963 400.255811826 712.577977963 400.001953125 650 c 1,22,-1
 300.002929688 650 l 1,23,24
 300.23042292 721.642470366 300.23042292 721.642470366 336.610034312 779.813881208 c 128,-1,25
 372.989645704 837.985292051 372.989645704 837.985292051 429.780590688 868.858319312 c 128,-1,26
 486.571535671 899.731346574 486.571535671 899.731346574 549.997070312 900.000976562 c 0,0,1
475 75 m 128,-1,28
 475 106 475 106 497 128 c 128,-1,29
 519 150 519 150 550 150 c 128,-1,30
 581 150 581 150 603 128 c 128,-1,31
 625 106 625 106 625 75 c 128,-1,32
 625 44 625 44 603 22 c 128,-1,33
 581 0 581 0 550 0 c 128,-1,34
 519 0 519 0 497 22 c 128,-1,27
 475 44 475 44 475 75 c 128,-1,28
EndSplineSet
LCarets2: 4 0 0 0 0
MultipleSubs2: "cartouched sitelen" seme.t cartouche.body
Ligature2: "sitelen+-space" s e m e space
Ligature2: "sitelen" s e m e
EndChar

StartChar: sewi.t
Encoding: 166 989530 110
Width: 1100
GlyphClass: 1
Flags: MW
LayerCount: 2
Fore
SplineSet
850 900 m 1,0,-1
 950 900 l 1,1,-1
 950 0 l 1,2,-1
 850 0 l 1,3,-1
 850 900 l 1,0,-1
625 700 m 1,4,-1
 725 700 l 1,5,-1
 725 163 l 2,6,7
 725 95 725 95 677.5 47.5 c 128,-1,8
 630 0 630 0 563.5 0 c 128,-1,9
 497 0 497 0 450 46 c 1,10,11
 403 0 403 0 337.5 0 c 128,-1,12
 272 0 272 0 225 46 c 1,13,14
 178 0 178 0 112 0 c 1,15,16
 112 0 112 0 112 100 c 1,17,18
 138 100 138 100 156.5 118.5 c 128,-1,19
 175 137 175 137 175 163 c 2,20,-1
 175 300 l 1,21,-1
 275 300 l 1,22,-1
 275 163 l 2,23,24
 275 137 275 137 293.5 118.5 c 128,-1,25
 312 100 312 100 337.5 100 c 128,-1,26
 363 100 363 100 381.5 118.5 c 128,-1,27
 400 137 400 137 400 162 c 2,28,-1
 400 500 l 1,29,-1
 500 500 l 1,30,-1
 500 163 l 2,31,32
 500 137 500 137 518.5 118.5 c 128,-1,33
 537 100 537 100 562.5 100 c 128,-1,34
 588 100 588 100 606.5 118.5 c 128,-1,35
 625 137 625 137 625 163 c 2,36,-1
 625 700 l 1,4,-1
EndSplineSet
MultipleSubs2: "cartouched sitelen" sewi.t cartouche.body
Ligature2: "sitelen+-space" s e w i space
Ligature2: "sitelen" s e w i
EndChar

StartChar: sijelo.t
Encoding: 167 989531 111
Width: 1100
GlyphClass: 1
Flags: MW
LayerCount: 2
Fore
SplineSet
150 900 m 1,0,-1
 950 900 l 1,1,-1
 950 0 l 1,2,-1
 850 0 l 1,3,-1
 850 800 l 1,4,-1
 600 800 l 1,5,-1
 600 0 l 1,6,-1
 500 0 l 1,7,-1
 500 800 l 1,8,-1
 250 800 l 1,9,-1
 250 0 l 1,10,-1
 150 0 l 1,11,-1
 150 900 l 1,0,-1
EndSplineSet
MultipleSubs2: "cartouched sitelen" sijelo.t cartouche.body
Ligature2: "sitelen+-space" s i j e l o space
Ligature2: "sitelen" s i j e l o
EndChar

StartChar: sike.t
Encoding: 168 989532 112
Width: 1100
GlyphClass: 1
Flags: MW
LayerCount: 2
Fore
SplineSet
550 550 m 128,-1,1
 509 550 509 550 479.5 520.5 c 128,-1,2
 450 491 450 491 450 450 c 128,-1,3
 450 409 450 409 479.5 379.5 c 128,-1,4
 509 350 509 350 550 350 c 128,-1,5
 591 350 591 350 620.5 379.5 c 128,-1,6
 650 409 650 409 650 450 c 128,-1,7
 650 491 650 491 620.5 520.5 c 128,-1,0
 591 550 591 550 550 550 c 128,-1,1
550 650 m 128,-1,9
 633 650 633 650 691.5 591.5 c 128,-1,10
 750 533 750 533 750 450 c 128,-1,11
 750 367 750 367 691.5 308.5 c 128,-1,12
 633 250 633 250 550 250 c 128,-1,13
 467 250 467 250 408.5 308.5 c 128,-1,14
 350 367 350 367 350 450 c 128,-1,15
 350 533 350 533 408.5 591.5 c 128,-1,8
 467 650 467 650 550 650 c 128,-1,9
550 800 m 128,-1,17
 455 800 455 800 374.5 753 c 128,-1,18
 294 706 294 706 247 625.5 c 128,-1,19
 200 545 200 545 200 450 c 128,-1,20
 200 355 200 355 247 274.5 c 128,-1,21
 294 194 294 194 374.5 147 c 128,-1,22
 455 100 455 100 550 100 c 128,-1,23
 645 100 645 100 725.5 147 c 128,-1,24
 806 194 806 194 853 274.5 c 128,-1,25
 900 355 900 355 900 450 c 128,-1,26
 900 545 900 545 853 625.5 c 128,-1,27
 806 706 806 706 725.5 753 c 128,-1,16
 645 800 645 800 550 800 c 128,-1,17
550 900 m 128,-1,29
 641 900 641 900 724.5 864.5 c 128,-1,30
 808 829 808 829 868.5 768.5 c 128,-1,31
 929 708 929 708 964.5 624.5 c 128,-1,32
 1000 541 1000 541 1000 450 c 128,-1,33
 1000 359 1000 359 964.5 275.5 c 128,-1,34
 929 192 929 192 868.5 131.5 c 128,-1,35
 808 71 808 71 724.5 35.5 c 128,-1,36
 641 0 641 0 550 0 c 128,-1,37
 459 0 459 0 375.5 35.5 c 128,-1,38
 292 71 292 71 231.5 131.5 c 128,-1,39
 171 192 171 192 135.5 275.5 c 128,-1,40
 100 359 100 359 100 450 c 128,-1,41
 100 541 100 541 135.5 624.5 c 128,-1,42
 171 708 171 708 231.5 768.5 c 128,-1,43
 292 829 292 829 375.5 864.5 c 128,-1,28
 459 900 459 900 550 900 c 128,-1,29
EndSplineSet
MultipleSubs2: "cartouched sitelen" sike.t cartouche.body
LCarets2: 4 0 0 0 0
Ligature2: "sitelen+-space" s i k e space
Ligature2: "sitelen" s i k e
EndChar

StartChar: sin.t
Encoding: 169 989533 113
Width: 1100
GlyphClass: 1
Flags: MW
LayerCount: 2
Fore
SplineSet
100 400 m 1,0,-1
 425 400 l 1,1,-1
 425 300 l 1,2,-1
 100 300 l 1,3,-1
 100 400 l 1,0,-1
675 400 m 1,4,-1
 1000 400 l 1,5,-1
 1000 300 l 1,6,-1
 675 300 l 1,7,-1
 675 400 l 1,4,-1
500 750 m 1,8,-1
 600 750 l 1,9,-1
 600 475 l 1,10,-1
 500 475 l 1,11,-1
 500 750 l 1,8,-1
EndSplineSet
MultipleSubs2: "cartouched sitelen" sin.t cartouche.body
Ligature2: "sitelen+-space" s i n space
Ligature2: "sitelen" s i n
EndChar

StartChar: sina.t
Encoding: 170 989534 114
Width: 1100
GlyphClass: 1
Flags: MW
LayerCount: 2
Fore
SplineSet
550 100 m 128,-1,1
 591 100 591 100 620.5 129.5 c 128,-1,2
 650 159 650 159 650 200 c 128,-1,3
 650 241 650 241 620.5 270.5 c 128,-1,4
 591 300 591 300 550 300 c 128,-1,5
 509 300 509 300 479.5 270.5 c 128,-1,6
 450 241 450 241 450 200 c 128,-1,7
 450 159 450 159 479.5 129.5 c 128,-1,0
 509 100 509 100 550 100 c 128,-1,1
499 862 m 1,8,9
 418 665.285714286 418 665.285714286 418 450 c 0,10,11
 418 403 418 403 423 354 c 1,12,13
 478 400 478 400 555.5 400 c 128,-1,14
 633 400 633 400 691.5 341.5 c 128,-1,15
 750 283 750 283 750 200 c 128,-1,16
 750 117 750 117 691.5 58.5 c 128,-1,17
 633 0 633 0 557.5 0 c 128,-1,18
 482 0 482 0 427.5 42 c 128,-1,19
 373 84 373 84 356 150 c 0,20,21
 318 298 318 298 318 450 c 0,22,23
 318 682.933333333 318 682.933333333 406 900 c 1,24,-1
 499 862 l 1,8,9
EndSplineSet
MultipleSubs2: "cartouched sitelen" sina.t cartouche.body
Ligature2: "sitelen+-space" s i n a space
Ligature2: "sitelen" s i n a
EndChar

StartChar: sinpin.t
Encoding: 171 989535 115
Width: 1100
GlyphClass: 1
Flags: MW
LayerCount: 2
Fore
SplineSet
712.5 450 m 128,-1,1
 712.5 481.065673828 712.5 481.065673828 734.467163086 503.032836914 c 128,-1,2
 756.434326172 525 756.434326172 525 787.5 525 c 128,-1,3
 818.565673828 525 818.565673828 525 840.532836914 503.032836914 c 128,-1,4
 862.5 481.065673828 862.5 481.065673828 862.5 450 c 128,-1,5
 862.5 418.934326172 862.5 418.934326172 840.532836914 396.967163086 c 128,-1,6
 818.565673828 375 818.565673828 375 787.5 375 c 128,-1,7
 756.434326172 375 756.434326172 375 734.467163086 396.967163086 c 128,-1,0
 712.5 418.934326172 712.5 418.934326172 712.5 450 c 128,-1,1
262.499023438 900 m 1,8,-1
 662.5 900 l 1,9,-1
 662.5 -0.001953125 l 1,10,-1
 262.499023438 -0.001953125 l 1,11,-1
 262.499023438 99.9970703125 l 1,12,-1
 562.49609375 99.9970703125 l 1,13,-1
 562.49609375 800.000976562 l 1,14,-1
 262.499023438 800.000976562 l 1,15,-1
 262.499023438 900 l 1,8,-1
EndSplineSet
MultipleSubs2: "cartouched sitelen" sinpin.t cartouche.body
Ligature2: "sitelen+-space" s i n p i n space
Ligature2: "sitelen" s i n p i n
EndChar

StartChar: sitelen.t
Encoding: 172 989536 116
Width: 1100
GlyphClass: 1
Flags: MW
LayerCount: 2
Fore
SplineSet
746 521 m 0,0,1
 749 521 749 521 751 521 c 0,2,3
 780 521 780 521 801 500 c 128,-1,4
 822 479 822 479 822 450 c 128,-1,5
 822 421 822 421 801 400 c 128,-1,6
 780 379 780 379 751 379 c 128,-1,7
 722 379 722 379 701 400 c 128,-1,8
 680 421 680 421 680 450 c 128,-1,9
 680 479 680 479 701 500 c 0,10,11
 720 519 720 519 746 521 c 0,0,1
545 521 m 0,12,13
 548 521 548 521 550 521 c 0,14,15
 579 521 579 521 600 500 c 128,-1,16
 621 479 621 479 621 450 c 128,-1,17
 621 421 621 421 600 400 c 128,-1,18
 579 379 579 379 550 379 c 128,-1,19
 521 379 521 379 500 400 c 128,-1,20
 479 421 479 421 479 450 c 128,-1,21
 479 479 479 479 500 500 c 0,22,23
 519 519 519 519 545 521 c 0,12,13
346 521 m 0,24,25
 349 521 349 521 351 521 c 0,26,27
 380 521 380 521 401 500.5 c 128,-1,28
 422 480 422 480 422 450.5 c 128,-1,29
 422 421 422 421 401 400.5 c 128,-1,30
 380 380 380 380 351 380 c 128,-1,31
 322 380 322 380 301 400.5 c 128,-1,32
 280 421 280 421 280 450.5 c 128,-1,33
 280 480 280 480 301 501 c 0,34,35
 320 519 320 519 346 521 c 0,24,25
225 800 m 1,36,-1
 225 100 l 1,37,-1
 875 100 l 1,38,-1
 875 800 l 1,39,-1
 225 800 l 1,36,-1
125 900 m 1,40,-1
 975 900 l 1,41,-1
 975 100 l 1,42,-1
 975 0 l 1,43,-1
 125 0 l 1,44,-1
 125 100 l 1,45,-1
 125 800 l 1,46,-1
 125 900 l 1,40,-1
EndSplineSet
MultipleSubs2: "cartouched sitelen" sitelen.t cartouche.body
Ligature2: "sitelen+-space" s i t e l e n space
Ligature2: "sitelen" s i t e l e n
EndChar

StartChar: sona.t
Encoding: 173 989537 117
Width: 1100
GlyphClass: 1
Flags: MW
LayerCount: 2
Fore
SplineSet
375 500 m 1,0,-1
 375 100 l 1,1,-1
 725 100 l 1,2,-1
 725 500 l 1,3,-1
 375 500 l 1,0,-1
275 600 m 1,4,-1
 825 600 l 1,5,-1
 825 100 l 1,6,-1
 825 0 l 1,7,-1
 275 0 l 1,8,-1
 275 600 l 1,4,-1
750 900 m 1,9,-1
 855 900 l 1,10,-1
 780 675 l 1,11,-1
 675 675 l 1,12,-1
 750 900 l 1,9,-1
500 900 m 1,13,-1
 600 900 l 1,14,-1
 600 675 l 1,15,-1
 500 675 l 1,16,-1
 500 900 l 1,13,-1
245 900 m 1,17,-1
 350 900 l 1,18,-1
 425 675 l 1,19,-1
 320 675 l 1,20,-1
 245 900 l 1,17,-1
EndSplineSet
MultipleSubs2: "cartouched sitelen" sona.t cartouche.body
Ligature2: "sitelen+-space" s o n a space
Ligature2: "sitelen" s o n a
EndChar

StartChar: soweli.t
Encoding: 174 989538 118
Width: 1100
GlyphClass: 1
Flags: MW
LayerCount: 2
Fore
SplineSet
600 554.5 m 128,-1,1
 579 534 579 534 550 534 c 128,-1,2
 521 534 521 534 500 554.5 c 128,-1,3
 479 575 479 575 479 604.5 c 128,-1,4
 479 634 479 634 500 654.5 c 128,-1,5
 521 675 521 675 550 675 c 128,-1,6
 579 675 579 675 600 654.5 c 128,-1,7
 621 634 621 634 621 604.5 c 128,-1,0
 621 575 621 575 600 554.5 c 128,-1,1
800 554.5 m 128,-1,9
 779 534 779 534 750 534 c 128,-1,10
 721 534 721 534 700 554.5 c 128,-1,11
 679 575 679 575 679 604.5 c 128,-1,12
 679 634 679 634 700 654.5 c 128,-1,13
 721 675 721 675 750 675 c 128,-1,14
 779 675 779 675 800 654.5 c 128,-1,15
 821 634 821 634 821 604.5 c 128,-1,8
 821 575 821 575 800 554.5 c 128,-1,9
150 375 m 1,16,-1
 250 375 l 1,17,-1
 250 25 l 1,18,-1
 150 25 l 1,19,-1
 150 375 l 1,16,-1
325 375 m 1,20,-1
 425 375 l 1,21,-1
 425 25 l 1,22,-1
 325 25 l 1,23,-1
 325 375 l 1,20,-1
500 375 m 1,24,-1
 600 375 l 1,25,-1
 600 25 l 1,26,-1
 500 25 l 1,27,-1
 500 375 l 1,24,-1
725 775 m 2,28,-1
 150 775 l 1,29,-1
 150 875 l 1,30,-1
 725 875 l 2,31,32
 849 875 849 875 937 787 c 128,-1,33
 1025 699 1025 699 1025 575 c 128,-1,34
 1025 451 1025 451 937 363 c 0,35,36
 867.293994133 293.293994133 867.293994133 293.293994133 775 278.803070697 c 1,37,-1
 775 25 l 1,38,-1
 675 25 l 1,39,-1
 675 375 l 1,40,-1
 725 375 l 2,41,42
 808 375 808 375 866.5 433.5 c 128,-1,43
 925 492 925 492 925 575 c 128,-1,44
 925 658 925 658 866.5 716.5 c 128,-1,45
 808 775 808 775 725 775 c 2,28,-1
EndSplineSet
MultipleSubs2: "cartouched sitelen" soweli.t cartouche.body
Ligature2: "sitelen+-space" s o w e l i space
Ligature2: "sitelen" s o w e l i
EndChar

StartChar: suli.t
Encoding: 175 989539 119
Width: 1100
GlyphClass: 1
Flags: MW
LayerCount: 2
Fore
SplineSet
499 0 m 1,0,1
 499 0 499 0 499 3 c 0,2,3
 507.20696779 296.399098507 507.20696779 296.399098507 362 550 c 0,4,5
 272 707 272 707 134 823 c 1,6,-1
 199 900 l 5,7,8
 451.274725275 687.558126084 451.274725275 687.558126084 550 368 c 1,9,10
 645.01221363 683.851412879 645.01221363 683.851412879 900 900 c 1,11,-1
 965 823 l 1,12,13
 827 707 827 707 746.5 566.5 c 0,14,15
 590.799001146 294.748567218 590.799001146 294.748567218 601 3 c 1,16,-1
 601 0 l 1,17,18
 601 0 601 0 499 0 c 1,0,1
EndSplineSet
LCarets2: 4 0 0 0 0
MultipleSubs2: "cartouched sitelen" suli.t cartouche.body
Ligature2: "sitelen+-space" s u l i space
Ligature2: "sitelen" s u l i
EndChar

StartChar: suno.t
Encoding: 176 989540 120
Width: 1100
GlyphClass: 1
Flags: MW
LayerCount: 2
Fore
SplineSet
1000 500 m 1,0,-1
 1000 400 l 1,1,-1
 846.196929303 400 l 1,2,3
 831.706005867 307.706005867 831.706005867 307.706005867 762 238 c 128,-1,4
 692.293994133 168.293994133 692.293994133 168.293994133 600 153.803070697 c 1,5,-1
 600 0 l 1,6,-1
 500 0 l 1,7,-1
 500 153.803070697 l 1,8,9
 407.706005867 168.293994133 407.706005867 168.293994133 338 238 c 128,-1,10
 268.293994133 307.706005867 268.293994133 307.706005867 253.803070697 400 c 1,11,-1
 100 400 l 1,12,-1
 100 500 l 1,13,-1
 253.803070697 500 l 1,14,15
 268.293994133 592.293994133 268.293994133 592.293994133 338 662 c 128,-1,16
 407.706005867 731.706005867 407.706005867 731.706005867 500 746.196929303 c 1,17,-1
 500 900 l 1,18,-1
 600 900 l 1,19,-1
 600 746.196929303 l 1,20,21
 692.293994133 731.706005867 692.293994133 731.706005867 762 662 c 128,-1,22
 831.706005867 592.293994133 831.706005867 592.293994133 846.196929303 500 c 1,23,-1
 1000 500 l 1,0,-1
350 450 m 128,-1,25
 350 367 350 367 408.5 308.5 c 128,-1,26
 467 250 467 250 550 250 c 128,-1,27
 633 250 633 250 691.5 308.5 c 128,-1,28
 750 367 750 367 750 450 c 128,-1,29
 750 533 750 533 691.5 591.5 c 128,-1,30
 633 650 633 650 550 650 c 128,-1,31
 467 650 467 650 408.5 591.5 c 128,-1,24
 350 533 350 533 350 450 c 128,-1,25
EndSplineSet
MultipleSubs2: "cartouched sitelen" suno.t cartouche.body
Ligature2: "sitelen+-space" s u n o space
Ligature2: "sitelen" s u n o
EndChar

StartChar: supa.t
Encoding: 177 989541 121
Width: 1100
GlyphClass: 1
Flags: MW
LayerCount: 2
Fore
SplineSet
100 625 m 1,0,-1
 1000 625 l 1,1,-1
 1000 525 l 1,2,-1
 850.364963504 525 l 1,3,-1
 875 275 l 1,4,-1
 774 275 l 1,5,-1
 749.378787879 525 l 1,6,-1
 350.621212121 525 l 1,7,-1
 326 275 l 1,8,-1
 225 275 l 1,9,-1
 249.635036496 525 l 1,10,-1
 100 525 l 1,11,-1
 100 625 l 1,0,-1
EndSplineSet
MultipleSubs2: "cartouched sitelen" supa.t cartouche.body
Ligature2: "sitelen+-space" s u p a space
Ligature2: "sitelen" s u p a
EndChar

StartChar: suwi.t
Encoding: 178 989542 122
Width: 1100
GlyphClass: 1
Flags: MW
LayerCount: 2
Fore
SplineSet
475 250 m 128,-1,1
 475 281 475 281 497 303 c 128,-1,2
 519 325 519 325 550 325 c 128,-1,3
 581 325 581 325 603 303 c 128,-1,4
 625 281 625 281 625 250 c 128,-1,5
 625 219 625 219 603 197 c 128,-1,6
 581 175 581 175 550 175 c 128,-1,7
 519 175 519 175 497 197 c 128,-1,0
 475 219 475 219 475 250 c 128,-1,1
800.001953125 750.001953125 m 1,8,-1
 1000 450 l 1,9,-1
 879.810546875 450 l 1,10,-1
 799.997070312 569.723632812 l 1,11,-1
 720.182617188 450 l 1,12,-1
 600.00390625 450 l 1,13,-1
 800.001953125 750.001953125 l 1,8,-1
300.001953125 750.000976562 m 1,14,-1
 500.000976562 449.998046875 l 1,15,-1
 379.811523438 449.998046875 l 1,16,-1
 299.997070312 569.72265625 l 1,17,-1
 220.182617188 449.998046875 l 1,18,-1
 100.00390625 449.998046875 l 1,19,-1
 300.001953125 750.000976562 l 1,14,-1
EndSplineSet
MultipleSubs2: "cartouched sitelen" suwi.t cartouche.body
Ligature2: "sitelen+-space" s u w i space
Ligature2: "sitelen" s u w i
EndChar

StartChar: tan.t
Encoding: 179 989543 123
Width: 1100
GlyphClass: 1
Flags: MW
LayerCount: 2
Fore
SplineSet
100 675 m 1,0,-1
 200 675 l 1,1,-1
 200 507 l 1,2,3
 264 586 264 586 356 630.5 c 128,-1,4
 448 675 448 675 545 675 c 128,-1,5
 642 675 642 675 725 639.5 c 128,-1,6
 808 604 808 604 868.5 543.5 c 128,-1,7
 929 483 929 483 964.5 400 c 128,-1,8
 1000 317 1000 317 1000 225 c 1,9,-1
 900 225 l 1,10,11
 900 320 900 320 853 400.5 c 128,-1,12
 806 481 806 481 725.5 528 c 128,-1,13
 645 575 645 575 554.5 575 c 128,-1,14
 464 575 464 575 388.5 535 c 128,-1,15
 313 495 313 495 264 425 c 1,16,-1
 450 425 l 1,17,-1
 450 325 l 1,18,-1
 100 325 l 1,19,-1
 100 425 l 1,20,-1
 100 675 l 1,0,-1
EndSplineSet
MultipleSubs2: "cartouched sitelen" tan.t cartouche.body
Ligature2: "sitelen+-space" t a n space
Ligature2: "sitelen" t a n
EndChar

StartChar: taso.t
Encoding: 180 989544 124
Width: 1100
GlyphClass: 1
Flags: MW
LayerCount: 2
Fore
SplineSet
600 900 m 1,0,-1
 700 900 l 1,1,-1
 700 500 l 1,2,-1
 700 400 l 1,3,-1
 700 0 l 1,4,-1
 600 0 l 1,5,-1
 600 400 l 1,6,-1
 400 400 l 1,7,-1
 400 500 l 1,8,-1
 600 500 l 1,9,-1
 600 900 l 1,0,-1
EndSplineSet
MultipleSubs2: "cartouched sitelen" taso.t cartouche.body
Ligature2: "sitelen+-space" t a s o space
Ligature2: "sitelen" t a s o
EndChar

StartChar: tawa.t
Encoding: 181 989545 125
Width: 1100
GlyphClass: 1
Flags: MW
LayerCount: 2
Fore
SplineSet
550 900 m 1,0,-1
 770 129 l 1,1,-1
 968 195 l 1,2,-1
 1000 100 l 1,3,-1
 797 32 l 1,4,-1
 700 0 l 1,5,-1
 673 96 l 1,6,-1
 520 642 l 1,7,-1
 247 157 l 1,8,-1
 432 95 l 1,9,-1
 400 0 l 1,10,-1
 197 68 l 1,11,-1
 100 100 l 1,12,-1
 150 189 l 1,13,-1
 550 900 l 1,0,-1
EndSplineSet
MultipleSubs2: "cartouched sitelen" tawa.t cartouche.body
Ligature2: "sitelen+-space" t a w a space
LCarets2: 3 0 0 0
Ligature2: "sitelen" t a w a
EndChar

StartChar: telo.t
Encoding: 182 989546 126
Width: 1100
GlyphClass: 1
Flags: MW
LayerCount: 2
Fore
SplineSet
440 670 m 2,0,1
 400 700 400 700 344 700 c 128,-1,2
 288 700 288 700 244 656 c 128,-1,3
 200 612 200 612 200 550 c 1,4,-1
 100 550 l 1,5,6
 100 654 100 654 173 727 c 128,-1,7
 246 800 246 800 339.5 800 c 128,-1,8
 433 800 433 800 500 750 c 2,9,-1
 660 630 l 2,10,11
 700 600 700 600 756 600 c 128,-1,12
 812 600 812 600 856 644 c 128,-1,13
 900 688 900 688 900 750 c 1,14,-1
 1000 750 l 1,15,16
 1000 646 1000 646 927 573 c 128,-1,17
 854 500 854 500 760.5 500 c 128,-1,18
 667 500 667 500 600 550 c 2,19,-1
 440 670 l 2,0,1
440 270 m 2,20,21
 400 300 400 300 344 300 c 128,-1,22
 288 300 288 300 244 256 c 128,-1,23
 200 212 200 212 200 150 c 1,24,-1
 100 150 l 1,25,26
 100 254 100 254 173 327 c 128,-1,27
 246 400 246 400 339.5 400 c 128,-1,28
 433 400 433 400 500 350 c 2,29,-1
 660 230 l 2,30,31
 700 200 700 200 756 200 c 128,-1,32
 812 200 812 200 856 244 c 128,-1,33
 900 288 900 288 900 350 c 1,34,-1
 1000 350 l 1,35,36
 1000 246 1000 246 927 173 c 128,-1,37
 854 100 854 100 760.5 100 c 128,-1,38
 667 100 667 100 600 150 c 2,39,-1
 440 270 l 2,20,21
EndSplineSet
MultipleSubs2: "cartouched sitelen" telo.t cartouche.body
Ligature2: "sitelen+-space" t e l o space
Ligature2: "sitelen" t e l o
EndChar

StartChar: tenpo.t
Encoding: 183 989547 127
Width: 1100
GlyphClass: 1
Flags: MW
LayerCount: 2
Fore
SplineSet
500 725 m 1,0,-1
 600 725 l 1,1,-1
 600 475 l 1,2,-1
 750 475 l 1,3,-1
 750 375 l 1,4,-1
 500 375 l 1,5,-1
 500 725 l 1,0,-1
550 800 m 128,-1,7
 455 800 455 800 374.5 753 c 128,-1,8
 294 706 294 706 247 625.5 c 128,-1,9
 200 545 200 545 200 450 c 128,-1,10
 200 355 200 355 247 274.5 c 128,-1,11
 294 194 294 194 374.5 147 c 128,-1,12
 455 100 455 100 550 100 c 128,-1,13
 645 100 645 100 725.5 147 c 128,-1,14
 806 194 806 194 853 274.5 c 128,-1,15
 900 355 900 355 900 450 c 128,-1,16
 900 545 900 545 853 625.5 c 128,-1,17
 806 706 806 706 725.5 753 c 128,-1,6
 645 800 645 800 550 800 c 128,-1,7
550 900 m 128,-1,19
 642 900 642 900 725 864.5 c 128,-1,20
 808 829 808 829 868.5 768.5 c 128,-1,21
 929 708 929 708 964.5 625 c 128,-1,22
 1000 542 1000 542 1000 450 c 128,-1,23
 1000 358 1000 358 964.5 275 c 128,-1,24
 929 192 929 192 868.5 131.5 c 128,-1,25
 808 71 808 71 725 35.5 c 128,-1,26
 642 0 642 0 550 0 c 128,-1,27
 458 0 458 0 375 35.5 c 128,-1,28
 292 71 292 71 231.5 131.5 c 128,-1,29
 171 192 171 192 135.5 275 c 128,-1,30
 100 358 100 358 100 450 c 128,-1,31
 100 542 100 542 135.5 625 c 128,-1,32
 171 708 171 708 231.5 768.5 c 128,-1,33
 292 829 292 829 375 864.5 c 128,-1,18
 458 900 458 900 550 900 c 128,-1,19
EndSplineSet
MultipleSubs2: "cartouched sitelen" tenpo.t cartouche.body
Ligature2: "sitelen+-space" t e n p o space
Ligature2: "sitelen" t e n p o
EndChar

StartChar: toki.t
Encoding: 184 989548 128
Width: 1100
GlyphClass: 1
Flags: MW
LayerCount: 2
Fore
SplineSet
550 500 m 128,-1,1
 467 500 467 500 408.5 441.5 c 128,-1,2
 350 383 350 383 350 300 c 128,-1,3
 350 217 350 217 408.5 158.5 c 128,-1,4
 467 100 467 100 550 100 c 128,-1,5
 633 100 633 100 691.5 158.5 c 128,-1,6
 750 217 750 217 750 300 c 128,-1,7
 750 383 750 383 691.5 441.5 c 128,-1,0
 633 500 633 500 550 500 c 128,-1,1
550 600 m 128,-1,9
 674 600 674 600 762 512 c 128,-1,10
 850 424 850 424 850 300 c 128,-1,11
 850 176 850 176 762 88 c 128,-1,12
 674 0 674 0 550 0 c 128,-1,13
 426 0 426 0 338 88 c 128,-1,14
 250 176 250 176 250 300 c 128,-1,15
 250 424 250 424 338 512 c 128,-1,8
 426 600 426 600 550 600 c 128,-1,9
350 900 m 1,16,-1
 425 675 l 1,17,-1
 320 675 l 1,18,-1
 245 900 l 1,19,-1
 350 900 l 1,16,-1
750 900 m 1,20,-1
 855 900 l 1,21,-1
 780 675 l 1,22,-1
 675 675 l 1,23,-1
 750 900 l 1,20,-1
500 900 m 1,24,-1
 600 900 l 1,25,-1
 600 675 l 1,26,-1
 500 675 l 1,27,-1
 500 900 l 1,24,-1
EndSplineSet
MultipleSubs2: "cartouched sitelen" toki.t cartouche.body
Ligature2: "sitelen+-space" t o k i space
Ligature2: "sitelen" t o k i
EndChar

StartChar: tomo.t
Encoding: 185 989549 129
Width: 1100
GlyphClass: 1
Flags: MW
LayerCount: 2
Fore
SplineSet
550 767 m 1,0,-1
 250 505 l 1,1,-1
 250 100 l 1,2,-1
 850 100 l 1,3,-1
 850 505 l 1,4,-1
 550 767 l 1,0,-1
550 900 m 1,5,-1
 950 550 l 1,6,-1
 950 0 l 1,7,-1
 150 0 l 1,8,-1
 150 550 l 1,9,-1
 550 900 l 1,5,-1
EndSplineSet
MultipleSubs2: "cartouched sitelen" tomo.t cartouche.body
Ligature2: "sitelen+-space" t o m o space
Ligature2: "sitelen" t o m o
EndChar

StartChar: tu.t
Encoding: 186 989550 130
Width: 1100
GlyphClass: 1
Flags: MW
LayerCount: 2
Fore
SplineSet
650 850 m 1,0,-1
 750 850 l 1,1,-1
 750 50 l 1,2,-1
 650 50 l 1,3,-1
 650 850 l 1,0,-1
350 850 m 1,4,-1
 450 850 l 1,5,-1
 450 50 l 1,6,-1
 350 50 l 1,7,-1
 350 850 l 1,4,-1
EndSplineSet
MultipleSubs2: "cartouched sitelen" tu.t cartouche.body
Ligature2: "sitelen+-space" t u space
Ligature2: "sitelen" t u
EndChar

StartChar: unpa.t
Encoding: 187 989551 131
Width: 1100
GlyphClass: 1
Flags: MW
LayerCount: 2
Fore
SplineSet
318 470 m 1,0,1
 272 496 272 496 245 530.5 c 128,-1,2
 218 565 218 565 211 598.5 c 0,3,4
 196.100766058 669.803476724 196.100766058 669.803476724 239.707245774 725.401738362 c 128,-1,5
 283.31372549 781 283.31372549 781 347.656862745 781 c 128,-1,6
 412 781 412 781 479 723 c 1,7,8
 361 595 361 595 318 470 c 1,0,1
690 432 m 1,9,10
 550 392 550 392 410 432 c 1,11,12
 446 539 446 539 550 653 c 1,13,14
 654 539 654 539 690 432 c 1,9,10
550 125 m 128,-1,16
 486 125 486 125 437.5 182 c 128,-1,17
 389 239 389 239 392 334 c 1,18,19
 550 291 550 291 708 334 c 1,20,21
 711 239 711 239 662.5 182 c 128,-1,15
 614 125 614 125 550 125 c 128,-1,16
550 25 m 128,-1,23
 604 25 604 25 654 50 c 128,-1,24
 704 75 704 75 740.5 119 c 128,-1,25
 777 163 777 163 795.5 229 c 128,-1,26
 814 295 814 295 805 370 c 1,27,28
 927 429 927 429 971 530 c 0,29,30
 992 579 992 579 992 632 c 0,31,32
 992 735 992 735 920 808 c 128,-1,33
 848 881 848 881 747 881 c 128,-1,34
 646 881 646 881 550 794 c 1,35,36
 454 881 454 881 353 881 c 128,-1,37
 252 881 252 881 180 808 c 128,-1,38
 108 735 108 735 108 632 c 0,39,40
 108 554 108 554 154.5 484.5 c 128,-1,41
 201 415 201 415 295 370 c 1,42,43
 286 295 286 295 304.5 229 c 128,-1,44
 323 163 323 163 359.5 119 c 128,-1,45
 396 75 396 75 446 50 c 128,-1,22
 496 25 496 25 550 25 c 128,-1,23
621 723 m 1,46,47
 688 781 688 781 752.343137255 781 c 128,-1,48
 816.68627451 781 816.68627451 781 860.292754226 725.401738362 c 128,-1,49
 903.899233942 669.803476724 903.899233942 669.803476724 889 598.5 c 0,50,51
 882 565 882 565 855 530.5 c 128,-1,52
 828 496 828 496 782 470 c 1,53,54
 739 595 739 595 621 723 c 1,46,47
EndSplineSet
MultipleSubs2: "cartouched sitelen" unpa.t cartouche.body
Ligature2: "sitelen+-space" u n p a space
Ligature2: "sitelen" u n p a
EndChar

StartChar: uta.t
Encoding: 188 989552 132
Width: 1100
GlyphClass: 1
Flags: MW
LayerCount: 2
Fore
SplineSet
199.998046875 675 m 1,0,-1
 900.001953125 675 l 1,1,-1
 900.001953125 624.998046875 l 2,2,3
 900.001953125 529.919890827 900.001953125 529.919890827 853.165102849 449.294216422 c 128,-1,4
 806.328252573 368.668542018 806.328252573 368.668542018 725.70175913 321.833062224 c 128,-1,5
 645.075265687 274.997582429 645.075265687 274.997582429 549.997070312 274.999023438 c 128,-1,6
 454.920330473 274.999023438 454.920330473 274.999023438 374.295186785 321.835021548 c 128,-1,7
 293.670043097 368.671019659 293.670043097 368.671019659 246.834044986 449.296163347 c 128,-1,8
 199.998046875 529.921307036 199.998046875 529.921307036 199.998046875 624.998046875 c 2,9,-1
 199.998046875 675 l 1,0,-1
305.697265625 574.99609375 m 1,10,11
 323.48048196 487.876644268 323.48048196 487.876644268 392.28116756 431.552335721 c 128,-1,12
 461.081853159 375.228027173 461.081853159 375.228027173 550.082417201 375.120727451 c 128,-1,13
 639.082981243 375.01342773 639.082981243 375.01342773 708.083846363 431.361925458 c 128,-1,14
 777.084711483 487.710423186 777.084711483 487.710423186 794.90234375 574.99609375 c 1,15,-1
 305.697265625 574.99609375 l 1,10,11
475 150 m 128,-1,17
 475 181 475 181 497 203 c 128,-1,18
 519 225 519 225 550 225 c 128,-1,19
 581 225 581 225 603 203 c 128,-1,20
 625 181 625 181 625 150 c 128,-1,21
 625 119 625 119 603 97 c 128,-1,22
 581 75 581 75 550 75 c 128,-1,23
 519 75 519 75 497 97 c 128,-1,16
 475 119 475 119 475 150 c 128,-1,17
EndSplineSet
MultipleSubs2: "cartouched sitelen" uta.t cartouche.body
Ligature2: "sitelen+-space" u t a space
Ligature2: "sitelen" u t a
EndChar

StartChar: utala.t
Encoding: 189 989553 133
Width: 1100
GlyphClass: 1
Flags: MW
LayerCount: 2
Fore
SplineSet
783 900 m 1,0,-1
 868 848 l 1,1,-1
 608.406389595 423.028220804 l 1,2,-1
 741 206 l 1,3,-1
 861 445 l 1,4,-1
 950 400 l 1,5,-1
 750 0 l 1,6,-1
 550 327.413127413 l 1,7,-1
 350 0 l 1,8,-1
 150 400 l 1,9,-1
 239 445 l 1,10,-1
 359 206 l 1,11,-1
 491.593610405 423.028220804 l 1,12,-1
 232 848 l 1,13,-1
 317 900 l 1,14,-1
 550 518.627358491 l 1,15,-1
 783 900 l 1,0,-1
EndSplineSet
MultipleSubs2: "cartouched sitelen" utala.t cartouche.body
Ligature2: "sitelen+-space" u t a l a space
Ligature2: "sitelen" u t a l a
EndChar

StartChar: walo.t
Encoding: 190 989554 134
Width: 1100
GlyphClass: 1
Flags: MW
LayerCount: 2
Fore
SplineSet
838 101 m 1,0,-1
 550 676 l 1,1,-1
 262 101 l 1,2,-1
 838 101 l 1,0,-1
550 900 m 1,3,-1
 735 529 l 1,4,-1
 955 639 l 1,5,-1
 1000 550 l 1,6,-1
 780 440 l 1,7,-1
 1000 0 l 1,8,-1
 100 0 l 1,9,-1
 320 440 l 1,10,-1
 100 550 l 1,11,-1
 145 639 l 1,12,-1
 365 529 l 1,13,-1
 550 900 l 1,3,-1
EndSplineSet
MultipleSubs2: "cartouched sitelen" walo.t cartouche.body
Ligature2: "sitelen+-space" w a l o space
Ligature2: "sitelen" w a l o
EndChar

StartChar: wan.t
Encoding: 191 989555 135
Width: 1100
GlyphClass: 1
Flags: MW
LayerCount: 2
Fore
SplineSet
525 900 m 1,0,-1
 625 900 l 1,1,-1
 625 0 l 1,2,-1
 525 0 l 1,3,-1
 525 700 l 1,4,5
 458 650 458 650 375 650 c 1,6,7
 375 650 375 650 375 750 c 1,8,9
 437 750 437 750 481 794 c 128,-1,10
 525 838 525 838 525 900 c 1,0,-1
EndSplineSet
MultipleSubs2: "cartouched sitelen" wan.t cartouche.body
Ligature2: "sitelen+-space" w a n space
Ligature2: "sitelen" w a n
EndChar

StartChar: waso.t
Encoding: 192 989556 136
Width: 1100
GlyphClass: 1
Flags: MW
LayerCount: 2
Fore
SplineSet
625 900 m 1,0,-1
 875 300 l 1,1,-1
 767 300 l 1,2,-1
 450 300 l 1,3,-1
 450 0 l 1,4,-1
 350 0 l 1,5,-1
 350 300 l 1,6,-1
 350 400 l 1,7,-1
 450 400 l 1,8,-1
 725 400 l 1,9,-1
 533 862 l 1,10,-1
 625 900 l 1,0,-1
575 495.5 m 128,-1,12
 554 475 554 475 525 475 c 128,-1,13
 496 475 496 475 475 495.5 c 128,-1,14
 454 516 454 516 454 545.5 c 128,-1,15
 454 575 454 575 475 595.5 c 128,-1,16
 496 616 496 616 525 616 c 128,-1,17
 554 616 554 616 575 595.5 c 128,-1,18
 596 575 596 575 596 545.5 c 128,-1,11
 596 516 596 516 575 495.5 c 128,-1,12
375 495.5 m 128,-1,20
 354 475 354 475 325 475 c 128,-1,21
 296 475 296 475 275 495.5 c 128,-1,22
 254 516 254 516 254 545.5 c 128,-1,23
 254 575 254 575 275 595.5 c 128,-1,24
 296 616 296 616 325 616 c 128,-1,25
 354 616 354 616 375 595.5 c 128,-1,26
 396 575 396 575 396 545.5 c 128,-1,19
 396 516 396 516 375 495.5 c 128,-1,20
EndSplineSet
MultipleSubs2: "cartouched sitelen" waso.t cartouche.body
Ligature2: "sitelen+-space" w a s o space
Ligature2: "sitelen" w a s o
EndChar

StartChar: wawa.t
Encoding: 193 989557 137
Width: 1100
GlyphClass: 1
Flags: MW
LayerCount: 2
Fore
SplineSet
550 500 m 128,-1,1
 488 500 488 500 444 456 c 128,-1,2
 400 412 400 412 400 350 c 128,-1,3
 400 288 400 288 444 244 c 128,-1,4
 488 200 488 200 550 200 c 128,-1,5
 612 200 612 200 656 244 c 128,-1,6
 700 288 700 288 700 350 c 128,-1,7
 700 412 700 412 656 456 c 128,-1,0
 612 500 612 500 550 500 c 128,-1,1
550 600 m 128,-1,9
 653 600 653 600 726.5 526.5 c 128,-1,10
 800 453 800 453 800 350 c 128,-1,11
 800 247 800 247 726.5 173.5 c 128,-1,12
 653 100 653 100 550 100 c 128,-1,13
 447 100 447 100 373.5 173.5 c 128,-1,14
 300 247 300 247 300 350 c 128,-1,15
 300 453 300 453 373.5 526.5 c 128,-1,8
 447 600 447 600 550 600 c 128,-1,9
201 800 m 1,16,-1
 276 300 l 1,17,-1
 174 300 l 1,18,-1
 99 800 l 1,19,-1
 201 800 l 1,16,-1
899 800 m 1,20,-1
 1000 800 l 1,21,-1
 925 300 l 1,22,-1
 824 300 l 1,23,-1
 899 800 l 1,20,-1
EndSplineSet
MultipleSubs2: "cartouched sitelen" wawa.t cartouche.body
Ligature2: "sitelen+-space" w a w a space
Ligature2: "sitelen" w a w a
EndChar

StartChar: weka.t
Encoding: 194 989558 138
Width: 1100
GlyphClass: 1
Flags: MW
LayerCount: 2
Fore
SplineSet
671 400 m 1,0,-1
 1000 71 l 1,1,-1
 929 0 l 1,2,-1
 600 329 l 1,3,-1
 671 400 l 1,0,-1
171 900 m 1,4,-1
 500 571 l 1,5,-1
 429 500 l 1,6,-1
 100 829 l 1,7,-1
 171 900 l 1,4,-1
429 400 m 1,8,-1
 500 329 l 1,9,-1
 171 0 l 1,10,-1
 100 71 l 1,11,-1
 429 400 l 1,8,-1
929 900 m 1,12,-1
 1000 829 l 1,13,-1
 671 500 l 1,14,-1
 600 571 l 1,15,-1
 929 900 l 1,12,-1
EndSplineSet
MultipleSubs2: "cartouched sitelen" weka.t cartouche.body
Ligature2: "sitelen+-space" w e k a space
Ligature2: "sitelen" w e k a
EndChar

StartChar: wile.t
Encoding: 195 989559 139
Width: 1100
GlyphClass: 1
Flags: MW
LayerCount: 2
Fore
SplineSet
292.25390625 810.646484375 m 1,0,-1
 358.26953125 735.529296875 l 1,1,2
 295.358451517 680.256156913 295.358451517 680.256156913 255.731426633 603.515362698 c 128,-1,3
 216.104401749 526.774568482 216.104401749 526.774568482 206.225229177 455.606211644 c 0,4,5
 186.9147159 316.495624243 186.9147159 316.495624243 234.01171875 249.162109375 c 0,6,7
 262.437182352 208.525519552 262.437182352 208.525519552 301.182709048 194.83551321 c 128,-1,8
 339.928235744 181.145506868 339.928235744 181.145506868 381.19921875 194.318359375 c 0,9,10
 397.46077524 199.508637721 397.46077524 199.508637721 424.208229873 225.519539116 c 0,11,12
 499.94140625 299.167226718 499.94140625 299.167226718 499.94140625 451.588867188 c 1,13,-1
 599.94140625 451.588867188 l 1,14,15
 599.94140625 357.577354797 599.94140625 357.577354797 637.44140625 276.588867188 c 0,16,17
 648.795406596 252.065367069 648.795406596 252.065367069 676.073034574 225.741041183 c 128,-1,18
 703.350662551 199.416715298 703.350662551 199.416715298 719.32421875 194.318359375 c 0,19,20
 760.595983136 181.145257468 760.595983136 181.145257468 799.443249236 194.872182404 c 0,21,22
 877.530909068 222.464946387 877.530909068 222.464946387 896.094726562 337.970703125 c 0,23,24
 903.628363102 384.83738465 903.628363102 384.83738465 893.76481277 455.887577942 c 128,-1,25
 883.901262438 526.937771233 883.901262438 526.937771233 844.482637617 603.641637641 c 128,-1,26
 805.064012795 680.345504049 805.064012795 680.345504049 742.25390625 735.529296875 c 1,27,-1
 808.26953125 810.646484375 l 1,28,29
 884.970225087 743.258868305 884.970225087 743.258868305 932.694484903 651.142007533 c 128,-1,30
 980.418744719 559.025146762 980.418744719 559.025146762 992.74988299 470.199263963 c 128,-1,31
 1005.08102126 381.373381164 1005.08102126 381.373381164 992.468043236 308.523188538 c 128,-1,32
 979.855065211 235.672995913 979.855065211 235.672995913 948.42578125 191.798828125 c 0,33,34
 899.595343979 123.6332428 899.595343979 123.6332428 830.668585832 99.8817452288 c 128,-1,35
 761.741827685 76.1302476576 761.741827685 76.1302476576 681.19921875 101.857421875 c 0,36,37
 648.444710132 112.320259192 648.444710132 112.320259192 610.010147412 150.532826601 c 128,-1,38
 571.575584692 188.745394009 571.575584692 188.745394009 553.163588544 230.916825996 c 0,39,40
 551.202155786 235.409355078 551.202155786 235.409355078 550.26171875 237.267578125 c 1,41,42
 549.323222373 235.412362172 549.323222373 235.412362172 547.36114914 230.918932547 c 0,43,44
 528.944263622 188.741618471 528.944263622 188.741618471 490.511495495 150.530938831 c 128,-1,45
 452.078727368 112.320259192 452.078727368 112.320259192 419.32421875 101.857421875 c 0,46,47
 338.781609815 76.1302476576 338.781609815 76.1302476576 269.969993679 99.8420694128 c 128,-1,48
 201.158377543 123.553891168 201.158377543 123.553891168 152.09765625 191.798828125 c 0,49,50
 120.247496769 236.102846147 120.247496769 236.102846147 107.575388531 308.573524147 c 128,-1,51
 94.9032802934 381.044202148 94.9032802934 381.044202148 107.245616299 469.954116462 c 128,-1,52
 119.587952305 558.864030775 119.587952305 558.864030775 167.519023533 651.015833271 c 128,-1,53
 215.450094761 743.167635767 215.450094761 743.167635767 292.25390625 810.646484375 c 1,0,-1
EndSplineSet
MultipleSubs2: "cartouched sitelen" wile.t cartouche.body
Ligature2: "sitelen+-space" w i l e space
LCarets2: 3 0 0 0
Ligature2: "sitelen" w i l e
EndChar

StartChar: namako.t
Encoding: 196 989560 140
Width: 1100
GlyphClass: 1
Flags: MW
LayerCount: 2
Fore
SplineSet
674.998046875 599.999023438 m 1,0,-1
 775.001953125 599.999023438 l 1,1,2
 774.951416585 491.226079609 774.951416585 491.226079609 735.860389356 387.263891827 c 128,-1,3
 696.769362126 283.301704046 696.769362126 283.301704046 625.140625 201.439453125 c 128,-1,4
 553.511432047 119.578250749 553.511432047 119.578250749 455.657904457 67.0334564538 c 128,-1,5
 357.804376867 14.488662159 357.804376867 14.488662159 250 -0 c 1,6,7
 324.998046875 295.302600974 324.998046875 295.302600974 324.998046875 599.999023438 c 1,8,-1
 425.002929688 599.999023438 l 1,9,10
 425.002929688 370.703472089 425.002929688 370.703472089 382.709343494 142.013306292 c 1,11,12
 478.842644317 186.116605865 478.842644317 186.116605865 549.883789062 267.306640625 c 0,13,14
 609.673896038 335.638086825 609.673896038 335.638086825 642.308505107 422.418876019 c 128,-1,15
 674.943114175 509.199665213 674.943114175 509.199665213 674.998046875 599.999023438 c 1,0,-1
244.595703125 900 m 1,16,-1
 350.004882812 900 l 1,17,-1
 425.002929688 674.99609375 l 1,18,-1
 319.598632812 674.99609375 l 1,19,-1
 244.595703125 900 l 1,16,-1
500.000976562 900 m 1,20,-1
 600 900 l 1,21,-1
 600 674.99609375 l 1,22,-1
 500.000976562 674.99609375 l 1,23,-1
 500.000976562 900 l 1,20,-1
750.000976562 900 m 1,24,-1
 855.411132812 900 l 1,25,-1
 780.407226562 674.99609375 l 1,26,-1
 675.002929688 674.99609375 l 1,27,-1
 750.000976562 900 l 1,24,-1
EndSplineSet
MultipleSubs2: "cartouched sitelen" namako.t cartouche.body
Ligature2: "sitelen" n a m a k o
Ligature2: "sitelen+-space" n a m a k o space
EndChar

StartChar: kin.t
Encoding: 197 989561 141
Width: 1100
GlyphClass: 1
Flags: MW
LayerCount: 2
Fore
SplineSet
500.000976562 300.001953125 m 1,0,-1
 600 300.001953125 l 1,1,-1
 600 236.600585938 l 1,2,-1
 676.552734375 280.799804688 l 1,3,-1
 726.5546875 194.200195312 l 1,4,-1
 650.001953125 150.000976562 l 1,5,-1
 726.5546875 105.802734375 l 1,6,-1
 676.552734375 19.1982421875 l 1,7,-1
 600 63.396484375 l 1,8,-1
 600 0 l 1,9,-1
 500.000976562 0 l 1,10,-1
 500.000976562 63.396484375 l 1,11,-1
 423.447265625 19.1982421875 l 1,12,-1
 373.4453125 105.802734375 l 1,13,-1
 449.998046875 150.000976562 l 1,14,-1
 373.4453125 194.200195312 l 1,15,-1
 423.447265625 280.799804688 l 1,16,-1
 500.000976562 236.600585938 l 1,17,-1
 500.000976562 300.001953125 l 1,0,-1
500 375 m 1,18,-1
 500 900 l 1,19,-1
 600 900 l 1,20,-1
 600 375 l 1,21,-1
 500 375 l 1,18,-1
EndSplineSet
MultipleSubs2: "cartouched sitelen" kin.t cartouche.body
Ligature2: "sitelen+-space" k i n space
Ligature2: "sitelen" k i n
EndChar

StartChar: oko.t
Encoding: 198 989562 142
Width: 1100
GlyphClass: 1
Flags: MW
LayerCount: 2
Fore
SplineSet
953.952148438 887.899414062 m 1,0,-1
 1000.00097656 799.998046875 l 1,1,-1
 890.6640625 743.8203125 l 1,2,3
 943.528879995 682.569253209 943.528879995 682.569253209 971.746983967 606.738551457 c 128,-1,4
 999.965087939 530.907849705 999.965087939 530.907849705 1000.00097656 449.998046875 c 128,-1,5
 999.980468765 369.086727625 999.980468765 369.086727625 971.775775691 293.249562415 c 128,-1,6
 943.571082617 217.412397206 943.571082617 217.412397206 890.715820312 156.150390625 c 1,7,-1
 1000.00097656 99.9990234375 l 1,8,-1
 953.952148438 12.1025390625 l 1,9,-1
 99.9990234375 449.998046875 l 1,10,-1
 953.952148438 887.899414062 l 1,0,-1
798.401367188 696.412109375 m 1,11,-1
 318.8125 449.998046875 l 1,12,-1
 798.401367188 203.583984375 l 1,13,14
 812.112410726 217.397025894 812.112410726 217.397025894 825.184570312 234.04296875 c 1,15,16
 767.244174178 267.42862535 767.244174178 267.42862535 733.708389753 325.281244264 c 128,-1,17
 700.172605328 383.133863179 700.172605328 383.133863179 699.999023438 450.00390625 c 0,18,19
 700.172607121 516.872442592 700.172607121 516.872442592 733.706980844 574.725621048 c 128,-1,20
 767.241354567 632.578799504 767.241354567 632.578799504 825.1796875 665.96484375 c 1,21,22
 812.124836957 682.586517965 812.124836957 682.586517965 798.401367188 696.412109375 c 1,11,-1
874.892578125 579.825195312 m 1,23,24
 840.135716891 559.718876598 840.135716891 559.718876598 820.071886782 524.937933853 c 128,-1,25
 800.008056673 490.156991108 800.008056673 490.156991108 800.002929688 450.00390625 c 128,-1,26
 800.00585943 409.847395293 800.00585943 409.847395293 820.069904344 375.062670248 c 128,-1,27
 840.133949257 340.277945203 840.133949257 340.277945203 874.892578125 320.171875 c 1,28,29
 899.971294291 382.85519993 899.971294291 382.85519993 900.001953125 449.998046875 c 128,-1,30
 899.971295196 517.140371955 899.971295196 517.140371955 874.892578125 579.825195312 c 1,23,24
EndSplineSet
MultipleSubs2: "cartouched sitelen" oko.t cartouche.body
Ligature2: "sitelen+-space" o k o space
Ligature2: "sitelen" o k o
EndChar

StartChar: kipisi.t
Encoding: 199 989563 143
Width: 1100
GlyphClass: 1
Flags: MW
LayerCount: 2
Fore
SplineSet
750 250 m 128,-1,1
 771 271 771 271 800 271 c 128,-1,2
 829 271 829 271 850 250 c 128,-1,3
 871 229 871 229 871 200 c 128,-1,4
 871 171 871 171 850 150 c 128,-1,5
 829 129 829 129 800 129 c 128,-1,6
 771 129 771 129 750 150 c 128,-1,7
 729 171 729 171 729 200 c 128,-1,0
 729 229 729 229 750 250 c 128,-1,1
250 750 m 128,-1,9
 271 771 271 771 300 771 c 128,-1,10
 329 771 329 771 350 750 c 128,-1,11
 371 729 371 729 371 700 c 128,-1,12
 371 671 371 671 350 650 c 128,-1,13
 329 629 329 629 300 629 c 128,-1,14
 271 629 271 629 250 650 c 128,-1,15
 229 671 229 671 229 700 c 128,-1,8
 229 729 229 729 250 750 c 128,-1,9
829.2890625 800 m 1,16,-1
 900 729.2890625 l 1,17,-1
 270.7109375 100 l 1,18,-1
 200 170.7109375 l 1,19,-1
 829.2890625 800 l 1,16,-1
EndSplineSet
MultipleSubs2: "cartouched sitelen" kipisi.t cartouche.body
Ligature2: "sitelen+-space" k i p i s i space
Ligature2: "sitelen" k i p i s i
EndChar

StartChar: leko.t
Encoding: 200 989564 144
Width: 1100
GlyphClass: 1
Flags: MW
LayerCount: 2
Fore
SplineSet
450 550 m 1,0,-1
 450 350 l 1,1,-1
 650 350 l 1,2,-1
 650 550 l 1,3,-1
 450 550 l 1,0,-1
350 650 m 1,4,-1
 750 650 l 1,5,-1
 750 250 l 1,6,-1
 350 250 l 1,7,-1
 350 650 l 1,4,-1
200 800 m 1,8,-1
 200 100 l 1,9,-1
 900 100 l 1,10,-1
 900 800 l 1,11,-1
 200 800 l 1,8,-1
100 900 m 1,12,-1
 1000 900 l 1,13,-1
 1000 0 l 1,14,-1
 100 0 l 1,15,-1
 100 900 l 1,12,-1
EndSplineSet
MultipleSubs2: "cartouched sitelen" leko.t cartouche.body
Ligature2: "sitelen+-space" l e k o space
Ligature2: "sitelen" l e k o
EndChar

StartChar: monsuta.t
Encoding: 201 989565 145
Width: 1100
GlyphClass: 1
Flags: MW
LayerCount: 2
Fore
SplineSet
437.5 650 m 1,0,-1
 550 424.223632812 l 1,1,-1
 662.5 650 l 1,2,-1
 791.418945312 455.98046875 l 1,3,-1
 887.5 550 l 1,4,-1
 1000 450 l 1,5,-1
 933.563476562 375.258789062 l 1,6,-1
 890.776367188 413.29296875 l 1,7,-1
 775 300 l 1,8,-1
 674.896484375 450.653320312 l 1,9,-1
 550 200 l 1,10,-1
 425.103515625 450.653320312 l 1,11,-1
 325 300 l 1,12,-1
 209.223632812 413.29296875 l 1,13,-1
 166.436523438 375.258789062 l 1,14,-1
 100 450 l 1,15,-1
 212.5 550 l 1,16,-1
 308.581054688 455.98046875 l 1,17,-1
 437.5 650 l 1,0,-1
EndSplineSet
MultipleSubs2: "cartouched sitelen" monsuta.t cartouche.body
Ligature2: "sitelen+-space" m o n s u t a space
Ligature2: "sitelen" m o n s u t a
EndChar

StartChar: tonsi.t
Encoding: 202 989566 146
Width: 1100
GlyphClass: 1
Flags: MW
LayerCount: 2
Fore
SplineSet
835.125 702.811523438 m 1,0,1
 836.834300466 700.411578114 836.834300466 700.411578114 837.850585938 698.942382812 c 1,2,3
 836.474641492 700.923742814 836.474641492 700.923742814 835.125 702.811523438 c 1,0,1
804.773954367 739.8401563 m 1,4,5
 804.599862104 740.022660145 804.599862104 740.022660145 804.421621709 740.208982844 c 1,6,7
 804.607515467 740.014639369 804.607515467 740.014639369 804.773954367 739.8401563 c 1,4,5
550 750 m 128,-1,9
 447 750 447 750 373.5 676.5 c 128,-1,10
 300 603 300 603 300 500 c 128,-1,11
 300 397 300 397 373.5 323.5 c 128,-1,12
 447 250 447 250 550 250 c 128,-1,13
 653 250 653 250 726.5 323.5 c 128,-1,14
 800 397 800 397 800 500 c 128,-1,15
 800 603 800 603 726.5 676.5 c 128,-1,8
 653 750 653 750 550 750 c 128,-1,9
550 150 m 1,16,17
 525.427685749 150.007279392 525.427685749 150.007279392 500.7421875 153.5234375 c 1,18,19
 525.240432209 150.020102879 525.240432209 150.020102879 550 150 c 1,16,17
313.5 757.212890625 m 1,20,21
 413.680266598 849.664111214 413.680266598 849.664111214 550.066914584 849.816725714 c 128,-1,22
 686.45356257 849.969340215 686.45356257 849.969340215 786.877929688 757.588867188 c 1,23,-1
 929.286132812 899.999023438 l 1,24,-1
 1000 829.28515625 l 1,25,26
 912.828616612 741.76576522 912.828616612 741.76576522 872.264365181 701.294210646 c 2,27,-1
 850.366210938 679.651367188 l 1,28,29
 899.995675873 596.681716018 899.995675873 596.681716018 900 500 c 0,30,31
 899.994906633 368.813781196 899.994906633 368.813781196 813.933538597 270.436186179 c 128,-1,32
 727.872170561 172.058591161 727.872170561 172.058591161 599.99609375 153.602539062 c 1,33,-1
 600 0 l 1,34,-1
 500 0 l 1,35,-1
 500 153.603515625 l 1,36,37
 372.127984574 172.058603286 372.127984574 172.058603286 286.066538969 270.435868736 c 128,-1,38
 200.005093364 368.813134186 200.005093364 368.813134186 200 500 c 0,39,40
 200.338868996 596.505564046 200.338868996 596.505564046 250.087890625 679.19921875 c 1,41,-1
 100 829.28515625 l 1,42,-1
 170.713867188 899.999023438 l 1,43,-1
 313.5 757.212890625 l 1,20,21
EndSplineSet
MultipleSubs2: "cartouched sitelen" tonsi.t cartouche.body
Ligature2: "sitelen+-space" t o n s i space
Ligature2: "sitelen" t o n s i
EndChar

StartChar: jasima.t
Encoding: 203 989567 147
Width: 1100
GlyphClass: 1
Flags: MW
LayerCount: 2
Fore
SplineSet
500.000976562 900.001953125 m 1,0,-1
 600 900.001953125 l 1,1,-1
 600 675.048828125 l 1,2,-1
 660.09375 630.131835938 l 2,3,4
 700.029623825 600.089286892 700.029623825 600.089286892 756.081744195 600.044155165 c 128,-1,5
 812.133864565 599.999023438 812.133864565 599.999023438 856.068275055 643.933631501 c 128,-1,6
 900.002685546 687.868239564 900.002685546 687.868239564 900.001953125 750.000976562 c 1,7,-1
 1000.00097656 750.000976562 l 1,8,9
 1000.00097656 646.447416629 1000.00097656 646.447416629 926.777663393 573.223708315 c 128,-1,10
 853.554350223 500 853.554350223 500 760.125618867 500.04588555 c 128,-1,11
 666.696887512 500.091771101 666.696887512 500.091771101 600.09765625 550.131835938 c 1,12,-1
 600 275.047851562 l 1,13,-1
 660.09375 230.130859375 l 2,14,15
 700.027619219 200.08831395 700.027619219 200.08831395 756.080704141 200.042814201 c 128,-1,16
 812.133789063 199.997314453 812.133789063 199.997314453 856.068237305 243.931762695 c 128,-1,17
 900.002685547 287.866210938 900.002685547 287.866210938 900.001953125 349.999023438 c 1,18,-1
 1000.00097656 349.999023438 l 1,19,20
 1000.00097656 246.445556641 1000.00097656 246.445556641 926.777709961 173.222290039 c 128,-1,21
 853.554443359 99.9990234375 853.554443359 99.9990234375 760.126017226 100.044156385 c 128,-1,22
 666.697591094 100.089289332 666.697591094 100.089289332 600.09765625 150.129882812 c 1,23,-1
 600 0 l 1,24,-1
 500.000976562 0 l 1,25,-1
 500.000976562 224.953125 l 1,26,-1
 439.90625 269.870117188 l 2,27,28
 399.969672866 299.913195311 399.969672866 299.913195311 343.917941902 299.957940429 c 128,-1,29
 287.866210938 300.002685547 287.866210938 300.002685547 243.931762695 256.068237305 c 128,-1,30
 199.997314453 212.133789063 199.997314453 212.133789063 199.998046875 150.000976562 c 1,31,-1
 99.9990234375 150.000976562 l 1,32,33
 99.9990234375 253.554611998 99.9990234375 253.554611998 173.222374358 326.778160491 c 128,-1,34
 246.445725278 400.001708983 246.445725278 400.001708983 339.874067092 399.956209825 c 128,-1,35
 433.302408906 399.910710668 433.302408906 399.910710668 499.90234375 349.870117188 c 1,36,-1
 500.000976562 624.954101562 l 1,37,-1
 439.90625 669.87109375 l 2,38,39
 399.972380781 699.913639175 399.972380781 699.913639175 343.91929586 699.958772712 c 128,-1,40
 287.866210938 700.00390625 287.866210938 700.00390625 243.931762695 656.069458008 c 128,-1,41
 199.997314453 612.135009766 199.997314453 612.135009766 199.998046875 550.002929688 c 1,42,-1
 99.9990234375 550.002929688 l 1,43,44
 99.9990234375 653.556396484 99.9990234375 653.556396484 173.222290039 726.779663086 c 128,-1,45
 246.445556641 800.002929688 246.445556641 800.002929688 339.874334565 799.957044137 c 128,-1,46
 433.303112488 799.911158586 433.303112488 799.911158586 499.90234375 749.87109375 c 1,47,-1
 500.000976562 900.001953125 l 1,0,-1
EndSplineSet
MultipleSubs2: "cartouched sitelen" jasima.t cartouche.body
Ligature2: "sitelen+-space" j a s i m a space
Ligature2: "sitelen" j a s i m a
EndChar

StartChar: kijetesantakalu.t
Encoding: 204 989568 148
Width: 1100
GlyphClass: 1
Flags: MWO
LayerCount: 2
Fore
SplineSet
624 599.5 m 128,-1,1
 635 579 635 579 628 557 c 128,-1,2
 621 535 621 535 600.5 524 c 128,-1,3
 580 513 580 513 558 520 c 128,-1,4
 536 527 536 527 525 547.5 c 128,-1,5
 514 568 514 568 521 590.5 c 128,-1,6
 528 613 528 613 548.5 623.5 c 128,-1,7
 569 634 569 634 591 627 c 128,-1,0
 613 620 613 620 624 599.5 c 128,-1,1
775 600 m 128,-1,9
 786 579 786 579 779 557 c 128,-1,10
 772 535 772 535 751.5 524.5 c 128,-1,11
 731 514 731 514 708.5 521 c 128,-1,12
 686 528 686 528 675.5 548.5 c 128,-1,13
 665 569 665 569 672 591 c 128,-1,14
 679 613 679 613 699.5 623.5 c 128,-1,15
 720 634 720 634 742 627.5 c 128,-1,8
 764 621 764 621 775 600 c 128,-1,9
475 300 m 1,16,-1
 575 300 l 1,17,-1
 600 0 l 1,18,19
 600 0 600 0 300 0 c 0,20,21
 217 0 217 0 158.5 58.5 c 128,-1,22
 100 117 100 117 100 200 c 128,-1,23
 100 283 100 283 158.5 341.5 c 128,-1,24
 217 400 217 400 300 400 c 1,25,-1
 300 500 l 2,26,27
 300 609 300 609 353.5 701 c 128,-1,28
 407 793 407 793 499 846.5 c 128,-1,29
 591 900 591 900 700 900 c 1,30,31
 700 900 700 900 850 900 c 1,32,33
 850 900 850 900 850 750 c 1,34,35
 850 750 850 750 1000 550 c 1,36,-1
 900 450 l 1,37,-1
 900 0 l 1,38,-1
 800 0 l 1,39,40
 800 0 800 0 800 491 c 1,41,-1
 868 559 l 1,42,-1
 750 717 l 1,43,-1
 750 800 l 1,44,-1
 700 800 l 2,45,46
 576 800 576 800 488 712 c 128,-1,47
 400 624 400 624 400 500 c 2,48,-1
 400 100 l 1,49,-1
 491.666666667 100 l 1,50,-1
 475 300 l 1,16,-1
650 300 m 1,51,-1
 750 300 l 1,52,-1
 750 0 l 5,53,-1
 650 0 l 1,54,-1
 650 300 l 1,51,-1
300 100 m 1,55,-1
 300 300 l 1,56,57
 259 300 259 300 229.5 270.5 c 128,-1,58
 200 241 200 241 200 200 c 128,-1,59
 200 159 200 159 229.5 129.5 c 128,-1,60
 259 100 259 100 300 100 c 1,55,-1
EndSplineSet
LCarets2: 15 0 0 0 0 0 0 0 0 0 0 0 0 0 0 0
MultipleSubs2: "cartouched sitelen" kijetesantakalu.t cartouche.body
Ligature2: "sitelen+-space" k i j e t e s a n t a k a l u space
Ligature2: "sitelen" k i j e t e s a n t a k a l u
EndChar

StartChar: cartouche.start
Encoding: 214 989584 150
Width: 1100
GlyphClass: 2
Flags: MW
LayerCount: 2
Fore
SplineSet
699.999023438 1100 m 2,0,-1
 1200 1099.99804688 l 1,1,-1
 1200 999.999023438 l 1,2,-1
 699.999023438 1000.00097656 l 2,3,4
 658.577636719 1000.00024414 658.577636719 1000.00024414 629.288818359 970.711425781 c 128,-1,5
 600 941.422607422 600 941.422607422 600 900.001953125 c 2,6,-1
 600 0 l 2,7,8
 600 -41.4208229361 600 -41.4208229361 629.288902678 -70.7099231868 c 128,-1,9
 658.577805357 -99.9990234375 658.577805357 -99.9990234375 699.999023438 -99.9990234375 c 2,10,-1
 1200 -100.000976562 l 1,11,-1
 1200 -200 l 1,12,-1
 699.999023438 -199.998046875 l 2,13,14
 617.157151062 -199.997314455 617.157151062 -199.997314455 558.579430024 -141.419395845 c 128,-1,15
 500.001708986 -82.8414772345 500.001708986 -82.8414772345 500.000976562 0 c 2,16,-1
 500.000976562 900.001953125 l 2,17,18
 500.001708986 982.843430359 500.001708986 982.843430359 558.579430024 1041.42134897 c 128,-1,19
 617.157151062 1100 617.157151062 1100 699.999023438 1100 c 2,0,-1
EndSplineSet
LCarets2: 1 0
Ligature2: "sitelen" bracketleft
Ligature2: "sitelen+-space" bracketleft space
EndChar

StartChar: cartouche.end
Encoding: 215 989585 151
Width: 1100
GlyphClass: 2
Flags: MW
LayerCount: 2
Fore
SplineSet
400 1099.99902344 m 2,0,1
 482.841308594 1099.99902344 482.841308594 1099.99902344 541.419311523 1041.42028809 c 128,-1,2
 599.997314453 982.842285156 599.997314453 982.842285156 599.998046875 900.000976562 c 2,3,-1
 599.998046875 -0.0009765625 l 2,4,5
 599.997314453 -82.8422851562 599.997314453 -82.8422851562 541.419311523 -141.420288086 c 128,-1,6
 482.841308594 -199.998291016 482.841308594 -199.998291016 400 -199.999023438 c 2,7,-1
 100 -200 l 1,8,-1
 -0.0009765625 -150 l 1,9,-1
 100 -100 l 1,10,-1
 400 -100 l 2,11,12
 441.420654297 -99.9992675781 441.420654297 -99.9992675781 470.709472656 -70.7104492187 c 128,-1,13
 499.998291016 -41.4216308594 499.998291016 -41.4216308594 499.999023438 -0.0009765625 c 2,14,-1
 499.999023438 900.000976562 l 2,15,16
 499.998291016 941.421630859 499.998291016 941.421630859 470.709472656 970.710449219 c 128,-1,17
 441.420654297 999.999267578 441.420654297 999.999267578 400 1000 c 2,18,-1
 100 1000 l 1,19,-1
 -0.0009765625 1049.75390625 l 1,20,-1
 100 1100 l 1,21,-1
 400 1099.99902344 l 2,0,1
EndSplineSet
Ligature2: "sitelen" bracketright
EndChar

StartChar: cartouche.body
Encoding: 216 989586 152
Width: 0
GlyphClass: 2
Flags: MW
LayerCount: 2
Fore
SplineSet
-1000 -99.9990234375 m 1,0,-1
 100 -100.000976562 l 1,1,-1
 100 -200 l 1,2,-1
 -1000 -199.998046875 l 1,3,-1
 -1100 -150 l 1,4,-1
 -1000 -99.9990234375 l 1,0,-1
-1000 1100 m 1,5,-1
 100 1099.99804688 l 1,6,-1
 100 999.999023438 l 1,7,-1
 -1000 1000.00097656 l 1,8,-1
 -1100 1050 l 1,9,-1
 -1000 1100 l 1,5,-1
EndSplineSet
EndChar

StartChar: period
Encoding: 3 46 153
Width: 1100
Flags: MW
LayerCount: 2
Fore
SplineSet
550 550 m 128,-1,1
 591 550 591 550 620.5 520.5 c 128,-1,2
 650 491 650 491 650 450 c 128,-1,3
 650 409 650 409 620.5 379.5 c 128,-1,4
 591 350 591 350 550 350 c 128,-1,5
 509 350 509 350 479.5 379.5 c 128,-1,6
 450 409 450 409 450 450 c 128,-1,7
 450 491 450 491 479.5 520.5 c 128,-1,0
 509 550 509 550 550 550 c 128,-1,1
EndSplineSet
MultipleSubs2: "cartouched sitelen" period cartouche.body
LCarets2: 1 0
Ligature2: "sitelen+-space" period space
EndChar

StartChar: comma
Encoding: 1 44 154
Width: 1100
Flags: MW
LayerCount: 2
Fore
SplineSet
549.997070312 199.998046875 m 128,-1,1
 591.391014713 199.998046875 591.391014713 199.998046875 620.696117711 170.695117655 c 128,-1,2
 650.00122071 141.392188434 650.00122071 141.392188434 650.001953125 99.9990234375 c 0,3,4
 650.001953125 42.0441701539 650.001953125 42.0441701539 623.182511854 -11.5905427571 c 128,-1,5
 596.363070584 -65.2252556681 596.363070584 -65.2252556681 549.997070312 -99.9990234375 c 1,6,-1
 549.997070312 0 l 1,7,8
 508.604248047 0.000732421875 508.604248047 0.000732421875 479.301513672 29.3034667969 c 128,-1,9
 449.998779297 58.6062011719 449.998779297 58.6062011719 449.998046875 99.9990234375 c 128,-1,10
 449.9987793 141.392014302 449.9987793 141.392014302 479.301597971 170.695030589 c 128,-1,0
 508.604416642 199.998046875 508.604416642 199.998046875 549.997070312 199.998046875 c 128,-1,1
EndSplineSet
EndChar

StartChar: colon
Encoding: 14 58 155
Width: 1100
Flags: MW
LayerCount: 2
Fore
SplineSet
650 225 m 128,-1,1
 650 184 650 184 620.5 154.5 c 128,-1,2
 591 125 591 125 550 125 c 128,-1,3
 509 125 509 125 479.5 154.5 c 128,-1,4
 450 184 450 184 450 225 c 128,-1,5
 450 266 450 266 479.5 295.5 c 128,-1,6
 509 325 509 325 550 325 c 128,-1,7
 591 325 591 325 620.5 295.5 c 128,-1,0
 650 266 650 266 650 225 c 128,-1,1
650 675 m 128,-1,9
 650 634 650 634 620.5 604.5 c 128,-1,10
 591 575 591 575 550 575 c 128,-1,11
 509 575 509 575 479.5 604.5 c 128,-1,12
 450 634 450 634 450 675 c 128,-1,13
 450 716 450 716 479.5 745.5 c 128,-1,14
 509 775 509 775 550 775 c 128,-1,15
 591 775 591 775 620.5 745.5 c 128,-1,8
 650 716 650 716 650 675 c 128,-1,9
EndSplineSet
MultipleSubs2: "cartouched sitelen" colon cartouche.body
EndChar

StartChar: periodcentered
Encoding: 73 183 156
Width: 1100
Flags: MW
LayerCount: 2
Fore
SplineSet
550 550 m 128,-1,1
 591 550 591 550 620.5 520.5 c 128,-1,2
 650 491 650 491 650 450 c 128,-1,3
 650 409 650 409 620.5 379.5 c 128,-1,4
 591 350 591 350 550 350 c 128,-1,5
 509 350 509 350 479.5 379.5 c 128,-1,6
 450 409 450 409 450 450 c 128,-1,7
 450 491 450 491 479.5 520.5 c 128,-1,0
 509 550 509 550 550 550 c 128,-1,1
EndSplineSet
MultipleSubs2: "cartouched sitelen" periodcentered cartouche.body
EndChar

StartChar: dotdot
Encoding: 235 -1 157
Width: 1100
Flags: MW
LayerCount: 2
Fore
SplineSet
850 450 m 128,-1,1
 850 409 850 409 820.5 379.5 c 128,-1,2
 791 350 791 350 750 350 c 128,-1,3
 709 350 709 350 679.5 379.5 c 128,-1,4
 650 409 650 409 650 450 c 128,-1,5
 650 491 650 491 679.5 520.5 c 128,-1,6
 709 550 709 550 750 550 c 128,-1,7
 791 550 791 550 820.5 520.5 c 128,-1,0
 850 491 850 491 850 450 c 128,-1,1
448.831054688 450 m 128,-1,9
 448.831054688 409.062744141 448.831054688 409.062744141 419.884155273 380.115844727 c 128,-1,10
 390.937255859 351.168945312 390.937255859 351.168945312 350 351.168945312 c 128,-1,11
 309.062744141 351.168945312 309.062744141 351.168945312 280.115844727 380.115844727 c 128,-1,12
 251.168945312 409.062744141 251.168945312 409.062744141 251.168945312 450 c 128,-1,13
 251.168945312 490.937255859 251.168945312 490.937255859 280.115844727 519.884155273 c 128,-1,14
 309.062744141 548.831054688 309.062744141 548.831054688 350 548.831054688 c 128,-1,15
 390.937255859 548.831054688 390.937255859 548.831054688 419.884155273 519.884155273 c 128,-1,8
 448.831054688 490.937255859 448.831054688 490.937255859 448.831054688 450 c 128,-1,9
EndSplineSet
MultipleSubs2: "cartouched sitelen" dotdot cartouche.body
Ligature2: "sitelen+-space" periodcentered periodcentered space
Ligature2: "sitelen+-space" dot dot space
Ligature2: "sitelen" periodcentered periodcentered
Ligature2: "sitelen" dot dot
LCarets2: 2 0 0
Ligature2: "sitelen+-space" period period space
Ligature2: "sitelen" period period
EndChar

StartChar: dotdotdot
Encoding: 236 -1 158
Width: 1100
Flags: MW
LayerCount: 2
Fore
SplineSet
325 450 m 128,-1,1
 325 409 325 409 295.5 379.5 c 128,-1,2
 266 350 266 350 225 350 c 128,-1,3
 184 350 184 350 154.5 379.5 c 128,-1,4
 125 409 125 409 125 450 c 128,-1,5
 125 491 125 491 154.5 520.5 c 128,-1,6
 184 550 184 550 225 550 c 128,-1,7
 266 550 266 550 295.5 520.5 c 128,-1,0
 325 491 325 491 325 450 c 128,-1,1
975 450 m 128,-1,9
 975 409 975 409 945.5 379.5 c 128,-1,10
 916 350 916 350 875 350 c 128,-1,11
 834 350 834 350 804.5 379.5 c 128,-1,12
 775 409 775 409 775 450 c 128,-1,13
 775 491 775 491 804.5 520.5 c 128,-1,14
 834 550 834 550 875 550 c 128,-1,15
 916 550 916 550 945.5 520.5 c 128,-1,8
 975 491 975 491 975 450 c 128,-1,9
650 450 m 128,-1,17
 650 409 650 409 620.5 379.5 c 128,-1,18
 591 350 591 350 550 350 c 128,-1,19
 509 350 509 350 479.5 379.5 c 128,-1,20
 450 409 450 409 450 450 c 128,-1,21
 450 491 450 491 479.5 520.5 c 128,-1,22
 509 550 509 550 550 550 c 128,-1,23
 591 550 591 550 620.5 520.5 c 128,-1,16
 650 491 650 491 650 450 c 128,-1,17
EndSplineSet
MultipleSubs2: "cartouched sitelen" dotdotdot cartouche.body
Ligature2: "sitelen+-space" periodcentered periodcentered periodcentered space
Ligature2: "sitelen+-space" dot dot dot space
Ligature2: "sitelen" periodcentered periodcentered periodcentered
Ligature2: "sitelen" dot dot dot
Ligature2: "sitelen+-space" period period period space
Ligature2: "sitelen" period period period
EndChar

StartChar: n.t
Encoding: 210 989574 159
Width: 1100
Flags: MW
LayerCount: 2
Fore
SplineSet
400.000976562 300.001953125 m 1,0,-1
 500.000976562 300.001953125 l 1,1,2
 500.070176547 291.146390548 500.070176547 291.146390548 500.000976562 291.098632812 c 1,3,4
 524.235198072 299.84394008 524.235198072 299.84394008 549.997070312 300.001953125 c 0,5,6
 612.08805922 300.001953125 612.08805922 300.001953125 656.043541329 256.046668632 c 128,-1,7
 699.999023438 212.091384139 699.999023438 212.091384139 699.999023438 150.000976562 c 2,8,-1
 699.999023438 0 l 1,9,-1
 600 0 l 1,10,11
 599.997076057 150.000976562 599.997076057 150.000976562 600 150.000976562 c 1,12,13
 599.998535172 170.696800373 599.998535172 170.696800373 585.345935766 185.347423624 c 128,-1,14
 570.69333636 199.998046875 570.69333636 199.998046875 549.997070312 199.998046875 c 128,-1,15
 529.302246076 199.996582014 529.302246076 199.996582014 514.651977526 185.346313464 c 128,-1,16
 500.001708976 170.696044913 500.001708976 170.696044913 500.000976562 150.000976562 c 2,17,-1
 500.000976562 0 l 1,18,-1
 400.000976562 0 l 1,19,-1
 400.000976562 150.000976562 l 1,20,-1
 400.000976562 300.001953125 l 1,0,-1
500 375 m 1,21,-1
 500 900 l 1,22,-1
 600 900 l 1,23,-1
 600 375 l 1,24,-1
 500 375 l 1,21,-1
EndSplineSet
MultipleSubs2: "cartouched sitelen" n.t cartouche.body
Ligature2: "sitelen" n
Ligature2: "sitelen+-space" n space
EndChar

StartChar: akesi.anpa
Encoding: 237 -1 160
Width: 1100
Flags: MW
LayerCount: 2
Fore
SplineSet
825 112.5 m 128,-1,1
 825 138 825 138 843.5 156.5 c 128,-1,2
 862 175 862 175 887.5 175 c 128,-1,3
 913 175 913 175 931.5 156.5 c 128,-1,4
 950 138 950 138 950 112.5 c 128,-1,5
 950 87 950 87 931.5 68.5 c 128,-1,6
 913 50 913 50 887.5 50 c 128,-1,7
 862 50 862 50 843.5 68.5 c 128,-1,0
 825 87 825 87 825 112.5 c 128,-1,1
825 312.5 m 128,-1,9
 825 338 825 338 843.5 356.5 c 128,-1,10
 862 375 862 375 887.5 375 c 128,-1,11
 913 375 913 375 931.5 356.5 c 128,-1,12
 950 338 950 338 950 312.5 c 128,-1,13
 950 287 950 287 931.5 268.5 c 128,-1,14
 913 250 913 250 887.5 250 c 128,-1,15
 862 250 862 250 843.5 268.5 c 128,-1,8
 825 287 825 287 825 312.5 c 128,-1,9
350 275.000976562 m 1,16,-1
 312.49609375 275.000976562 l 2,17,18
 286.607963065 274.999511722 286.607963065 274.999511722 268.303127039 256.69289755 c 128,-1,19
 249.998291014 238.386283378 249.998291014 238.386283378 249.999023438 212.498046875 c 128,-1,20
 249.999755859 186.611328125 249.999755859 186.611328125 268.30456543 168.306518555 c 128,-1,21
 286.609375 150.000976562 286.609375 150.000976562 312.49609375 150.000976562 c 2,22,-1
 350 150.000976562 l 1,23,-1
 350 275.000976562 l 1,16,-1
425 275.000976562 m 1,24,-1
 425 150.000976562 l 1,25,-1
 525 150.000976562 l 1,26,-1
 525 275.000976562 l 1,27,-1
 425 275.000976562 l 1,24,-1
600 275.000976562 m 1,28,-1
 600 150.000976562 l 1,29,-1
 637.49609375 150.000976562 l 2,30,31
 663.384161607 149.999511725 663.384161607 149.999511725 681.690860097 168.304629633 c 128,-1,32
 699.997558587 186.609747541 699.997558587 186.609747541 699.999023438 212.498046875 c 128,-1,33
 699.999755859 238.387695312 699.999755859 238.387695312 681.692749023 256.694702148 c 128,-1,34
 663.385742188 275.001708984 663.385742188 275.001708984 637.49609375 275.000976562 c 2,35,-1
 600 275.000976562 l 1,28,-1
350 375 m 1,36,-1
 350 425 l 1,37,-1
 425 425 l 1,38,-1
 425 375 l 1,39,-1
 525 375 l 1,40,-1
 525 425 l 1,41,-1
 600 425 l 1,42,-1
 600 375 l 1,43,-1
 637.49609375 375 l 2,44,45
 704.806565121 375.000732424 704.806565121 375.000732424 752.402672208 327.40482291 c 128,-1,46
 799.998779295 279.808913395 799.998779295 279.808913395 799.998046875 212.498046875 c 128,-1,47
 799.996582036 145.188698107 799.996582036 145.188698107 752.400867612 97.594959404 c 128,-1,48
 704.805153187 50.001953125 704.805153187 50.001953125 637.49609375 50.001953125 c 2,49,-1
 600 50.001953125 l 1,50,-1
 600 0 l 1,51,-1
 525 0 l 1,52,-1
 525 50.001953125 l 1,53,-1
 425 50.001953125 l 1,54,-1
 425 0 l 1,55,-1
 350 0 l 1,56,-1
 350 50.001953125 l 1,57,-1
 312.49609375 50.001953125 l 2,58,59
 245.188889344 50.002685545 245.188889344 50.002685545 197.595177095 97.5965953651 c 128,-1,60
 150.001464847 145.190505185 150.001464847 145.190505185 150 212.498046875 c 128,-1,61
 149.999267578 279.806937669 149.999267578 279.806937669 197.59328817 327.402736413 c 128,-1,62
 245.187308762 374.998535157 245.187308762 374.998535157 312.49609375 375 c 2,63,-1
 350 375 l 1,36,-1
EndSplineSet
MultipleSubs2: "cartouched sitelen" akesi.anpa cartouche.body
LCarets2: 1 0
MultipleSubs2: "stack" akesi.anpa stackjoiner
Ligature2: "anpa" akesi.t stackjoiner
EndChar

StartChar: alasa.anpa
Encoding: 238 -1 161
Width: 1100
Flags: MW
LayerCount: 2
Fore
SplineSet
787.5 425 m 1,0,-1
 1000 212.5 l 1,1,-1
 787.5 0 l 1,2,-1
 716.790039062 70.7099609375 l 1,3,-1
 808.579445931 162.5 l 1,4,-1
 642.162265129 162.5 l 1,5,6
 623.737466447 106.34763242 623.737466447 106.34763242 562 62.5 c 0,7,8
 474 0 474 0 350 0 c 2,9,-1
 250 0 l 1,10,-1
 250 162.5 l 1,11,-1
 100 162.5 l 1,12,-1
 100 262.5 l 1,13,-1
 250 262.5 l 1,14,-1
 250 425 l 1,15,-1
 350 425 l 2,16,17
 474 425 474 425 562 362.5 c 0,18,19
 623.737466447 318.65236758 623.737466447 318.65236758 642.162265129 262.5 c 1,20,-1
 808.579101562 262.5 l 1,21,-1
 716.790039062 354.2890625 l 1,22,-1
 787.5 425 l 1,0,-1
529.788651838 262.5 m 1,23,24
 515.614481718 278.396959031 515.614481718 278.396959031 491.5 292 c 0,25,26
 433 325 433 325 350 325 c 1,27,-1
 350 262.5 l 1,28,-1
 529.788651838 262.5 l 1,23,24
529.788651838 162.5 m 1,29,-1
 350 162.5 l 1,30,-1
 350 100 l 1,31,32
 433 100 433 100 491.5 133 c 0,33,34
 515.614481718 146.603040969 515.614481718 146.603040969 529.788651838 162.5 c 1,29,-1
EndSplineSet
MultipleSubs2: "cartouched sitelen" ala.anpa cartouche.body
MultipleSubs2: "stack" alasa.anpa stackjoiner
Ligature2: "anpa" alasa.t stackjoiner
EndChar

StartChar: ala.anpa
Encoding: 239 -1 162
Width: 1100
Flags: MW
LayerCount: 2
Fore
SplineSet
200 0 m 1,0,-1
 154.778320312 89.072265625 l 1,1,-1
 428.590537449 212.500126427 l 1,2,-1
 154.790039062 335.922851562 l 1,3,-1
 200 425 l 1,4,-1
 550 267.228547242 l 1,5,-1
 900 425 l 1,6,-1
 945.209960938 335.922851562 l 1,7,-1
 671.409462551 212.500126427 l 1,8,-1
 945.221679688 89.072265625 l 1,9,-1
 900 0 l 1,10,-1
 550 157.77164049 l 1,11,-1
 200 0 l 1,0,-1
EndSplineSet
MultipleSubs2: "cartouched sitelen" ala.anpa cartouche.body
MultipleSubs2: "stack" ala.anpa stackjoiner
Ligature2: "anpa" ala.t stackjoiner
EndChar

StartChar: ale.anpa
Encoding: 240 -1 163
Width: 1100
Flags: MW
LayerCount: 2
Fore
SplineSet
867.05135385 292.047645173 m 128,-1,1
 834.100754575 324.998046875 834.100754575 324.998046875 788.372354217 324.912097309 c 128,-1,2
 742.809082146 324.826458113 742.809082146 324.826458113 705.120117188 289.475585938 c 2,3,-1
 623.078125 212.499023438 l 1,4,-1
 710.51953125 130.45703125 l 2,5,6
 742.617614499 100.169400347 742.617614499 100.169400347 788.359222288 100.084211892 c 128,-1,7
 834.100830078 99.9990234375 834.100830078 99.9990234375 867.051391602 132.949584961 c 128,-1,8
 900.001953125 165.900146484 900.001953125 165.900146484 900.001953125 212.499023438 c 128,-1,0
 900.001953125 259.097243471 900.001953125 259.097243471 867.05135385 292.047645173 c 128,-1,1
389.48046875 294.544921875 m 2,9,10
 357.382385501 324.827669966 357.382385501 324.827669966 311.640815463 324.912858421 c 128,-1,11
 265.899245425 324.998046875 265.899245425 324.998046875 232.94864615 292.047645173 c 128,-1,12
 199.998046875 259.097243471 199.998046875 259.097243471 199.998046875 212.499023438 c 128,-1,13
 199.998046875 165.900146484 199.998046875 165.900146484 232.948608398 132.949584961 c 128,-1,14
 265.899169922 99.9990234375 265.899169922 99.9990234375 311.627608032 100.084973003 c 128,-1,15
 357.356046141 100.170922569 357.356046141 100.170922569 389.48046875 130.45703125 c 2,16,-1
 476.926757812 212.499023438 l 1,17,-1
 389.48046875 294.544921875 l 2,9,10
162.23732232 362.761003961 m 128,-1,19
 224.477086048 425.001953125 224.477086048 425.001953125 310.498670735 425.001953125 c 128,-1,20
 396.520255422 425.001953125 396.520255422 425.001953125 457.858398438 367.434570312 c 2,21,-1
 550.002929688 281.0625 l 1,22,-1
 642.100585938 367.470703125 l 2,23,24
 703.47162862 424.998529274 703.47162862 424.998529274 789.496518746 424.997433582 c 128,-1,25
 875.521408872 424.996337891 875.521408872 424.996337891 937.760826506 362.75711783 c 128,-1,26
 1000.00024414 300.517897768 1000.00024414 300.517897768 1000.00097656 212.499023438 c 128,-1,27
 1000.00244141 124.477335157 1000.00244141 124.477335157 937.762715429 62.2362261721 c 128,-1,28
 875.522989453 -0.0048828125 875.522989453 -0.0048828125 789.497309037 -0.00561229305859 c 128,-1,29
 703.47162862 -0.00634177361718 703.47162862 -0.00634177361718 642.13671875 57.5625 c 2,30,-1
 549.997070312 143.939453125 l 1,31,-1
 457.899414062 57.53125 l 2,32,33
 396.530050174 -0.00145896493393 396.530050174 -0.00145896493393 310.5042829 -0.000363271529465 c 128,-1,34
 224.478515625 0.000732421875 224.478515625 0.000732421875 162.239135742 62.2401123047 c 128,-1,35
 99.9997558594 124.479492188 99.9997558594 124.479492188 99.9990234375 212.499023438 c 128,-1,18
 99.9975585932 300.520054798 99.9975585932 300.520054798 162.23732232 362.761003961 c 128,-1,19
EndSplineSet
MultipleSubs2: "cartouched sitelen" ale.anpa cartouche.body
MultipleSubs2: "stack" ale.anpa stackjoiner
Ligature2: "anpa" ale.t stackjoiner
EndChar

StartChar: anpa.anpa
Encoding: 241 -1 164
Width: 1100
Flags: MW
LayerCount: 2
Fore
SplineSet
487.5 62.5 m 128,-1,1
 487.5 88.3881835938 487.5 88.3881835938 505.805908203 106.694091797 c 128,-1,2
 524.111816406 125 524.111816406 125 550 125 c 128,-1,3
 575.888183594 125 575.888183594 125 594.194091797 106.694091797 c 128,-1,4
 612.5 88.3881835938 612.5 88.3881835938 612.5 62.5 c 128,-1,5
 612.5 36.6118164062 612.5 36.6118164062 594.194091797 18.3059082031 c 128,-1,6
 575.888183594 0 575.888183594 0 550 0 c 128,-1,7
 524.111816406 0 524.111816406 0 505.805908203 18.3059082031 c 128,-1,0
 487.5 36.6118164062 487.5 36.6118164062 487.5 62.5 c 128,-1,1
99.998046875 425 m 1,8,-1
 199.997070312 425 l 1,9,-1
 199.99609375 250 l 1,10,-1
 900 250 l 1,11,-1
 900.000976562 425 l 1,12,-1
 1000 425 l 1,13,-1
 999.999023438 149.99609375 l 1,14,-1
 99.9970703125 149.99609375 l 1,15,-1
 99.998046875 425 l 1,8,-1
EndSplineSet
MultipleSubs2: "cartouched sitelen" anpa.anpa cartouche.body
MultipleSubs2: "stack" anpa.anpa stackjoiner
Ligature2: "anpa" anpa.t stackjoiner
EndChar

StartChar: awen.anpa
Encoding: 242 -1 165
Width: 1100
Flags: MW
LayerCount: 2
Fore
SplineSet
549.997070312 425.001953125 m 1,0,-1
 799.3203125 99.9990234375 l 1,1,-1
 1000.00097656 99.9990234375 l 1,2,-1
 1000.00097656 0 l 1,3,-1
 750.000976562 0 l 1,4,-1
 550.002929688 260.708007812 l 1,5,-1
 349.999023438 0 l 1,6,-1
 99.9990234375 0 l 1,7,-1
 99.9990234375 99.9990234375 l 1,8,-1
 300.673828125 99.9990234375 l 1,9,-1
 549.997070312 425.001953125 l 1,0,-1
EndSplineSet
MultipleSubs2: "cartouched sitelen" awen.anpa cartouche.body
MultipleSubs2: "stack" awen.anpa stackjoiner
Ligature2: "anpa" awen.t stackjoiner
EndChar

StartChar: jaki.anpa
Encoding: 243 -1 166
Width: 1100
Flags: MW
LayerCount: 2
Fore
SplineSet
375.362304688 120.51953125 m 1,0,1
 325.774380857 100.769278605 325.774380857 100.769278605 291.22361621 123.529113755 c 128,-1,2
 256.672851562 146.288948905 256.672851562 146.288948905 256.672851562 187.019633597 c 128,-1,3
 256.672851562 227.75031829 256.672851562 227.75031829 281.428461765 258.030788987 c 128,-1,4
 306.184071967 288.311259683 306.184071967 288.311259683 341.660542752 303.157290847 c 128,-1,5
 377.137013536 318.003322012 377.137013536 318.003322012 419.477930759 314.67489299 c 128,-1,6
 461.818847982 311.346463969 461.818847982 311.346463969 485.438185072 292.582576607 c 128,-1,7
 509.057522161 273.818689245 509.057522161 273.818689245 524.763671875 253.080078125 c 1,8,9
 517.02711712 244.915918505 517.02711712 244.915918505 492.950179553 218.270767579 c 128,-1,10
 468.873241985 191.625616653 468.873241985 191.625616653 456.4453125 179.084960938 c 1,11,12
 430.03329759 213.584452145 430.03329759 213.584452145 424.599609375 256.353515625 c 1,13,-1
 325.400390625 243.646484375 l 1,14,15
 334.05290915 175.547406805 334.05290915 175.547406805 375.362304688 120.51953125 c 1,0,1
456.124023438 49.9365234375 m 1,16,17
 501.575716378 24.459865932 501.575716378 24.459865932 553.956963024 18.920656025 c 0,18,19
 645.681349856 9.22098935413 645.681349856 9.22098935413 720.927734375 48.9775390625 c 1,20,21
 776.393312776 34.2077818995 776.393312776 34.2077818995 828.855082751 53.6557231784 c 128,-1,22
 881.316852727 73.1036644573 881.316852727 73.1036644573 913.584695895 118.549680467 c 128,-1,23
 945.852539062 163.995696478 945.852539062 163.995696478 945.852539062 228.60549318 c 128,-1,24
 945.852539062 293.215289882 945.852539062 293.215289882 896.861016951 344.454713037 c 128,-1,25
 847.86949484 395.694136192 847.86949484 395.694136192 777.971679688 399.913085938 c 1,26,-1
 773.280273438 322.189453125 l 1,27,28
 696.997271968 382.5950713 696.997271968 382.5950713 600.684570312 318.895507812 c 1,29,30
 534.536660596 402.536899739 534.536660596 402.536899739 434.284179688 414.07421875 c 0,31,32
 365.249038774 421.997597574 365.249038774 421.997597574 301.063317636 394.73063096 c 128,-1,33
 236.877596499 367.463664345 236.877596499 367.463664345 196.775224031 312.708496644 c 128,-1,34
 156.672851562 257.953328944 156.672851562 257.953328944 156.672851562 187.67248693 c 128,-1,35
 156.672851562 117.391644916 156.672851562 117.391644916 206.179378962 64.6606662078 c 128,-1,36
 255.685906362 11.9296875 255.685906362 11.9296875 325.659941674 11.9296875 c 128,-1,37
 395.633976987 11.9296875 395.633976987 11.9296875 456.124023438 49.9365234375 c 1,16,17
580.604492188 166.125 m 1,38,39
 598.461885518 138.439399658 598.461885518 138.439399658 615.521484375 118.85546875 c 1,40,41
 576.08566588 112.870950529 576.08566588 112.870950529 540.827148438 122.5 c 1,42,43
 551.004457954 133.287930567 551.004457954 133.287930567 580.604492188 166.125 c 1,38,39
EndSplineSet
MultipleSubs2: "cartouched sitelen" jaki.anpa cartouche.body
MultipleSubs2: "stack" jaki.anpa stackjoiner
Ligature2: "anpa" jaki.t stackjoiner
EndChar

StartChar: ike.anpa
Encoding: 244 -1 167
Width: 1100
Flags: MW
LayerCount: 2
Fore
SplineSet
900.001953125 25.0009765625 m 1,0,1
 806.981017483 24.9997874391 806.981017483 24.9997874391 799.998046875 25.0009765625 c 1,2,3
 799.998046875 128.484938826 799.998046875 128.484938826 726.739830391 201.742957694 c 128,-1,4
 653.481613908 275.000976562 653.481613908 275.000976562 549.997070312 275.000976562 c 128,-1,5
 446.514607904 274.998779296 446.514607904 274.998779296 373.258280515 201.7410686 c 128,-1,6
 300.001953125 128.483357905 300.001953125 128.483357905 300.001953125 25.0009765625 c 1,7,-1
 199.998046875 25.0009765625 l 1,8,9
 199.998046875 120.009481661 199.998046875 120.009481661 246.860280571 200.642507134 c 128,-1,10
 293.722514268 281.275532607 293.722514268 281.275532607 374.355539741 328.137766304 c 128,-1,11
 454.988565214 375 454.988565214 375 549.997070312 375 c 128,-1,12
 645.006241694 375 645.006241694 375 725.640557819 328.138028955 c 128,-1,13
 806.274873945 281.27605791 806.274873945 281.27605791 853.138413535 200.642895524 c 128,-1,14
 900.001953125 120.009733138 900.001953125 120.009733138 900.001953125 25.0009765625 c 1,0,1
EndSplineSet
MultipleSubs2: "cartouched sitelen" ike.anpa cartouche.body
MultipleSubs2: "stack" ike.anpa stackjoiner
Ligature2: "anpa" ike.t stackjoiner
EndChar

StartChar: ilo.anpa
Encoding: 245 -1 168
Width: 1100
Flags: MW
LayerCount: 2
Fore
SplineSet
599.998046875 324.99609375 m 1,0,-1
 600 225 l 1,1,-1
 850.001953125 225 l 1,2,-1
 850.000976562 324.99609375 l 1,3,-1
 599.998046875 324.99609375 l 1,0,-1
249.999023438 324.99609375 m 1,4,-1
 250 225 l 1,5,-1
 500.000976562 225 l 1,6,-1
 499.999023438 324.99609375 l 1,7,-1
 249.999023438 324.99609375 l 1,4,-1
150 425 m 1,8,-1
 950 425 l 1,9,-1
 950.000976562 125.000976562 l 1,10,-1
 600 125.000976562 l 1,11,-1
 600 0 l 1,12,-1
 500.000976562 0 l 1,13,-1
 500.000976562 125.000976562 l 1,14,-1
 150.000976562 125.000976562 l 1,15,-1
 150 425 l 1,8,-1
EndSplineSet
MultipleSubs2: "cartouched sitelen" ilo.anpa cartouche.body
MultipleSubs2: "stack" ilo.anpa stackjoiner
Ligature2: "anpa" ilo.t stackjoiner
EndChar

StartChar: insa.anpa
Encoding: 246 -1 169
Width: 1100
Flags: MW
LayerCount: 2
Fore
SplineSet
487.5 300 m 128,-1,1
 487.5 325.888183594 487.5 325.888183594 505.805908203 344.194091797 c 128,-1,2
 524.111816406 362.5 524.111816406 362.5 550 362.5 c 128,-1,3
 575.888183594 362.5 575.888183594 362.5 594.194091797 344.194091797 c 128,-1,4
 612.5 325.888183594 612.5 325.888183594 612.5 300 c 128,-1,5
 612.5 274.111816406 612.5 274.111816406 594.194091797 255.805908203 c 128,-1,6
 575.888183594 237.5 575.888183594 237.5 550 237.5 c 128,-1,7
 524.111816406 237.5 524.111816406 237.5 505.805908203 255.805908203 c 128,-1,0
 487.5 274.111816406 487.5 274.111816406 487.5 300 c 128,-1,1
99.998046875 400.001953125 m 1,8,-1
 199.997070312 400.001953125 l 1,9,-1
 199.997070312 124.999023438 l 1,10,-1
 900.000976562 124.999023438 l 1,11,-1
 900.000976562 400.001953125 l 1,12,-1
 1000 400.001953125 l 1,13,-1
 1000 25 l 1,14,-1
 99.998046875 25 l 1,15,-1
 99.998046875 400.001953125 l 1,8,-1
EndSplineSet
MultipleSubs2: "cartouched sitelen" insa.anpa cartouche.body
LCarets2: 1 0
MultipleSubs2: "stack" insa.anpa stackjoiner
Ligature2: "anpa" insa.t stackjoiner
EndChar

